<?xml version="1.0" encoding="UTF-8" standalone="no"?>
<!-- Created with Inkscape (http://www.inkscape.org/) -->

<svg
   width="841mm"
   height="594mm"
   viewBox="0 0 3178.5828 2245.0393"
   version="1.1"
   id="svg1"
   inkscape:version="1.3.2 (091e20e, 2023-11-25, custom)"
   sodipodi:docname="abeille.svg"
   xmlns:inkscape="http://www.inkscape.org/namespaces/inkscape"
   xmlns:sodipodi="http://sodipodi.sourceforge.net/DTD/sodipodi-0.dtd"
   xmlns="http://www.w3.org/2000/svg"
   xmlns:svg="http://www.w3.org/2000/svg">
  <sodipodi:namedview
     id="namedview1"
     pagecolor="#ffffff"
     bordercolor="#000000"
     borderopacity="0.25"
     inkscape:showpageshadow="2"
     inkscape:pageopacity="0.0"
     inkscape:pagecheckerboard="0"
     inkscape:deskcolor="#d1d1d1"
     inkscape:document-units="mm"
     inkscape:zoom="0.17004434"
     inkscape:cx="1646.6293"
     inkscape:cy="373.43201"
     inkscape:window-width="1920"
     inkscape:window-height="1017"
     inkscape:window-x="-8"
     inkscape:window-y="-8"
     inkscape:window-maximized="1"
     inkscape:current-layer="layer1"
     showgrid="false" />
  <defs
     id="defs1">
    <inkscape:path-effect
       effect="bend_path"
       id="path-effect4"
       is_visible="true"
       lpeversion="1"
       bendpath="M 60.89928,137.49068 C 823.10131,468.35753 1421.0529,-73.11194 2163.3146,250.42446"
       prop_scale="1"
       scale_y_rel="false"
       vertical="false"
       hide_knot="false"
       bendpath-nodetypes="cc" />
    <rect
       x="88.212286"
       y="129.37802"
       width="2605.2029"
       height="364.61078"
       id="rect2" />
    <inkscape:path-effect
       effect="bend_path"
       id="path-effect10"
       is_visible="true"
       lpeversion="1"
       bendpath="M 711.5573,149.96952 C 1385.0524,445.25289 1852.182,-121.11942 2926.4607,272.36259"
       prop_scale="1"
       scale_y_rel="false"
       vertical="false"
       hide_knot="false"
       bendpath-nodetypes="cc" />
    <inkscape:path-effect
       effect="bend_path"
       id="path-effect3"
       is_visible="true"
       lpeversion="1"
       bendpath="m 1174.5864,686.96772 c 340.7856,-37.38661 708.4005,-26.32207 1036.5284,14.70204"
       prop_scale="1"
       scale_y_rel="false"
       vertical="false"
       hide_knot="false"
       bendpath-nodetypes="cc" />
    <inkscape:path-effect
       effect="bend_path"
       id="path-effect2"
       is_visible="true"
       lpeversion="1"
       bendpath="m 284.37611,658.13355 c 254.43742,15.53082 574.58106,23.07465 766.30209,8.47568"
       prop_scale="1"
       scale_y_rel="false"
       vertical="false"
       hide_knot="false"
       bendpath-nodetypes="cc" />
  </defs>
  <g
     inkscape:label="Calque 1"
     inkscape:groupmode="layer"
     id="layer1">
    <g
       id="g9"
       transform="matrix(0.78664081,0,0,0.8202353,1136.2222,-233.77811)"
       style="stroke-width:1.24492">
      <path
         style="opacity:0.99569;fill:#e6e6e6;fill-opacity:1;stroke:none;stroke-width:7.46954e-08;stroke-dasharray:none"
         d="m 2152.9946,479.2518 c -64.9131,-47.41744 -80.1948,-82.3195 -60.2964,-126.83019 65.4313,-88.36545 173.8841,-67.79661 211.0371,-31.18776 49.0252,39.687 31.4036,72.29437 20.792,102.91959 z"
         id="path3"
         sodipodi:nodetypes="ccccc" />
      <path
         style="opacity:0.99569;fill:#e6e6e6;fill-opacity:1;stroke:none;stroke-width:7.46954e-08;stroke-dasharray:none"
         d="m 2160.8174,655.53547 c -58.2104,55.44064 -95.2746,64.26855 -135.5347,36.76809 -75.3137,-80.10955 -35.7767,-183.17227 6.8584,-213.21886 47.7767,-41.18165 76.7284,-18.03959 104.9769,-2.14824 z"
         id="path9"
         sodipodi:nodetypes="ccccc" />
      <path
         style="opacity:0.99569;fill:#e6e6e6;fill-opacity:1;stroke:none;stroke-width:7.46954e-08;stroke-dasharray:none"
         d="m 2331.9435,706.65942 c 34.68,72.5218 31.5914,110.49744 -7.0284,140.25743 -99.5001,46.79119 -185.2443,-22.72883 -200.6047,-72.57467 -24.3548,-58.18403 6.6178,-78.54215 30.4785,-100.47799 z"
         id="path8"
         sodipodi:nodetypes="ccccc" />
      <path
         style="opacity:0.99569;fill:#e6e6e6;fill-opacity:1;stroke:none;stroke-width:7.46954e-08;stroke-dasharray:none"
         d="m 2472.7142,564.06066 c 79.7766,9.88996 110.0955,32.96488 114.3392,81.53583 -14.2343,109.02787 -119.0127,143.7638 -169.2753,129.82751 -62.1344,-10.85617 -62.5824,-47.91773 -68.1934,-79.83996 z"
         id="path7"
         sodipodi:nodetypes="ccccc" />
      <path
         style="opacity:0.99569;fill:#e6e6e6;fill-opacity:1;stroke:none;stroke-width:7.46954e-08;stroke-dasharray:none"
         d="m 2333.8586,434.6338 c 10.6023,-79.6851 33.9472,-109.7966 82.5541,-113.60621 108.8964,15.2079 142.6948,120.29244 128.31,170.42857 -11.4109,62.03483 -48.475,62.15177 -80.4461,67.47734 z"
         id="path6"
         sodipodi:nodetypes="ccccc" />
      <path
         style="opacity:0.99569;fill:#705656;fill-opacity:1;stroke:none;stroke-width:7.46954e-08;stroke-dasharray:none"
         d="m 2244.4786,427.27221 c -89.3475,20.98901 -130.5015,40.92027 -149.7012,112.27592 -13.0329,69.98235 8.2491,118.31424 66.5339,153.85958 54.9349,24.5862 85.36,41.71609 149.7012,45.74203 92.3196,-5.80843 154.2342,-62.41271 162.1763,-116.43427 2.5164,-46.98687 21.4032,-91.14777 -29.1085,-145.54285 -69.3539,-54.29774 -115.8972,-59.29791 -199.6017,-49.90041 z"
         id="path1"
         sodipodi:nodetypes="ccccccc" />
      <path
         style="opacity:0.99569;fill:#d9cdcd;fill-opacity:0.99287;stroke:none;stroke-width:7.46954e-08;stroke-dasharray:none"
         d="m 2240.3203,624.79466 c -20.6913,-11.43673 -63.97,-50.64313 -27.0294,-91.48408 24.899,-20.35486 52.7242,-26.07828 83.1673,-18.71266 28.8733,9.31925 58.0264,18.54525 70.6923,33.26694 9.1841,14.77721 12.2042,18.27792 8.3167,41.58367 -6.0643,26.95943 -10.0494,34.0854 -29.1086,47.82122 -23.7749,12.35024 -37.6208,3.89859 -56.6577,3.11879 -22.7124,-2.04161 -35.4088,-5.46265 -49.3806,-15.59388 z"
         id="path2"
         sodipodi:nodetypes="cccccccc" />
    </g>
    <text
       xml:space="preserve"
       id="text2"
       style="fill:#2b2727;stroke-width:0.00000006;-inkscape-font-specification:'MS Reference Sans Serif';font-family:'MS Reference Sans Serif';font-size:192px;opacity:0.99568966;font-weight:normal;font-style:normal;font-stretch:normal;font-variant:normal;white-space:pre;shape-inside:url(#rect2)" />
    <path
       d="m 339.47913,111.32416 c -32.12538,68.49092 -67.32537,135.93523 -105.47101,202.17159 -11.40305,-2.93409 -22.76632,-6.00791 -34.08703,-9.21959 0.80365,-63.32434 3.7197,-126.34769 8.69377,-188.97197 -32.1211,53.90018 -66.11714,106.95499 -101.92156,159.08043 -10.814817,-3.8738 -21.58154,-7.87439 -32.297562,-12.00003 7.099346,-76.20081 17.2726,-151.69063 30.416632,-226.281796 8.34236,3.619678 16.72229,7.149349 25.13768,10.587603 -10.19436,61.994753 -18.4088,124.549453 -24.58883,187.565873 36.08606,-51.95199 70.36019,-104.85326 102.7548,-158.618635 8.52775,2.837535 17.08394,5.581222 25.66653,8.229695 -4.94393,63.18587 -7.81364,126.76014 -8.55471,190.62496 31.64247,-55.48198 61.30887,-111.78238 88.92962,-168.8135 8.42248,1.97484 16.86364,3.85704 25.32167,5.64537 z m 265.78524,248.38419 c -51.03265,-0.22729 -102.28521,-2.75921 -153.49713,-7.8653 l 21.84005,-219.88448 c 43.89573,4.34048 88.24755,6.50838 132.7949,6.77324 l -0.13449,26.11945 c -36.16799,-0.20785 -72.24269,-1.65832 -108.09162,-4.48844 l -4.78443,60.36399 c 37.41234,2.96212 74.97792,4.47446 112.56428,4.6741 l -0.13449,26.11946 c -38.1982,-0.1961 -76.40692,-1.73514 -114.49366,-4.75419 l -6.48479,81.81687 c 40.20578,3.19795 80.43523,4.82088 120.55587,5.00583 z m 302.16868,-20.17786 c -9.76351,1.21824 -19.55012,2.40014 -29.36039,3.541 -37.39551,4.36463 -75.11884,8.06146 -113.13765,10.85492 L 748.65306,133.52939 c 9.15226,-0.68016 18.31732,-1.41932 27.49459,-2.21307 l 16.7453,194.17221 c 27.52902,-2.36921 54.92439,-5.18804 82.17329,-8.36312 9.73144,-1.13075 19.4435,-2.30305 29.13675,-3.5122 z M 1207.21,278.5135 c -4.8861,3.16401 -9.3238,6.11387 -13.3029,8.84069 -3.8845,2.71241 -9.0958,5.73621 -15.6362,9.07189 -5.5492,2.77878 -11.6778,5.35115 -18.3888,7.71617 -6.5995,2.44751 -14.038,4.32827 -22.3206,5.64035 0,0 -0.032,0.005 -0.032,0.005 0,0 0,0 0,0 -15.5927,2.47628 -30.188,2.53685 -43.758,0.1658 -13.4969,-2.48552 -25.7574,-7.73491 -36.7428,-15.75161 -10.763,-7.85256 -19.8493,-18.52245 -27.255,-32.01225 -7.4218,-13.59025 -12.5386,-29.87029 -15.401,-48.85527 -2.7135,-17.99781 -2.6375,-34.47707 0.1866,-49.41239 2.8244,-14.93705 8.1587,-28.01785 16.0025,-39.23773 7.6043,-10.88442 17.4037,-19.82215 29.433,-26.818938 12.0801,-6.985899 25.9495,-11.735047 41.6438,-14.239694 0,0 0,-10e-7 0,-10e-7 0,0 0.1756,-0.02802 0.1756,-0.02802 11.5368,-1.83409 23.281,-2.249047 35.2271,-1.234948 12.0369,0.998341 25.7135,3.952907 40.9898,8.881455 l 5.3696,34.46228 c -0.7257,0.11306 -1.4514,0.22617 -2.1769,0.33934 -13.4693,-8.21286 -26.4278,-13.68597 -38.8326,-16.43054 -11.8769,-2.62777 -24.1545,-3.02598 -36.8196,-1.2062 0,0 0,0 0,0 -0.5663,0.0811 -1.1334,0.16665 -1.7013,0.25663 -10.8637,1.7213 -20.3651,5.07851 -28.5183,10.07027 -8.073,4.87907 -14.9137,11.61261 -20.5374,20.2029 -5.462,8.3637 -9.1914,18.45835 -11.19,30.28149 -1.9177,11.70933 -1.7527,24.90356 0.5121,39.56936 2.3713,15.35483 6.4324,28.239 12.2062,38.6611 5.8695,10.40543 12.5909,18.57083 20.1597,24.49836 7.9043,6.17489 16.6343,10.31115 26.1748,12.41038 9.6212,1.98612 19.4452,2.18059 29.4615,0.58883 0.4721,-0.075 0.9426,-0.1527 1.4117,-0.23302 0,0 0,0 0,0 13.2159,-2.25688 25.2384,-6.61593 36.0884,-13.07056 11.2351,-6.68378 21.3096,-15.63013 30.2577,-26.83977 0.6706,-0.10462 1.3412,-0.20918 2.0118,-0.31368 1.767,11.34078 3.534,22.68157 5.301,34.02235 z M 1492.6973,62.731255 c 9.8896,9.232799 17.636,20.882486 23.2842,34.916643 5.7506,14.034812 9.0654,30.129112 10.1053,48.311362 1.0387,18.16289 -0.456,34.61643 -4.3241,49.31083 -3.7809,14.59607 -9.5077,26.96619 -17.1426,37.11983 -7.8917,10.57404 -17.4308,18.84306 -28.6825,24.85949 -11.1634,6.01086 -24.1475,9.73209 -39.0857,11.24206 -14.5691,1.47266 -28.1328,0.37755 -40.7793,-3.34625 -3.8315,-1.13987 -7.53,-2.50661 -11.0962,-4.10199 -8.1177,-3.62612 -15.5511,-8.4349 -22.2988,-14.4454 -9.7128,-8.6517 -17.8513,-19.71339 -24.3794,-33.22462 -6.431,-13.5202 -10.895,-29.34793 -13.3094,-47.48736 -2.3759,-17.85003 -2.1841,-34.14011 0.6562,-48.88462 2.8268,-14.83871 8.131,-27.901718 15.9681,-39.158927 5.2069,-7.43734 11.5936,-13.904141 19.1689,-19.381247 3.3407,-2.416131 6.9125,-4.639505 10.7154,-6.667371 12.5284,-6.638989 26.6169,-10.786332 42.1907,-12.361878 16.182,-1.637073 31.0137,-0.353842 44.3445,3.789839 13.4276,4.037693 25.0032,10.563701 34.6647,19.509609 z m 3.3478,85.163365 c -2.0476,-28.64456 -9.9703,-50.212301 -24.2344,-64.698437 -14.2336,-14.545742 -32.8531,-20.806799 -55.4184,-18.525421 -22.7601,2.301072 -39.7066,12.154372 -50.6874,29.203769 -0.1968,0.305969 -0.3912,0.613835 -0.5832,0.923595 0,0 0,3e-6 0,3e-6 -10.4496,16.862171 -13.7698,39.271891 -10.277,67.233261 3.4869,27.91448 12.183,48.75686 25.7826,62.59644 0,0 0,0 0,0 0.4104,0.41791 0.8254,0.82949 1.2449,1.23477 14.3251,13.75344 31.7738,19.46133 52.5664,17.36049 20.7875,-2.10031 36.5567,-11.1569 47.6905,-27.44071 11.1871,-16.34164 15.9807,-39.00317 13.916,-67.88776 z m 355.1302,123.40685 c -8.6771,-1.49166 -17.382,-2.88348 -26.1125,-4.17805 l 27.9063,-188.305564 c -27.4987,39.573914 -53.0509,79.930464 -76.7887,120.912304 -5.5126,-0.56313 -11.0306,-1.09196 -16.5536,-1.58704 -15.3716,-44.73618 -32.6422,-89.2393 -51.6407,-133.401008 l -9.1551,190.220508 c -8.3364,-0.39931 -16.6855,-0.72455 -25.0457,-0.97785 l 6.6733,-220.921214 c 14.0985,0.424747 28.2106,1.035028 42.3304,1.837447 18.4462,42.13047 35.2956,84.578387 50.3964,127.248117 22.4231,-39.01863 46.45,-77.495423 72.189,-115.302273 14.3782,2.005667 28.7472,4.230463 43.1008,6.681364 -12.4333,72.591089 -24.8666,145.182169 -37.2999,217.773259 z m 267.9084,80.37266 c -40.0945,-17.46395 -81.1261,-32.72251 -122.8278,-45.62089 L 2061.522,94.940361 c 49.612,15.331449 98.3154,33.434959 145.843,54.155729 l -10.4349,23.94475 c -37.2336,-16.23133 -75.1982,-30.8263 -113.7581,-43.7062 l -19.188,57.42944 c 36.8509,12.31142 73.1483,26.26601 108.7562,41.78505 l -10.4349,23.94475 c -34.9066,-15.21179 -70.4847,-28.89013 -106.5985,-40.95632 l -26.0072,77.8394 c 33.7974,11.29568 67.1157,24.10605 99.8189,38.35242 z"
       id="text3"
       style="font-size:303.938px;font-family:'MS Reference Sans Serif';-inkscape-font-specification:'MS Reference Sans Serif';opacity:0.99569;fill:#2b2727;stroke-width:6e-08"
       transform="scale(1.0107236,0.98939017)"
       aria-label="W E L C O M E"
       inkscape:path-effect="#path-effect4"
       inkscape:original-d="M 334.11697,104.27198 276.68338,325.25034 H 243.58857 L 197.13711,141.81901 151.7245,325.25034 H 119.37172 L 60.89928,104.27198 h 30.126665 l 46.451465,183.72814 45.70942,-183.72814 h 29.82985 l 46.15465,185.50903 46.15464,-185.50903 z M 629.89255,325.25034 H 484.30507 V 104.27198 h 145.58748 v 26.11967 H 513.6897 v 60.55015 h 116.20285 v 26.11967 H 513.6897 v 82.06919 h 116.20285 z m 293.25265,0 H 783.34559 V 104.27198 h 29.38463 V 299.13066 H 923.1452 Z m 306.9062,-16.02798 q -8.1624,3.56177 -14.8407,6.67832 -6.53,3.11655 -17.2153,6.52992 -9.0528,2.81974 -19.7381,4.74903 -10.537,2.0777 -23.3,2.0777 -24.0419,0 -43.7801,-6.67832 -19.5898,-6.82674 -34.1337,-21.22224 -14.2471,-14.09868 -22.2611,-35.76614 -8.0139,-21.81586 -8.0139,-50.60686 0,-27.30693 7.7171,-48.82598 7.7172,-21.51904 22.2611,-36.35976 14.0987,-14.3955 33.9853,-21.96427 20.0349,-7.56877 44.3737,-7.56877 17.8089,0 35.4694,4.30381 17.8088,4.30381 39.4763,15.13753 v 34.8757 h -2.2261 q -18.2541,-15.28594 -36.2114,-22.26108 -17.9573,-6.97514 -38.4375,-6.97514 -16.77,0 -30.275,5.49107 -13.3567,5.34266 -23.8936,16.77001 -10.2401,11.13054 -16.028,28.19737 -5.6395,16.91843 -5.6395,39.17951 0,23.29993 6.2331,40.06995 6.3816,16.77002 16.3248,27.30693 10.3885,10.98213 24.1904,16.32479 13.9503,5.19426 29.3846,5.19426 21.2223,0 39.7732,-7.27196 18.5509,-7.27195 34.7273,-21.81586 h 2.0777 z m 313.1391,-179.57274 q 13.5051,14.84072 20.6286,36.35977 7.272,21.51904 7.272,48.82597 0,27.30693 -7.4204,48.97439 -7.2719,21.51904 -20.4802,35.91454 -13.6534,14.98913 -32.3527,22.5579 -18.551,7.56877 -42.4445,7.56877 -23.2999,0 -42.4445,-7.71718 -18.9961,-7.71717 -32.3528,-22.40949 -13.3566,-14.69231 -20.6286,-36.06295 -7.1235,-21.37064 -7.1235,-48.82598 0,-27.01011 7.1235,-48.38075 7.1236,-21.51905 20.7771,-36.80499 13.0598,-14.54391 32.3527,-22.26108 19.4414,-7.71718 42.2961,-7.71718 23.7451,0 42.5929,7.86558 18.9961,7.71718 32.2043,22.11268 z m -2.6713,85.18574 q 0,-43.03809 -19.2929,-66.33802 -19.293,-23.44835 -52.6846,-23.44835 -33.6884,0 -52.9814,23.44835 -19.1445,23.29993 -19.1445,66.33802 0,43.48332 19.5897,66.63485 19.5898,23.00311 52.5362,23.00311 32.9464,0 52.3877,-23.00311 19.5898,-23.15153 19.5898,-66.63485 z m 380.813,110.41498 h -29.3847 V 134.84387 l -61.4405,129.55951 h -17.5121 l -60.9954,-129.55951 v 190.40647 h -27.4553 V 104.27198 h 40.07 l 58.9176,123.02959 56.9884,-123.02959 h 40.812 z m 311.8035,0 H 2087.5482 V 104.27198 h 145.5875 v 26.11967 h -116.2028 v 60.55015 h 116.2028 v 26.11967 h -116.2028 v 82.06919 h 116.2028 z" />
  </g>
</svg>
