<?xml version="1.0" encoding="UTF-8" standalone="no"?>
<!-- Created with Inkscape (http://www.inkscape.org/) -->

<svg
   width="148mm"
   height="210mm"
   viewBox="0 0 559.37006 793.70081"
   version="1.1"
   id="svg1"
   inkscape:version="1.3.2 (091e20e, 2023-11-25, custom)"
   sodipodi:docname="justme.svg"
   xmlns:inkscape="http://www.inkscape.org/namespaces/inkscape"
   xmlns:sodipodi="http://sodipodi.sourceforge.net/DTD/sodipodi-0.dtd"
   xmlns="http://www.w3.org/2000/svg"
   xmlns:svg="http://www.w3.org/2000/svg">
  <sodipodi:namedview
     id="namedview1"
     pagecolor="#ffffff"
     bordercolor="#000000"
     borderopacity="0.25"
     inkscape:showpageshadow="2"
     inkscape:pageopacity="0.0"
     inkscape:pagecheckerboard="0"
     inkscape:deskcolor="#d1d1d1"
     inkscape:document-units="mm"
     inkscape:zoom="0.36571381"
     inkscape:cx="-51.953193"
     inkscape:cy="753.3213"
     inkscape:window-width="1920"
     inkscape:window-height="1017"
     inkscape:window-x="-8"
     inkscape:window-y="-8"
     inkscape:window-maximized="1"
     inkscape:current-layer="layer1" />
  <defs
     id="defs1" />
  <g
     inkscape:label="Calque 1"
     inkscape:groupmode="layer"
     id="layer1">
    <rect
       style="opacity:0.99569;fill:#ffccaa;fill-opacity:1;stroke:none;stroke-width:0.00000006;stroke-dasharray:none;stroke-opacity:1"
       id="rect133"
       width="559.37006"
       height="793.70081"
       x="0"
       y="0" />
    <path
       style="opacity:0.99569;fill:#2c1202;fill-opacity:1;stroke-width:4.53543"
       d="m 127.8322,420.41072 c 5.40421,91.32937 8.68018,188.5037 -21.19143,270.01987 16.85679,-11.44714 36.35523,-21.40204 45.11725,-45.80084 14.25084,27.29521 13.22751,58.94358 11.6211,82.71496 18.04855,-24.10783 20.11937,-50.87862 16.40627,-78.61339 13.35902,26.57135 12.49764,47.81004 11.62111,69.04306 l 73.14463,-115.52749 -0.6836,-98.43763 z"
       id="path10"
       sodipodi:nodetypes="ccccccccc" />
    <path
       style="opacity:0.99569;fill:#2c1202;fill-opacity:1;stroke-width:4.53543"
       d="m 434.7662,423.82868 c 1.77153,82.74766 6.44328,163.64972 28.02738,233.78937 -11.42165,-27.13382 -34.3956,-38.38324 -32.81255,-83.39854 -20.41974,7.51818 -17.09359,121.07386 -19.14065,120.99625 -1.73769,-0.0659 -16.84,-52.01636 -30.07816,-95.01966 -9.73266,-15.29418 5.69222,126.82479 4.10157,122.36344 -2.8567,-8.01228 -92.6449,-212.63773 -72.8129,-205.84492 z"
       id="path11"
       sodipodi:nodetypes="cccscscc" />
    <path
       style="opacity:0.99569;fill:#d4ad92;fill-opacity:0.992161;stroke:none;stroke-width:4.53543;stroke-dasharray:none;stroke-opacity:1"
       d="m 253.19103,524.66145 c 2.79336,15.86362 -0.91001,31.03504 -3.53526,28.8366 25.13547,42.64543 45.20262,37.81168 70.33809,-1.48447 -4.48605,0 -13.69571,-33.31848 -2.90024,-36.73645 3.68663,-1.16723 -63.90259,9.38432 -63.90259,9.38432 z"
       id="path2"
       sodipodi:nodetypes="cccsc" />
    <ellipse
       style="opacity:0.99569;fill:#d1b5a2;fill-opacity:0.992161;stroke:none;stroke-width:4.53543;stroke-dasharray:none;stroke-opacity:1"
       id="path1"
       cx="282.77402"
       cy="419.569"
       rx="154.19644"
       ry="109.24262" />
    <path
       style="opacity:0.99569;fill:#194444;fill-opacity:1;stroke:none;stroke-width:4.53543;stroke-dasharray:none;stroke-opacity:1"
       d="m 249.08946,552.41402 c -17.38386,57.7576 -25.0552,95.3646 -41.6412,139.2961 -13.94953,37.63228 -15.8181,68.88585 -44.35087,102.39111 l 232.0683,-0.48337 C 381.18227,770.04205 373.86168,743.11253 355.07223,677.0514 346.5367,631.4981 333.20239,576.09046 319.31027,549.23062 c -34.42957,33.51552 -38.75179,35.73776 -70.22081,3.1834 z"
       id="path3"
       sodipodi:nodetypes="ccccccc" />
    <path
       style="opacity:0.99569;fill:#266565;fill-opacity:1;stroke:none;stroke-width:6e-08;stroke-dasharray:none;stroke-opacity:1"
       d="m 224.98433,582.31663 c -5.00596,7.66152 -60.99273,100.39872 -54.84631,128.92334 14.92324,19.89551 71.6962,41.39701 105.27356,32.12896 l -5.46875,-16.40627 c -20.07228,-0.81059 -58.05276,-6.76224 -74.67768,-24.80963 2.46222,-11.88468 5.42701,-22.02931 10.00838,-34.00389 4.17036,-12.59455 9.0331,-21.13513 15.11583,-34.10764 6.51169,-13.88733 9.7118,-18.67336 16.75653,-38.47149 3.85723,-10.62698 8.02491,-28.26445 9.12998,-33.07762 -11.7388,3.89488 -17.24525,12.39469 -21.29154,19.82424 z"
       id="path26"
       sodipodi:nodetypes="ccccccsccc" />
    <g
       id="g5"
       transform="translate(11.621109,174.31664)">
      <ellipse
         style="opacity:0.99569;fill:#140e0a;fill-opacity:0.992161;stroke:none;stroke-width:4.53543;stroke-dasharray:none;stroke-opacity:1"
         id="path4"
         cx="210.75124"
         cy="249.42119"
         rx="12.567735"
         ry="11.600986" />
      <path
         style="opacity:0.99569;fill:#140e0a;fill-opacity:0.992161;stroke:none;stroke-width:4.53543;stroke-dasharray:none;stroke-opacity:1"
         d="m 203.27612,257.9854 c -6.94318,-2.15802 -12.26028,-20.8245 -12.26028,-20.8245 6.98021,-1.09942 20.28526,-2.48331 25.86347,2.48057 z"
         id="path5"
         sodipodi:nodetypes="cccc" />
    </g>
    <g
       id="g6"
       transform="matrix(-1,0,0,1,551.73734,175.00024)">
      <ellipse
         style="opacity:0.99569;fill:#140e0a;fill-opacity:0.992161;stroke:none;stroke-width:4.53543;stroke-dasharray:none;stroke-opacity:1"
         id="ellipse5"
         cx="210.75124"
         cy="249.42119"
         rx="12.567735"
         ry="11.600986" />
      <path
         style="opacity:0.99569;fill:#140e0a;fill-opacity:0.992161;stroke:none;stroke-width:4.53543;stroke-dasharray:none;stroke-opacity:1"
         d="m 203.27612,257.9854 c -6.94318,-2.15802 -12.26028,-20.8245 -12.26028,-20.8245 6.98021,-1.09942 20.28526,-2.48331 25.86347,2.48057 z"
         id="path6"
         sodipodi:nodetypes="cccc" />
    </g>
    <path
       style="opacity:0.99569;fill:#140e0a;fill-opacity:0.992161;stroke:none;stroke-width:4.53543;stroke-dasharray:none;stroke-opacity:1"
       d="m 266.60191,481.25063 33.49614,1.36719 z"
       id="path7" />
    <path
       id="path8"
       style="opacity:0.99569;fill:#2b1100;fill-opacity:0.992161;stroke-width:4.53543"
       d="m 282.77344,310.32617 c -85.15966,4.4e-4 -154.87856,45.49167 -154.8789,105.82422 0.10527,16.09082 8.6446,79.1345 18.416,93.66021 -0.0671,-14.57019 7.54289,-19.18212 0.59538,-51.66467 -3.93613,-18.40311 1.62563,-38.14813 3.48472,-54.82562 57.31918,-7.94132 91.39324,-40.59428 140.13671,-58.78907 v -34.05663 c -2.58247,-0.0955 -5.16793,-0.14503 -7.75391,-0.14844 z"
       sodipodi:nodetypes="cccscccc" />
    <path
       id="path9"
       style="opacity:0.99569;fill:#2c1202;fill-opacity:1;stroke-width:4.53543"
       d="m 292.93945,310.59375 -1.04492,0.44141 v 32.81249 c 41.52806,31.61751 86.80234,63.64452 131.93359,77.24611 l -5.03125,76.14848 c 8.75975,-13.90397 17.42175,-34.42047 18.17384,-77.67388 -0.0226,-57.52571 -63.0101,-105.18231 -144.03126,-108.97461 z"
       sodipodi:nodetypes="ccccccc" />
    <path
       style="opacity:0.99569;fill:#cccccc;fill-opacity:0.992161;stroke:#000000;stroke-width:3.02362;stroke-dasharray:none;stroke-opacity:1"
       d="M 183.19891,420.05237 164.3473,416.66874 Z"
       id="path19"
       sodipodi:nodetypes="ccc" />
    <path
       style="opacity:0.99569;fill:#2c1202;fill-opacity:1;stroke-width:4.53543"
       d="m 206.44559,384.86378 c -48.64708,33.91057 -39.07423,69.11599 -34.86333,104.58999 -13.81417,-22.75755 -66.97297,-116.81772 11.6211,-118.26187 z"
       id="path12"
       sodipodi:nodetypes="cccc" />
    <path
       style="opacity:0.99569;fill:#cccccc;fill-opacity:0.992161;stroke:#000000;stroke-width:3.02362;stroke-dasharray:none;stroke-opacity:1"
       d="m 384.76603,420.05236 17.40148,-4.35037 z"
       id="path20" />
    <path
       style="opacity:0.99569;fill:#2c1202;fill-opacity:1;stroke-width:4.53543"
       d="m 360.25439,386.23098 c 50.07071,28.02738 27.904,60.83992 30.07815,90.91808 25.55587,-30.7694 58.00629,-62.14627 9.57033,-84.08214 z"
       id="path13"
       sodipodi:nodetypes="cccc" />
    <path
       style="opacity:0.99569;fill:#2c1202;fill-opacity:1;stroke-width:4.53543"
       d="m 153.1252,426.56306 8.20314,100.48841 -27.34379,-98.43763 z"
       id="path14" />
    <path
       style="opacity:0.99569;fill:#2c1202;fill-opacity:1;stroke-width:4.53543"
       d="m 411.52398,420.41071 c 10.86815,29.29813 -2.31858,62.47028 -21.87503,91.60168 l 41.69927,-38.2813 -2.05078,-54.00398 z"
       id="path15"
       sodipodi:nodetypes="ccccc" />
    <ellipse
       style="opacity:0.99569;fill:#120701;fill-opacity:0.86538464;stroke:#000000;stroke-width:3.02363;stroke-dasharray:none;stroke-opacity:1"
       id="ellipse16"
       cx="227.97882"
       cy="423.48682"
       rx="45.459042"
       ry="33.837933" />
    <path
       style="opacity:0.99569;fill:#cccccc;fill-opacity:0.992161;stroke:#000000;stroke-width:3.02362;stroke-dasharray:none;stroke-opacity:1"
       d="m 280.11547,469.59824 8.94243,-0.24169 z"
       id="path17" />
    <path
       style="opacity:0.99569;fill:#cccccc;fill-opacity:0.992161;stroke:#000000;stroke-width:3.02362;stroke-dasharray:none;stroke-opacity:1"
       d="m 273.58992,425.36948 19.81835,0.48338 z"
       id="path18" />
    <path
       style="opacity:0.99569;fill:#2c1101;fill-opacity:1;stroke:none;stroke-width:6e-08;stroke-dasharray:none;stroke-opacity:1"
       d="M 130.39381,396.76746 C 134.86971,386.37743 98.083875,529.43434 77.339906,594.55053 104.95939,543.7512 146.69677,515.37442 145.97907,419.56899 Z"
       id="path24"
       sodipodi:nodetypes="cccc" />
    <path
       style="opacity:0.99569;fill:#d1b5a2;fill-opacity:0.988235;stroke:none;stroke-width:6e-08;stroke-dasharray:none;stroke-opacity:1"
       d="m 301.6925,721.03145 c 1.74924,-0.10423 3.54801,-0.0189 4.99633,-1.27544 -0.044,-4.84716 0.62749,-7.56069 0.0203,-11.86856 0.50876,-1.77358 3.43819,-2.1571 3.97687,-0.0387 0.29389,4.63774 0.11824,6.70733 -0.52821,12.5096 l 0.66618,0.95327 c 7.59282,-3.25273 12.90367,-8.34655 19.18124,-11.75915 0.97191,-0.45767 2.55229,0.83673 1.33236,2.55087 -6.10665,5.19423 -15.27519,10.24085 -17.02452,11.68511 l 1.27521,1.36884 c 2.55791,-0.60586 13.12384,-7.0643 19.68576,-10.59645 2.53569,-1.24996 3.68919,1.43984 1.90099,2.77634 -7.55355,4.24139 -11.80981,7.69323 -19.43005,10.95399 l 0.8613,1.64902 c 8.07278,-1.26717 12.90694,-4.45858 21.72471,-6.9956 1.11912,0.27373 1.52087,2.35121 0,3.1886 -7.55003,3.37642 -17.3376,6.30282 -20.41257,6.97625 0.92442,-0.90708 -0.30785,1.19441 1.03968,1.93249 2.85637,-0.005 7.71475,-1.14158 13.04418,0.97594 0.9675,0.54495 1.0968,1.93503 -0.3533,2.0806 -8.30197,-0.29936 -17.07281,0.9922 -25.0995,1.25941 z"
       id="path132"
       sodipodi:nodetypes="cccccccccccccccccccccc" />
    <path
       style="opacity:0.99569;fill:#ce7b43;fill-opacity:1;stroke:none;stroke-width:6e-08;stroke-dasharray:none;stroke-opacity:1"
       d="m 280.11044,700.77562 c 2.386,1.16582 -5.83092,13.01403 -9.4526,19.64996 -2.7344,5.24601 -1.77383,14.47862 -2.86842,23.24595 0.35676,17.79281 0.99058,36.49931 3.867,50.51263 l 57.03818,-0.24168 -1.9335,-41.32852 c -1.15249,-11.38726 -2.54362,-22.65522 -7.4923,-32.1444 -3.52272,-6.25459 -9.53149,-11.82159 -10.63424,-19.33497 z"
       id="path35"
       sodipodi:nodetypes="ccccccccc" />
    <ellipse
       style="opacity:0.99569;fill:#d58b59;fill-opacity:1;stroke:none;stroke-width:0.00000006;stroke-dasharray:none;stroke-opacity:1"
       id="path27"
       cx="293.94571"
       cy="669.23914"
       rx="51.953194"
       ry="35.546921" />
    <ellipse
       style="opacity:0.99569;fill:#120701;fill-opacity:0.865385;stroke:#000000;stroke-width:3.02363;stroke-dasharray:none;stroke-opacity:1"
       id="ellipse27"
       cx="338.03757"
       cy="425.5376"
       rx="45.459042"
       ry="33.837933" />
    <path
       style="opacity:0.99569;fill:#d58b59;fill-opacity:1;stroke:none;stroke-width:6e-08;stroke-dasharray:none;stroke-opacity:1"
       d="m 249.4212,651.10533 c -4.65905,-6.06286 -1.99903,-16.37507 3.14193,-19.09329 6.07423,-1.13721 17.12769,5.0848 14.25955,11.84268 z"
       id="path28"
       sodipodi:nodetypes="cccc" />
    <path
       style="opacity:0.99569;fill:#d58b59;fill-opacity:1;stroke:none;stroke-width:6e-08;stroke-dasharray:none;stroke-opacity:1"
       d="m 335.20814,648.20508 c 4.65905,-6.06286 1.99903,-16.37507 -3.14193,-19.09329 -6.07423,-1.13721 -17.12769,5.0848 -14.25955,11.84268 z"
       id="path29"
       sodipodi:nodetypes="cccc" />
    <ellipse
       style="opacity:0.99569;fill:#070402;fill-opacity:1;stroke:none;stroke-width:6e-08;stroke-dasharray:none;stroke-opacity:1"
       id="path30"
       cx="267.91028"
       cy="666.815"
       rx="4.229526"
       ry="4.5920568" />
    <ellipse
       style="opacity:0.99569;fill:#070402;fill-opacity:1;stroke:none;stroke-width:6e-08;stroke-dasharray:none;stroke-opacity:1"
       id="ellipse30"
       cx="323.49832"
       cy="666.5733"
       rx="4.229526"
       ry="4.5920568" />
    <path
       id="path31"
       style="opacity:0.99569;fill:#321c0e;fill-opacity:1;stroke:none;stroke-width:6e-08;stroke-dasharray:none;stroke-opacity:1"
       d="m 293.94531,633.69141 c -5.97782,0.0244 -11.90465,0.75452 -17.51953,2.1582 0.12721,0.77567 0.54688,0.9961 0.54688,0.9961 2.27275,6.45635 1.91696,11.16035 2.41797,16.43554 1.31653,-5.69258 3.16348,-10.85475 2.6582,-18.36914 3.48969,10.73583 3.75634,20.82705 4.10937,30.93555 1.97607,-10.63411 3.83817,-21.26823 2.65821,-31.90234 2.60055,1.7893 4.82785,29.54657 4.59179,27.31054 -0.19105,-1.80967 4.42934,-25.947 3.08204,-27.51757 -0.84762,-0.0299 -1.69619,-0.0455 -2.54493,-0.0469 z m 2.32617,1.07619 c 2.27185,1.87294 4.90542,35.58329 4.62891,30.83985 1.44946,-5.1961 2.08635,-31.21739 0.9668,-30.9375 l 3.14258,14.25976 c 0.40807,0 2.60753,-9.18199 1.22656,-14.22265 -3.15653,-0.52679 -12.47003,-2.00477 -9.96485,0.0605 z"
       sodipodi:nodetypes="cccccccscccsccccs" />
    <path
       style="opacity:0.99569;fill:#321c0e;fill-opacity:1;stroke:none;stroke-width:6e-08;stroke-dasharray:none;stroke-opacity:1"
       d="m 294.6167,686.63335 c -2.66934,-0.29942 -5.5979,-1.98249 -5.31711,-5.80049 l 9.66748,0.24169 c 0.0768,3.07444 -1.20642,5.06093 -4.35037,5.5588 z"
       id="path32"
       sodipodi:nodetypes="cccc" />
    <path
       id="path33"
       style="opacity:0.99569;fill:#321c0e;fill-opacity:1;stroke:none;stroke-width:6e-08;stroke-dasharray:none;stroke-opacity:1"
       d="M 242.10156 668.10743 A 51.953194 35.546921 0 0 0 241.99219 669.23829 A 51.953194 35.546921 0 0 0 242.13477 670.73243 C 246.84821 669.7498 254.4961 668.50586 254.4961 668.50586 L 242.10156 668.10743 z M 242.26953 672.12891 A 51.953194 35.546921 0 0 0 243.24805 676.66797 L 262.95508 673.82422 C 262.95508 673.82422 249.15914 672.66126 242.26953 672.12891 z M 243.49414 677.50977 A 51.953194 35.546921 0 0 0 245.51563 681.97071 L 264.88867 679.14063 L 243.49414 677.50977 z M 245.6836 682.3125 A 51.953194 35.546921 0 0 0 248.59961 686.52344 L 262.95508 682.52539 L 245.6836 682.3125 z " />
    <path
       id="path34"
       style="opacity:0.99569;fill:#321c0e;fill-opacity:1;stroke:none;stroke-width:6e-08;stroke-dasharray:none;stroke-opacity:1"
       d="M 345.55274 665.22657 L 333.76953 665.60743 C 333.76953 665.60743 341.11984 666.80226 345.84961 667.77539 A 51.953194 35.546921 0 0 0 345.55274 665.22657 z M 345.89844 669.23633 C 338.9768 669.77206 325.31055 670.92383 325.31055 670.92383 L 345.45899 673.83204 A 51.953194 35.546921 0 0 0 345.89844 669.23829 A 51.953194 35.546921 0 0 0 345.89844 669.23633 z M 345.25391 674.57422 L 323.37696 676.24024 L 343.74414 679.21485 A 51.953194 35.546921 0 0 0 345.25391 674.57422 z M 343.65235 679.39844 L 325.31055 679.625 L 341.09375 684.01954 A 51.953194 35.546921 0 0 0 343.65235 679.39844 z " />
    <path
       style="opacity:0.99569;fill:#321c0e;fill-opacity:1;stroke:none;stroke-width:6e-08;stroke-dasharray:none;stroke-opacity:1"
       d="m 285.43485,745.85684 c -1.92977,1.29831 -3.1746,3.60724 -2.32094,5.59945 1.4585,3.27066 3.16319,4.50188 5.48585,4.35512 4.53719,-0.33871 5.62957,-2.58198 5.69684,-5.39205 0.60678,-2.38636 0.48727,-4.44323 -2.53193,-5.18468 -1.98508,-0.46757 -3.81474,-1.77537 -6.32982,0.62216 z"
       id="path36"
       sodipodi:nodetypes="cccccc" />
    <path
       style="opacity:0.99569;fill:#321c0e;fill-opacity:1;stroke:none;stroke-width:6e-08;stroke-dasharray:none;stroke-opacity:1"
       d="m 279.59044,777.89032 c -2.05093,-0.83433 -4.55301,-0.58281 -5.70239,1.16375 -1.85709,2.91261 -1.95101,4.92598 -0.6171,6.69009 2.64741,3.41818 5.01705,3.08092 7.30406,1.62612 2.23,-0.79934 3.81565,-1.99809 2.82872,-4.79158 -0.66484,-1.82598 -0.575,-3.9796 -3.81329,-4.68838 z"
       id="path38"
       sodipodi:nodetypes="cccccc" />
    <path
       style="opacity:0.99569;fill:#321c0e;fill-opacity:1;stroke:none;stroke-width:6e-08;stroke-dasharray:none;stroke-opacity:1"
       d="m 299.69093,732.04544 c -1.79705,-1.38262 -4.41992,-1.9225 -6.17792,-0.6969 -2.87121,2.06213 -3.64929,3.85237 -2.89474,5.85519 1.5257,3.89998 4.04333,4.3218 6.85615,3.70859 2.53271,-0.0385 4.5474,-0.63538 4.49386,-3.46184 -0.055,-1.85359 0.76648,-3.77181 -2.27735,-5.40504 z"
       id="path39"
       sodipodi:nodetypes="cccccc" />
    <path
       id="path40"
       style="opacity:0.99569;fill:#321c0e;fill-opacity:1;stroke:none;stroke-width:6e-08;stroke-dasharray:none;stroke-opacity:1"
       d="m 327.0794,768.88867 c -0.32979,-0.003 -0.66156,0.0416 -0.9922,0.13865 -3.48065,1.07685 -4.92636,2.64969 -5.0498,5.01198 -0.1885,4.62094 1.95263,5.99428 4.78852,6.40191 0.82012,0.31525 1.60872,0.53286 2.33619,0.55977 l -0.55673,-12.06899 c -0.17384,-0.0268 -0.34993,-0.0421 -0.52598,-0.0433 z" />
    <path
       id="path41"
       style="opacity:0.99569;fill:#321c0e;fill-opacity:1;stroke:none;stroke-width:6e-08;stroke-dasharray:none;stroke-opacity:1"
       d="M 268.21289 741.70118 C 268.15593 741.70196 268.09845 741.70573 268.04102 741.70899 C 267.95827 742.3689 267.87205 743.0072 267.78906 743.67188 C 267.86774 747.59555 267.96705 751.56127 268.09375 755.51368 C 269.37409 755.6466 270.58355 755.11212 271.66992 753.42188 C 272.91512 751.44279 275.0294 749.94703 273.30664 746.32227 C 272.60493 743.82395 270.62063 741.66821 268.21289 741.70118 z " />
    <path
       style="opacity:0.99569;fill:#321c0e;fill-opacity:1;stroke:none;stroke-width:6e-08;stroke-dasharray:none;stroke-opacity:1"
       d="m 305.15442,743.38073 c -2.20727,0.17368 -4.33186,1.44715 -4.5777,3.39617 -0.35665,3.22489 0.46064,4.94856 2.44302,5.85713 3.89726,1.73377 5.86504,0.44487 7.25868,-1.74353 1.63608,-1.616 2.51723,-3.29225 0.3843,-5.20911 -1.41186,-1.24458 -2.29559,-3.08383 -5.5083,-2.30066 z"
       id="path43"
       sodipodi:nodetypes="cccccc" />
    <path
       style="opacity:0.99569;fill:#e8c3ac;fill-opacity:1;stroke:none;stroke-width:6e-08;stroke-dasharray:none;stroke-opacity:1"
       d="m 296.46663,732.6678 c -1.03047,-0.18102 -1.91997,0.1314 -2.61893,1.11103 -1.20505,2.07691 -0.30274,3.24739 0.77708,3.9445 2.00645,1.02838 2.39932,0.29299 3.12287,-0.0809 0.80029,-0.41568 0.89937,-1.2686 0.91772,-2.17185 -0.42208,-1.79719 -1.1491,-2.51646 -2.19874,-2.80276 z"
       id="path64"
       sodipodi:nodetypes="cccccc" />
    <path
       style="opacity:0.99569;fill:#e8c3ac;fill-opacity:1;stroke:none;stroke-width:6e-08;stroke-dasharray:none;stroke-opacity:1"
       d="m 307.21795,746.35223 c -1.03163,-0.51604 -2.08855,-0.58023 -3.17977,-0.0335 -2.01911,1.25829 -1.47515,2.53339 -0.57429,3.48694 1.76868,1.55465 2.44764,1.09702 3.34992,1.05179 0.99873,-0.0517 1.40697,-0.71013 1.74724,-1.43835 0.1893,-1.61307 -0.32847,-2.45837 -1.3431,-3.06693 z"
       id="path71"
       sodipodi:nodetypes="cccccc" />
    <path
       style="opacity:0.99569;fill:#266565;fill-opacity:1;stroke:none;stroke-width:6e-08;stroke-dasharray:none;stroke-opacity:1"
       d="m 347.80946,581.75032 c 5.48933,11.52852 59.05924,102.33222 52.91282,130.85684 -14.92324,19.89551 -71.9379,42.84713 -105.51526,33.57908 l 5.71044,-17.85639 c 20.46147,4.14735 73.74354,-15.45171 71.77744,-25.29301 -2.27813,-39.32834 -12.18749,-42.39481 -31.2618,-91.4354 -5.88693,-16.70024 -10.72154,-31.04064 -17.33206,-52.5756 8.88366,0.21641 18.31261,11.64399 23.70842,22.72448 z"
       id="path25"
       sodipodi:nodetypes="cccccccc" />
    <path
       style="opacity:0.99569;fill:#321c0e;fill-opacity:1;stroke:none;stroke-width:6e-08;stroke-dasharray:none;stroke-opacity:1"
       d="m 301.37486,780.02331 c -0.68913,-2.0151 -2.52111,-3.70316 -4.63629,-3.48882 -3.48836,0.40133 -5.12196,1.55402 -5.62757,3.60588 -0.93862,4.02191 0.87373,5.5605 3.50474,6.36012 2.08188,1.15547 4.05449,1.59451 5.59073,-0.82675 0.99124,-1.59722 2.73172,-2.83803 1.16839,-5.65043 z"
       id="path44"
       sodipodi:nodetypes="cccccc" />
    <path
       style="opacity:0.99569;fill:#321c0e;fill-opacity:1;stroke:none;stroke-width:6e-08;stroke-dasharray:none;stroke-opacity:1"
       d="m 306.34119,710.36002 c -0.75257,-2.04663 -2.75317,-3.76112 -5.06305,-3.54343 -3.80944,0.40761 -5.59341,1.57835 -6.14555,3.66233 -1.02502,4.08488 0.95414,5.64756 3.82733,6.4597 2.27351,1.17356 4.42769,1.61947 6.10534,-0.8397 1.08247,-1.62222 2.98315,-2.88246 1.27593,-5.7389 z"
       id="path45"
       sodipodi:nodetypes="cccccc" />
    <path
       style="opacity:0.99569;fill:#321c0e;fill-opacity:1;stroke:none;stroke-width:6e-08;stroke-dasharray:none;stroke-opacity:1"
       d="m 295.72838,760.40236 c -1.50152,0.81421 -2.51369,2.10598 -2.47808,4.42032 -0.0392,2.0122 0.70096,3.28501 1.98246,4.04413 2.17921,1.14914 4.29902,0.71565 5.69958,-0.84644 1.05017,-1.36002 1.89401,-2.82444 0.99123,-5.17272 -0.64098,-1.37516 -1.74889,-1.87249 -3.2215,-2.35124 -1.24907,-0.47171 -2.16218,-0.36963 -2.97369,-0.094 z"
       id="path46"
       sodipodi:nodetypes="ccccccc" />
    <path
       style="opacity:0.99569;fill:#321c0e;fill-opacity:1;stroke:none;stroke-width:6e-08;stroke-dasharray:none;stroke-opacity:1"
       d="m 276.8464,732.82983 c -2.05851,0.20919 -3.71446,1.0931 -4.50843,3.42168 -0.77274,1.99634 -0.36267,3.56731 0.86909,4.84274 2.14581,2.02713 4.79338,2.44777 7.00336,1.45004 1.72523,-0.93683 3.24572,-2.06119 3.03293,-4.77312 -0.25658,-1.63336 -1.3789,-2.57707 -2.93649,-3.64914 -1.29744,-0.97495 -2.40732,-1.2408 -3.46046,-1.2922 z"
       id="path47"
       sodipodi:nodetypes="ccccccc" />
    <path
       style="opacity:0.99569;fill:#321c0e;fill-opacity:1;stroke:none;stroke-width:6e-08;stroke-dasharray:none;stroke-opacity:1"
       d="m 289.19995,716.91282 c -2.08959,0.2022 -3.77055,1.05659 -4.5765,3.30739 -0.78441,1.92966 -0.36815,3.44816 0.8822,4.68099 2.17822,1.95941 4.86577,2.366 7.10912,1.4016 1.75128,-0.90554 3.29474,-1.99234 3.07873,-4.61369 -0.26046,-1.57881 -1.39972,-2.49099 -2.98084,-3.52725 -1.31703,-0.94239 -2.44366,-1.19935 -3.51271,-1.24904 z"
       id="path48"
       sodipodi:nodetypes="ccccccc" />
    <path
       style="opacity:0.99569;fill:#e8c3ac;fill-opacity:1;stroke:none;stroke-width:6e-08;stroke-dasharray:none;stroke-opacity:1"
       d="m 288.8877,719.17065 c -1.02507,0.37964 -1.70616,1.09294 -1.92228,2.25732 -0.20396,2.32662 1.13346,2.82662 2.42815,2.84618 2.28969,-0.18326 2.33086,-0.98972 2.83284,-1.66845 0.55431,-0.75244 0.27457,-1.50488 -0.10117,-2.25732 -1.16879,-1.26187 -2.14911,-1.48062 -3.23754,-1.17773 z"
       id="path37"
       sodipodi:nodetypes="cccccc" />
    <path
       style="opacity:0.99569;fill:#321c0e;fill-opacity:1;stroke:none;stroke-width:6e-08;stroke-dasharray:none;stroke-opacity:1"
       d="m 277.05415,758.84409 c -1.96526,0.20569 -3.54619,1.07484 -4.30419,3.36454 -0.73774,1.96299 -0.34624,3.50773 0.82971,4.76186 2.04861,1.99327 4.57625,2.40688 6.68611,1.42582 1.64708,-0.92118 3.09869,-2.02676 2.89554,-4.69341 -0.24496,-1.60608 -1.31643,-2.53403 -2.80347,-3.58819 -1.23867,-0.95867 -2.29826,-1.22008 -3.3037,-1.27062 z"
       id="path49"
       sodipodi:nodetypes="ccccccc" />
    <path
       style="opacity:0.99569;fill:#321c0e;fill-opacity:1;stroke:none;stroke-width:6e-08;stroke-dasharray:none;stroke-opacity:1"
       d="m 315.30777,763.87688 c -1.96463,-0.73418 -3.90271,-0.72203 -5.7839,0.88811 -1.69596,1.33967 -2.11054,2.84418 -1.63494,4.46314 0.92587,2.65633 3.10803,4.18149 5.6036,4.3185 2.02715,-0.026 3.96299,-0.30064 5.12605,-2.67888 0.58446,-1.48919 0.0419,-2.78035 -0.82971,-4.37214 -0.68513,-1.39495 -1.55516,-2.10968 -2.4811,-2.61873 z"
       id="path50"
       sodipodi:nodetypes="ccccccc" />
    <path
       style="opacity:0.99569;fill:#321c0e;fill-opacity:1;stroke:none;stroke-width:6e-08;stroke-dasharray:none;stroke-opacity:1"
       d="m 319.0547,791.64541 c 1.56986,-1.42435 2.34977,-3.13775 1.43827,-5.47002 -0.70492,-2.05576 -2.10594,-3.05106 -3.99049,-3.30964 -3.1516,-0.29597 -5.63612,0.98897 -6.79973,3.13131 -0.80184,1.79772 -1.30685,3.61904 0.70016,5.63988 1.31555,1.13863 2.88527,1.20099 4.90342,1.09908 1.73638,-0.0199 2.8383,-0.48755 3.74837,-1.09061 z"
       id="path51"
       sodipodi:nodetypes="ccccccc" />
    <path
       style="opacity:0.99569;fill:#321c0e;fill-opacity:1;stroke:none;stroke-width:6e-08;stroke-dasharray:none;stroke-opacity:1"
       d="m 316.44483,748.97338 c -2.09648,0.99285 -3.50972,2.56805 -3.45999,5.39016 -0.0547,2.45368 0.97871,4.00575 2.76799,4.93143 3.0427,1.40126 6.00247,0.87266 7.95799,-1.03216 1.46629,-1.65841 2.6445,-3.44413 1.384,-6.30763 -0.89496,-1.67688 -2.44187,-2.28332 -4.498,-2.86711 -1.744,-0.5752 -3.01892,-0.45073 -4.15199,-0.11469 z"
       id="path52"
       sodipodi:nodetypes="ccccccc" />
    <path
       style="opacity:0.99569;fill:#321c0e;fill-opacity:1;stroke:none;stroke-width:6e-08;stroke-dasharray:none;stroke-opacity:1"
       d="m 310.93836,716.9941 c -1.50152,0.81421 -2.51369,2.10598 -2.47808,4.42032 -0.0392,2.0122 0.70096,3.28501 1.98246,4.04413 2.17921,1.14914 4.29902,0.71565 5.69958,-0.84644 1.05017,-1.36002 1.89401,-2.82444 0.99123,-5.17272 -0.64098,-1.37516 -1.74889,-1.87249 -3.2215,-2.35124 -1.24907,-0.47171 -2.16218,-0.36963 -2.97369,-0.094 z"
       id="path53"
       sodipodi:nodetypes="ccccccc" />
    <path
       style="opacity:0.99569;fill:#d48b5a;fill-opacity:1;stroke:none;stroke-width:6e-08;stroke-dasharray:none;stroke-opacity:1"
       d="m 256.54171,725.37983 c -6.13366,2.10048 -9.23821,4.46452 -11.27931,9.44111 -1.69482,4.33544 -1.97729,11.1125 0.68359,15.915 1.66702,4.17528 12.66713,5.19802 11.62111,-0.80923 -1.35298,-4.22882 -3.48129,-8.30468 -1.36719,-13.21755 2.09015,-5.63032 6.49282,-6.99337 9.39084,-10.07339 -2.60327,-1.4919 -4.37091,-1.91053 -9.04904,-1.25594 z"
       id="path54"
       sodipodi:nodetypes="ccccccc" />
    <path
       style="opacity:0.99569;fill:#d48b5a;fill-opacity:1;stroke:none;stroke-width:6e-08;stroke-dasharray:none;stroke-opacity:1"
       d="m 332.41062,724.17139 c 6.13366,2.10048 9.23821,4.46452 11.27931,9.44111 1.69482,4.33544 1.97729,11.1125 -0.68359,15.915 -1.66702,4.17528 -12.66713,5.19802 -11.62111,-0.80923 1.35298,-4.22882 3.48129,-8.30468 1.36719,-13.21755 -2.09015,-5.63032 -6.49282,-6.99337 -9.39084,-10.07339 2.60327,-1.4919 4.37091,-1.91053 9.04904,-1.25594 z"
       id="path55"
       sodipodi:nodetypes="ccccccc" />
    <rect
       style="opacity:0.99569;fill:#150c06;fill-opacity:1;stroke:none;stroke-width:6.00423e-08;stroke-dasharray:none;stroke-opacity:1"
       id="rect55"
       width="15.928699"
       height="1.7053614"
       x="280.91617"
       y="636.05286"
       transform="matrix(0.99654728,0.08302727,-0.03005934,0.99954812,0,0)" />
    <rect
       style="opacity:0.99569;fill:#150c06;fill-opacity:1;stroke:none;stroke-width:6.00851e-08;stroke-dasharray:none;stroke-opacity:1"
       id="rect56"
       width="14.426501"
       height="1.5741225"
       x="279.44901"
       y="698.10535"
       transform="matrix(0.99146013,-0.13041015,0.0554939,0.99845903,0,0)" />
    <path
       style="opacity:0.99569;fill:#321c0e;fill-opacity:1;stroke:none;stroke-width:6e-08;stroke-dasharray:none;stroke-opacity:1"
       d="m 250.06322,729.59979 c -0.84791,0.30499 -1.4113,0.87807 -1.59007,1.81354 -0.16871,1.86921 0.93758,2.27092 2.00851,2.28663 1.89397,-0.14723 1.92803,-0.79514 2.34325,-1.34044 0.45851,-0.60451 0.22712,-1.20903 -0.0837,-1.81354 -0.9668,-1.0138 -1.77769,-1.18954 -2.67801,-0.94619 z"
       id="path56"
       sodipodi:nodetypes="cccccc" />
    <path
       style="opacity:0.99569;fill:#321c0e;fill-opacity:1;stroke:none;stroke-width:6e-08;stroke-dasharray:none;stroke-opacity:1"
       d="m 249.08468,736.19502 c -0.84765,-0.3057 -1.64707,-0.22347 -2.38127,0.38318 -1.32182,1.33236 -0.72574,2.34721 0.0892,3.04217 1.55289,1.09424 1.99225,0.61684 2.65981,0.46153 0.73867,-0.17332 0.94588,-0.78655 1.09189,-1.45042 -0.0983,-1.39743 -0.61094,-2.04986 -1.45966,-2.43647 z"
       id="path57"
       sodipodi:nodetypes="cccccc" />
    <path
       id="path58"
       style="opacity:0.99569;fill:#321c0e;fill-opacity:1;stroke:none;stroke-width:6e-08;stroke-dasharray:none;stroke-opacity:1"
       d="M 254.73828 736.32422 C 254.2326 736.327 253.74794 736.50171 253.28906 736.88086 C 251.96725 738.21322 252.56397 739.22692 253.37891 739.92188 C 254.35699 740.61108 254.89242 740.67834 255.32227 740.59375 C 255.3652 739.37192 255.60952 738.11066 256.16797 736.78711 C 256.01775 736.67516 255.85177 736.58089 255.66992 736.49805 C 255.35206 736.38341 255.04169 736.32256 254.73828 736.32422 z " />
    <path
       style="opacity:0.99569;fill:#321c0e;fill-opacity:1;stroke:none;stroke-width:6e-08;stroke-dasharray:none;stroke-opacity:1"
       d="m 247.51372,743.08311 c -0.84765,-0.3057 -1.64707,-0.22347 -2.38127,0.38318 -1.32182,1.33236 -0.72574,2.34721 0.0892,3.04217 1.55289,1.09424 1.99225,0.61684 2.65981,0.46153 0.73867,-0.17332 0.94588,-0.78655 1.09189,-1.45042 -0.0983,-1.39743 -0.61094,-2.04986 -1.45966,-2.43647 z"
       id="path59"
       sodipodi:nodetypes="cccccc" />
    <path
       style="opacity:0.99569;fill:#321c0e;fill-opacity:1;stroke:none;stroke-width:6e-08;stroke-dasharray:none;stroke-opacity:1"
       d="m 253.91843,743.86859 c -0.84765,-0.3057 -1.64707,-0.22347 -2.38127,0.38318 -1.32182,1.33236 -0.72574,2.34721 0.0892,3.04217 1.55289,1.09424 1.99225,0.61684 2.65981,0.46153 0.73867,-0.17332 0.94588,-0.78655 1.09189,-1.45042 -0.0983,-1.39743 -0.61094,-2.04986 -1.45966,-2.43647 z"
       id="path60"
       sodipodi:nodetypes="cccccc" />
    <path
       style="opacity:0.99569;fill:#321c0e;fill-opacity:1;stroke:none;stroke-width:6e-08;stroke-dasharray:none;stroke-opacity:1"
       d="m 258.87164,729.59729 c 0.43744,-0.78779 0.48422,-1.59007 0.003,-2.4119 -1.10361,-1.51804 -2.20078,-1.09208 -3.01722,-0.39888 -1.32869,1.35772 -0.92777,1.86783 -0.88132,2.55164 0.0529,0.75689 0.62502,1.05958 1.25696,1.30997 1.39514,0.12664 2.12122,-0.27496 2.63869,-1.05086 z"
       id="path61"
       sodipodi:nodetypes="cccccc" />
    <path
       style="opacity:0.99569;fill:#321c0e;fill-opacity:1;stroke:none;stroke-width:6e-08;stroke-dasharray:none;stroke-opacity:1"
       d="m 329.98948,725.07741 c -0.84765,-0.3057 -1.64707,-0.22347 -2.38127,0.38318 -1.32182,1.33236 -0.72574,2.34721 0.0892,3.04217 1.55289,1.09424 1.99225,0.61684 2.65981,0.46153 0.73867,-0.17332 0.94588,-0.78655 1.09189,-1.45042 -0.0983,-1.39743 -0.61094,-2.04986 -1.45966,-2.43647 z"
       id="path62"
       sodipodi:nodetypes="cccccc" />
    <path
       style="opacity:0.99569;fill:#e8c3ac;fill-opacity:1;stroke:none;stroke-width:6e-08;stroke-dasharray:none;stroke-opacity:1"
       d="m 277.6305,735.39839 c -0.9714,0.0447 -1.73621,0.48387 -2.22175,1.45645 -0.7761,2.0084 0.23362,2.83423 1.33132,3.2211 1.99772,0.4907 2.24158,-0.21389 2.84487,-0.67351 0.66695,-0.51016 0.62349,-1.25835 0.49825,-2.03394 -0.66883,-1.45443 -1.44719,-1.92851 -2.45269,-1.9701 z"
       id="path63"
       sodipodi:nodetypes="cccccc" />
    <path
       style="opacity:0.99569;fill:#e8c3ac;fill-opacity:1;stroke:none;stroke-width:6e-08;stroke-dasharray:none;stroke-opacity:1"
       d="m 290.00264,748.16749 c -0.96586,-0.45401 -1.89423,-0.38619 -2.77196,0.38727 -1.5916,1.71405 -0.95021,3.10429 -0.0405,4.07781 1.74417,1.54706 2.27483,0.93108 3.05418,0.7584 0.86243,-0.19306 1.13103,-1.00315 1.33127,-1.88427 -0.0477,-1.87618 -0.6097,-2.77677 -1.57294,-3.33921 z"
       id="path65"
       sodipodi:nodetypes="cccccc" />
    <path
       style="opacity:0.99569;fill:#e8c3ac;fill-opacity:1;stroke:none;stroke-width:6e-08;stroke-dasharray:none;stroke-opacity:1"
       d="m 303.0507,710.06515 c -0.92719,-0.62134 -1.9127,-0.76122 -2.97714,-0.25007 -1.98845,1.20944 -1.57641,2.60958 -0.80524,3.68995 1.53829,1.78161 2.20959,1.33801 3.05855,1.35046 0.93984,0.012 1.37284,-0.66453 1.74749,-1.4203 0.30098,-1.71211 -0.11946,-2.65091 -1.02361,-3.37003 z"
       id="path66"
       sodipodi:nodetypes="cccccc" />
    <path
       style="opacity:0.99569;fill:#e8c3ac;fill-opacity:1;stroke:none;stroke-width:6e-08;stroke-dasharray:none;stroke-opacity:1"
       d="m 314.88392,719.42038 c -0.79385,-0.63559 -1.69367,-0.85748 -2.73683,-0.51992 -1.97607,0.85245 -1.74424,2.11461 -1.14462,3.13447 1.2363,1.70888 1.90722,1.39033 2.69399,1.48729 0.87118,0.10579 1.34595,-0.43997 1.77508,-1.06068 0.46366,-1.46176 0.17438,-2.32265 -0.58757,-3.04114 z"
       id="path67"
       sodipodi:nodetypes="cccccc" />
    <g
       id="g97"
       transform="matrix(0.97846362,0.13467438,-0.13456858,0.97979973,101.4566,-23.551109)"
       style="stroke-width:1.01179">
      <path
         id="path42"
         style="opacity:0.99569;fill:#321c0e;fill-opacity:1;stroke:none;stroke-width:6.07077e-08;stroke-dasharray:none;stroke-opacity:1"
         d="m 276.6951,711.32721 c -1.82576,3.25723 -3.05334,6.11442 -4.23524,9.56506 -0.0394,0.0803 -0.0849,0.53863 -0.12321,0.62063 1.05235,0.51371 2.39217,0.82573 3.7336,0.69087 2.61106,0.27066 4.77953,-0.1103 5.17912,-3.0962 0.24155,-1.96061 1.39475,-3.88165 -1.4731,-5.97721 -0.83779,-0.86477 -1.93796,-1.5177 -3.08117,-1.80312 z"
         sodipodi:nodetypes="cccccccc" />
      <path
         style="opacity:0.99569;fill:#e8c3ac;fill-opacity:1;stroke:none;stroke-width:6.07077e-08;stroke-dasharray:none;stroke-opacity:1"
         d="m 276.66726,714.99314 c -0.82577,0.35329 -1.37444,1.0171 -1.54854,2.10069 -0.1643,2.16518 0.91309,2.63049 1.95605,2.64869 1.84451,-0.17054 1.87768,-0.92104 2.28206,-1.55268 0.44653,-0.70023 0.22119,-1.40046 -0.0815,-2.10069 -0.94155,-1.17432 -1.73126,-1.37789 -2.60807,-1.09601 z"
         id="path68"
         sodipodi:nodetypes="cccccc" />
    </g>
    <path
       style="opacity:0.99569;fill:#d1b5a2;fill-opacity:0.988235;stroke:none;stroke-width:6e-08;stroke-dasharray:none;stroke-opacity:1"
       d="m 301.68992,727.7987 c -1.74924,-0.10423 -3.54801,-0.0189 -4.99633,-1.27544 0.044,-4.84716 -0.62749,-7.56069 -0.0203,-11.86856 -0.50876,-1.77358 -3.43819,-2.1571 -3.97687,-0.0387 -0.29389,4.63774 -0.11824,6.70733 0.52821,12.5096 l -0.66618,0.95327 c -7.59282,-3.25273 -12.90367,-8.34655 -19.18124,-11.75915 -0.97191,-0.45767 -2.55229,0.83673 -1.33236,2.55087 6.10665,5.19423 15.27519,10.24085 17.02452,11.68511 l -1.27521,1.36884 c -2.55791,-0.60586 -13.12384,-7.0643 -19.68576,-10.59645 -2.53569,-1.24996 -3.68919,1.43984 -1.90099,2.77634 7.55355,4.24139 11.80981,7.69323 19.43005,10.95399 l -0.8613,1.64902 c -8.07278,-1.26717 -12.90694,-4.45858 -21.72471,-6.9956 -1.11912,0.27373 -1.52087,2.35121 0,3.1886 7.55003,3.37642 17.3376,6.30282 20.41257,6.97625 -0.92442,-0.90708 0.30785,1.19441 -1.03968,1.93249 -2.85637,-0.005 -7.71475,-1.14158 -13.04418,0.97594 -0.9675,0.54495 -1.0968,1.93503 0.3533,2.0806 8.30197,-0.29936 19.248,1.47557 27.27469,1.74278 z"
       id="path22"
       sodipodi:nodetypes="cccccccccccccccccccccc" />
    <path
       style="opacity:0.99569;fill:#e8c3ac;fill-opacity:1;stroke:none;stroke-width:6e-08;stroke-dasharray:none;stroke-opacity:1"
       d="m 278.93073,762.0619 c -1.08407,-0.51604 -2.19472,-0.58023 -3.3414,-0.0335 -2.12173,1.25829 -1.55013,2.53339 -0.60348,3.48694 1.85858,1.55465 2.57205,1.09702 3.5202,1.05179 1.04949,-0.0517 1.47848,-0.71013 1.83604,-1.43835 0.19893,-1.61307 -0.34516,-2.45837 -1.41136,-3.06693 z"
       id="path69"
       sodipodi:nodetypes="cccccc" />
    <path
       id="path70"
       style="opacity:0.99569;fill:#e8c3ac;fill-opacity:1;stroke:none;stroke-width:6e-08;stroke-dasharray:none;stroke-opacity:1"
       d="M 269.69922 746.4668 C 269.51166 746.46159 269.31546 746.47644 269.11133 746.50977 C 268.56044 746.65665 268.15551 746.85844 267.86328 747.09766 C 267.88992 748.2489 267.91857 749.40235 267.94922 750.55665 C 268.62353 751.5276 269.20473 751.42611 269.81055 751.61329 C 270.6503 751.87103 271.21577 751.37886 271.75 750.80079 C 272.46899 749.34728 272.33905 748.39695 271.7168 747.51563 C 271.17357 746.86577 270.51199 746.4894 269.69922 746.4668 z " />
    <path
       style="opacity:0.99569;fill:#e8c3ac;fill-opacity:1;stroke:none;stroke-width:6e-08;stroke-dasharray:none;stroke-opacity:1"
       d="m 297.45472,762.26985 c -1.03022,0.13337 -1.79676,0.57439 -2.20683,1.43143 -0.60538,1.74735 0.56173,2.33425 1.77422,2.54731 2.18297,0.21031 2.36508,-0.39987 2.95724,-0.84191 0.65441,-0.49037 0.52552,-1.10838 0.30647,-1.74108 -0.87323,-1.14351 -1.755,-1.46075 -2.83106,-1.39576 z"
       id="path72"
       sodipodi:nodetypes="cccccc" />
    <path
       style="opacity:0.99569;fill:#e8c3ac;fill-opacity:1;stroke:none;stroke-width:6e-08;stroke-dasharray:none;stroke-opacity:1"
       d="m 296.48797,779.37213 c -1.03022,0.18137 -1.79676,0.78109 -2.20683,1.94655 -0.60538,2.37617 0.56173,3.17428 1.77422,3.46402 2.18297,0.28599 2.36508,-0.54378 2.95724,-1.14489 0.65441,-0.66684 0.52552,-1.50726 0.30647,-2.36764 -0.87323,-1.55502 -1.755,-1.98643 -2.83106,-1.89806 z"
       id="path73"
       sodipodi:nodetypes="cccccc" />
    <path
       style="opacity:0.99569;fill:#e8c3ac;fill-opacity:1;stroke:none;stroke-width:6e-08;stroke-dasharray:none;stroke-opacity:1"
       d="m 277.4551,786.21876 c -1.03022,-0.19537 -1.79676,-0.84138 -2.20683,-2.0968 -0.60538,-2.55957 0.56173,-3.41929 1.77422,-3.73138 2.18297,-0.30808 2.36508,0.58574 2.95724,1.23325 0.65441,0.71831 0.52552,1.62359 0.30647,2.55039 -0.87323,1.67505 -1.755,2.13975 -2.83106,2.04456 z"
       id="path74"
       sodipodi:nodetypes="cccccc" />
    <path
       style="opacity:0.99569;fill:#e8c3ac;fill-opacity:1;stroke:none;stroke-width:6e-08;stroke-dasharray:none;stroke-opacity:1"
       d="m 318.84008,756.91639 c -1.23846,-0.15937 -2.15994,-0.68635 -2.65289,-1.71045 -0.72775,-2.08796 0.67527,-2.78927 2.13284,-3.04386 2.62421,-0.25131 2.84313,0.47782 3.55498,1.00602 0.78669,0.58596 0.63174,1.32444 0.36842,2.08047 -1.04974,1.36641 -2.10974,1.74549 -3.4033,1.66784 z"
       id="path75"
       sodipodi:nodetypes="cccccc" />
    <path
       style="opacity:0.99569;fill:#e8c3ac;fill-opacity:1;stroke:none;stroke-width:6e-08;stroke-dasharray:none;stroke-opacity:1"
       d="m 313.28523,770.81219 c -1.03022,-0.17937 -1.79676,-0.77248 -2.20683,-1.92509 -0.60538,-2.34996 0.56173,-3.13928 1.77422,-3.42581 2.18297,-0.28285 2.36508,0.53777 2.95724,1.13226 0.65441,0.65948 0.52552,1.49063 0.30647,2.34153 -0.87323,1.53788 -1.755,1.96453 -2.83106,1.87713 z"
       id="path76"
       sodipodi:nodetypes="cccccc" />
    <path
       id="path77"
       style="opacity:0.99569;fill:#e8c3ac;fill-opacity:1;stroke:none;stroke-width:6e-08;stroke-dasharray:none;stroke-opacity:1"
       d="M 325.95703 771.8125 C 325.25701 771.80505 324.56119 772.19129 324.00781 773.35743 C 323.63534 774.3958 323.85822 775.29893 324.52344 776.10157 C 325.27716 776.87347 326.18821 777.17374 327.74805 776.73047 C 327.81926 776.68548 327.89033 776.64026 327.95899 776.59375 L 327.77344 772.57032 C 327.64804 772.46961 327.50947 772.36501 327.35352 772.25586 C 326.91631 772.00652 326.43599 771.8176 325.95703 771.8125 z " />
    <path
       style="opacity:0.99569;fill:#e8c3ac;fill-opacity:1;stroke:none;stroke-width:6e-08;stroke-dasharray:none;stroke-opacity:1"
       d="m 316.14261,789.49868 c 0.88716,-0.38886 1.43605,-1.01616 1.52762,-1.96591 -0.0217,-1.87884 -1.26682,-2.16806 -2.43132,-2.07629 -2.04019,0.33656 -2.00616,0.98536 -2.39722,1.57017 -0.43156,0.64812 -0.11407,1.22708 0.28963,1.79807 1.16078,0.91291 2.06045,1.00666 3.01126,0.67398 z"
       id="path78"
       sodipodi:nodetypes="cccccc" />
    <path
       id="path81"
       style="opacity:0.99569;fill:#321c0e;fill-opacity:1;stroke:none;stroke-width:6e-08;stroke-dasharray:none;stroke-opacity:1"
       d="M 337.69531 726.50586 C 337.67663 726.52056 337.65727 726.53347 337.63867 726.54883 C 336.31686 727.88119 336.91163 728.89489 337.72656 729.58985 C 339.27945 730.68409 339.71916 730.20805 340.38672 730.05274 C 340.79939 729.95591 341.04607 729.71957 341.20899 729.41602 C 340.24277 728.28023 339.09293 727.33592 337.69531 726.50586 z " />
    <path
       style="opacity:0.99569;fill:#321c0e;fill-opacity:1;stroke:none;stroke-width:6e-08;stroke-dasharray:none;stroke-opacity:1"
       d="m 336.27335,730.8779 c -0.84765,-0.3057 -1.64707,-0.22347 -2.38127,0.38318 -1.32182,1.33236 -0.72574,2.34721 0.0892,3.04217 1.55289,1.09424 1.99225,0.61684 2.65981,0.46153 0.73867,-0.17332 0.94588,-0.78655 1.09189,-1.45042 -0.0983,-1.39743 -0.61094,-2.04986 -1.45966,-2.43647 z"
       id="path82"
       sodipodi:nodetypes="cccccc" />
    <path
       id="path83"
       style="opacity:0.99569;fill:#321c0e;fill-opacity:1;stroke:none;stroke-width:6e-08;stroke-dasharray:none;stroke-opacity:1"
       d="M 342.47071 733.60547 C 341.96503 733.60825 341.48036 733.78296 341.02149 734.16211 C 339.69967 735.49447 340.29639 736.50817 341.11133 737.20313 C 342.66422 738.29737 343.10393 737.81938 343.77149 737.66407 C 344.20712 737.56185 344.45674 737.3069 344.61914 736.97852 C 344.42608 735.92145 344.16074 734.9266 343.83594 734.02149 C 343.70312 733.92947 343.55837 733.84842 343.40235 733.77735 C 343.08448 733.66271 342.77411 733.60381 342.47071 733.60547 z " />
    <path
       style="opacity:0.99569;fill:#321c0e;fill-opacity:1;stroke:none;stroke-width:6e-08;stroke-dasharray:none;stroke-opacity:1"
       d="m 337.48178,738.73274 c -0.84765,-0.3057 -1.64707,-0.22347 -2.38127,0.38318 -1.32182,1.33236 -0.72574,2.34721 0.0892,3.04217 1.55289,1.09424 1.99225,0.61684 2.65981,0.46153 0.73867,-0.17332 0.94588,-0.78655 1.09189,-1.45042 -0.0983,-1.39743 -0.61094,-2.04986 -1.45966,-2.43647 z"
       id="path84"
       sodipodi:nodetypes="cccccc" />
    <path
       style="opacity:0.99569;fill:#321c0e;fill-opacity:1;stroke:none;stroke-width:6e-08;stroke-dasharray:none;stroke-opacity:1"
       d="m 343.18216,741.68974 c -0.84765,-0.3057 -1.64707,-0.22347 -2.38127,0.38318 -1.32182,1.33236 -0.72574,2.34721 0.0892,3.04217 1.55289,1.09424 1.99225,0.61684 2.65981,0.46153 0.73867,-0.17332 0.94588,-0.78655 1.09189,-1.45042 -0.0983,-1.39743 -0.61094,-2.04986 -1.45966,-2.43647 z"
       id="path85"
       sodipodi:nodetypes="cccccc" />
    <path
       style="opacity:0.99569;fill:#321c0e;fill-opacity:1;stroke:none;stroke-width:6e-08;stroke-dasharray:none;stroke-opacity:1"
       d="m 336.51503,744.53323 c -0.84765,-0.3057 -1.64707,-0.22347 -2.38127,0.38318 -1.32182,1.33236 -0.72574,2.34721 0.0892,3.04217 1.55289,1.09424 1.99225,0.61684 2.65981,0.46153 0.73867,-0.17332 0.94588,-0.78655 1.09189,-1.45042 -0.0983,-1.39743 -0.61094,-2.04986 -1.45966,-2.43647 z"
       id="path86"
       sodipodi:nodetypes="cccccc" />
    <path
       style="opacity:0.99569;fill:#e8c3ac;fill-opacity:1;stroke:none;stroke-width:6.00002e-08;stroke-dasharray:none;stroke-opacity:1"
       d="m 277.4869,679.56865 c -0.51568,0.0235 -0.92169,0.25453 -1.17945,0.76613 -0.412,1.05648 0.12403,1.49089 0.70676,1.69439 1.06051,0.25812 1.18997,-0.11251 1.51024,-0.35428 0.35406,-0.26836 0.33099,-0.66193 0.2645,-1.06991 -0.35506,-0.76507 -0.76826,-1.01445 -1.30205,-1.03633 z"
       id="path87"
       sodipodi:nodetypes="cccccc" />
    <path
       style="opacity:0.99569;fill:#e8c3ac;fill-opacity:1;stroke:none;stroke-width:6.00002e-08;stroke-dasharray:none;stroke-opacity:1"
       d="m 281.17263,677.63515 c -0.51568,0.0235 -0.92169,0.25453 -1.17945,0.76613 -0.412,1.05648 0.12403,1.49089 0.70676,1.69439 1.06051,0.25812 1.18997,-0.11251 1.51024,-0.35428 0.35406,-0.26836 0.33099,-0.66193 0.2645,-1.06991 -0.35506,-0.76507 -0.76826,-1.01445 -1.30205,-1.03633 z"
       id="path88"
       sodipodi:nodetypes="cccccc" />
    <path
       style="opacity:0.99569;fill:#e8c3ac;fill-opacity:1;stroke:none;stroke-width:6.00002e-08;stroke-dasharray:none;stroke-opacity:1"
       d="m 274.22412,676.24545 c -0.51568,0.0235 -0.92169,0.25453 -1.17945,0.76613 -0.412,1.05648 0.12403,1.49089 0.70676,1.69439 1.06051,0.25812 1.18997,-0.11251 1.51024,-0.35428 0.35406,-0.26836 0.33099,-0.66193 0.2645,-1.06991 -0.35506,-0.76507 -0.76826,-1.01445 -1.30205,-1.03633 z"
       id="path89"
       sodipodi:nodetypes="cccccc" />
    <path
       style="opacity:0.99569;fill:#e8c3ac;fill-opacity:1;stroke:none;stroke-width:6.00002e-08;stroke-dasharray:none;stroke-opacity:1"
       d="m 304.19333,677.93726 c -0.51568,0.0235 -0.92169,0.25453 -1.17945,0.76613 -0.412,1.05648 0.12403,1.49089 0.70676,1.69439 1.06051,0.25812 1.18997,-0.11251 1.51024,-0.35428 0.35406,-0.26836 0.33099,-0.66193 0.2645,-1.06991 -0.35506,-0.76507 -0.76826,-1.01445 -1.30205,-1.03633 z"
       id="path90"
       sodipodi:nodetypes="cccccc" />
    <path
       style="opacity:0.99569;fill:#e8c3ac;fill-opacity:1;stroke:none;stroke-width:6.00002e-08;stroke-dasharray:none;stroke-opacity:1"
       d="m 310.4772,679.62907 c -0.51568,0.0235 -0.92169,0.25453 -1.17945,0.76613 -0.412,1.05648 0.12403,1.49089 0.70676,1.69439 1.06051,0.25812 1.18997,-0.11251 1.51024,-0.35428 0.35406,-0.26836 0.33099,-0.66193 0.2645,-1.06991 -0.35506,-0.76507 -0.76826,-1.01445 -1.30205,-1.03633 z"
       id="path91"
       sodipodi:nodetypes="cccccc" />
    <path
       style="opacity:0.99569;fill:#e8c3ac;fill-opacity:1;stroke:none;stroke-width:6.00002e-08;stroke-dasharray:none;stroke-opacity:1"
       d="m 308.72497,683.91902 c -0.51568,0.0235 -0.92169,0.25453 -1.17945,0.76613 -0.412,1.05648 0.12403,1.49089 0.70676,1.69439 1.06051,0.25812 1.18997,-0.11251 1.51024,-0.35428 0.35406,-0.26836 0.33099,-0.66193 0.2645,-1.06991 -0.35506,-0.76507 -0.76826,-1.01445 -1.30205,-1.03633 z"
       id="path92"
       sodipodi:nodetypes="cccccc" />
    <path
       style="opacity:0.99569;fill:#e8c3ac;fill-opacity:1;stroke:none;stroke-width:6.00002e-08;stroke-dasharray:none;stroke-opacity:1"
       d="m 283.34781,683.01269 c -0.51568,0.0235 -0.92169,0.25453 -1.17945,0.76613 -0.412,1.05648 0.12403,1.49089 0.70676,1.69439 1.06051,0.25812 1.18997,-0.11251 1.51024,-0.35428 0.35406,-0.26836 0.33099,-0.66193 0.2645,-1.06991 -0.35506,-0.76507 -0.76826,-1.01445 -1.30205,-1.03633 z"
       id="path93"
       sodipodi:nodetypes="cccccc" />
    <path
       style="opacity:0.99569;fill:#e8c3ac;fill-opacity:1;stroke:none;stroke-width:6.00002e-08;stroke-dasharray:none;stroke-opacity:1"
       d="m 313.86082,676.1246 c -0.51568,0.0235 -0.92169,0.25453 -1.17945,0.76613 -0.412,1.05648 0.12403,1.49089 0.70676,1.69439 1.06051,0.25812 1.18997,-0.11251 1.51024,-0.35428 0.35406,-0.26836 0.33099,-0.66193 0.2645,-1.06991 -0.35506,-0.76507 -0.76826,-1.01445 -1.30205,-1.03633 z"
       id="path94"
       sodipodi:nodetypes="cccccc" />
    <path
       style="opacity:0.99569;fill:#e8c3ac;fill-opacity:1;stroke:none;stroke-width:6.00002e-08;stroke-dasharray:none;stroke-opacity:1"
       d="m 275.73466,684.10028 c -0.51568,0.0235 -0.92169,0.25453 -1.17945,0.76613 -0.412,1.05648 0.12403,1.49089 0.70676,1.69439 1.06051,0.25812 1.18997,-0.11251 1.51024,-0.35428 0.35406,-0.26836 0.33099,-0.66193 0.2645,-1.06991 -0.35506,-0.76507 -0.76826,-1.01445 -1.30205,-1.03633 z"
       id="path95"
       sodipodi:nodetypes="cccccc" />
    <path
       style="opacity:0.99569;fill:#e8c3ac;fill-opacity:1;stroke:none;stroke-width:6.00002e-08;stroke-dasharray:none;stroke-opacity:1"
       d="m 268.72573,677.33304 c -0.51568,0.0235 -0.92169,0.25453 -1.17945,0.76613 -0.412,1.05648 0.12403,1.49089 0.70676,1.69439 1.06051,0.25812 1.18997,-0.11251 1.51024,-0.35428 0.35406,-0.26836 0.33099,-0.66193 0.2645,-1.06991 -0.35506,-0.76507 -0.76826,-1.01445 -1.30205,-1.03633 z"
       id="path96"
       sodipodi:nodetypes="cccccc" />
    <path
       style="opacity:0.99569;fill:#e8c3ac;fill-opacity:1;stroke:none;stroke-width:6.00002e-08;stroke-dasharray:none;stroke-opacity:1"
       d="m 318.45287,679.20612 c -0.51568,0.0235 -0.92169,0.25453 -1.17945,0.76613 -0.412,1.05648 0.12403,1.49089 0.70676,1.69439 1.06051,0.25812 1.18997,-0.11251 1.51024,-0.35428 0.35406,-0.26836 0.33099,-0.66193 0.2645,-1.06991 -0.35506,-0.76507 -0.76826,-1.01445 -1.30205,-1.03633 z"
       id="path97"
       sodipodi:nodetypes="cccccc" />
    <path
       style="opacity:0.99569;fill:#ce7b43;fill-opacity:1;stroke:none;stroke-width:6e-08;stroke-dasharray:none;stroke-opacity:1"
       d="m 324.39281,785.35608 c 94.32698,-62.92867 30.78394,-135.59114 61.73107,-228.84466 3.94209,-9.57526 14.39292,-3.30105 8.01714,8.82809 -28.40223,96.05606 33.68657,172.37688 -66.34029,228.50286 z"
       id="path98"
       sodipodi:nodetypes="ccccc" />
    <path
       style="opacity:0.99569;fill:#321c0e;fill-opacity:1;stroke:none;stroke-width:6e-08;stroke-dasharray:none;stroke-opacity:1"
       d="m 370.90255,742.39952 c -0.84765,-0.3057 -1.64707,-0.22347 -2.38127,0.38318 -1.32182,1.33236 -0.72574,2.34721 0.0892,3.04217 1.55289,1.09424 1.99225,0.61684 2.65981,0.46153 0.73867,-0.17332 0.94588,-0.78655 1.09189,-1.45042 -0.0983,-1.39743 -0.61094,-2.04986 -1.45966,-2.43647 z"
       id="path99"
       sodipodi:nodetypes="cccccc" />
    <path
       style="opacity:0.99569;fill:#321c0e;fill-opacity:1;stroke:none;stroke-width:6e-08;stroke-dasharray:none;stroke-opacity:1"
       d="m 371.92794,749.57726 c -0.84765,-0.3057 -1.64707,-0.22347 -2.38127,0.38318 -1.32182,1.33236 -0.72574,2.34721 0.0892,3.04217 1.55289,1.09424 1.99225,0.61684 2.65981,0.46153 0.73867,-0.17332 0.94588,-0.78655 1.09189,-1.45042 -0.0983,-1.39743 -0.61094,-2.04986 -1.45966,-2.43647 z"
       id="path100"
       sodipodi:nodetypes="cccccc" />
    <path
       id="path101"
       style="opacity:0.99569;fill:#321c0e;fill-opacity:1;stroke:none;stroke-width:6e-08;stroke-dasharray:none;stroke-opacity:1"
       d="M 366.89453 758.29102 C 366.38885 758.2938 365.90419 758.46851 365.44531 758.84766 C 364.1235 760.18002 364.72022 761.19372 365.53516 761.88868 C 366.04777 762.24989 366.43766 762.43858 366.75586 762.5254 C 367.53269 761.5636 368.28475 760.59808 369.00781 759.62696 C 368.75933 759.0551 368.35954 758.70781 367.82617 758.46485 C 367.50831 758.35021 367.19794 758.28935 366.89453 758.29102 z " />
    <path
       style="opacity:0.99569;fill:#321c0e;fill-opacity:1;stroke:none;stroke-width:6e-08;stroke-dasharray:none;stroke-opacity:1"
       d="m 359.96502,760.85658 c -0.84765,-0.3057 -1.64707,-0.22347 -2.38127,0.38318 -1.32182,1.33236 -0.72574,2.34721 0.0892,3.04217 1.55289,1.09424 1.99225,0.61684 2.65981,0.46153 0.73867,-0.17332 0.94588,-0.78655 1.09189,-1.45042 -0.0983,-1.39743 -0.61094,-2.04986 -1.45966,-2.43647 z"
       id="path102"
       sodipodi:nodetypes="cccccc" />
    <path
       style="opacity:0.99569;fill:#321c0e;fill-opacity:1;stroke:none;stroke-width:6e-08;stroke-dasharray:none;stroke-opacity:1"
       d="m 351.42009,765.98354 c -0.84765,-0.3057 -1.64707,-0.22347 -2.38127,0.38318 -1.32182,1.33236 -0.72574,2.34721 0.0892,3.04217 1.55289,1.09424 1.99225,0.61684 2.65981,0.46153 0.73867,-0.17332 0.94588,-0.78655 1.09189,-1.45042 -0.0983,-1.39743 -0.61094,-2.04986 -1.45966,-2.43647 z"
       id="path103"
       sodipodi:nodetypes="cccccc" />
    <path
       style="opacity:0.99569;fill:#321c0e;fill-opacity:1;stroke:none;stroke-width:6e-08;stroke-dasharray:none;stroke-opacity:1"
       d="m 348.34391,773.16128 c -0.84765,-0.3057 -1.64707,-0.22347 -2.38127,0.38318 -1.32182,1.33236 -0.72574,2.34721 0.0892,3.04217 1.55289,1.09424 1.99225,0.61684 2.65981,0.46153 0.73867,-0.17332 0.94588,-0.78655 1.09189,-1.45042 -0.0983,-1.39743 -0.61094,-2.04986 -1.45966,-2.43647 z"
       id="path104"
       sodipodi:nodetypes="cccccc" />
    <path
       style="opacity:0.99569;fill:#321c0e;fill-opacity:1;stroke:none;stroke-width:6e-08;stroke-dasharray:none;stroke-opacity:1"
       d="m 363.0412,752.31164 c -0.84765,-0.3057 -1.64707,-0.22347 -2.38127,0.38318 -1.32182,1.33236 -0.72574,2.34721 0.0892,3.04217 1.55289,1.09424 1.99225,0.61684 2.65981,0.46153 0.73867,-0.17332 0.94588,-0.78655 1.09189,-1.45042 -0.0983,-1.39743 -0.61094,-2.04986 -1.45966,-2.43647 z"
       id="path105"
       sodipodi:nodetypes="cccccc" />
    <path
       style="opacity:0.99569;fill:#321c0e;fill-opacity:1;stroke:none;stroke-width:6e-08;stroke-dasharray:none;stroke-opacity:1"
       d="m 377.7385,735.56357 c -0.84765,-0.3057 -1.64707,-0.22347 -2.38127,0.38318 -1.32182,1.33236 -0.72574,2.34721 0.0892,3.04217 1.55289,1.09424 1.99225,0.61684 2.65981,0.46153 0.73867,-0.17332 0.94588,-0.78655 1.09189,-1.45042 -0.0983,-1.39743 -0.61094,-2.04986 -1.45966,-2.43647 z"
       id="path106"
       sodipodi:nodetypes="cccccc" />
    <path
       style="opacity:0.99569;fill:#321c0e;fill-opacity:1;stroke:none;stroke-width:6e-08;stroke-dasharray:none;stroke-opacity:1"
       d="m 340.82437,775.55386 c -0.84765,-0.3057 -1.64707,-0.22347 -2.38127,0.38318 -1.32182,1.33236 -0.72574,2.34721 0.0892,3.04217 1.55289,1.09424 1.99225,0.61684 2.65981,0.46153 0.73867,-0.17332 0.94588,-0.78655 1.09189,-1.45042 -0.0983,-1.39743 -0.61094,-2.04986 -1.45966,-2.43647 z"
       id="path107"
       sodipodi:nodetypes="cccccc" />
    <path
       style="opacity:0.99569;fill:#321c0e;fill-opacity:1;stroke:none;stroke-width:6e-08;stroke-dasharray:none;stroke-opacity:1"
       d="m 337.74819,783.4152 c -0.84765,-0.3057 -1.64707,-0.22347 -2.38127,0.38318 -1.32182,1.33236 -0.72574,2.34721 0.0892,3.04217 1.55289,1.09424 1.99225,0.61684 2.65981,0.46153 0.73867,-0.17332 0.94588,-0.78655 1.09189,-1.45042 -0.0983,-1.39743 -0.61094,-2.04986 -1.45966,-2.43647 z"
       id="path108"
       sodipodi:nodetypes="cccccc" />
    <path
       id="path109"
       style="opacity:0.99569;fill:#321c0e;fill-opacity:1;stroke:none;stroke-width:6e-08;stroke-dasharray:none;stroke-opacity:1"
       d="M 372.47071 728.68165 C 372.0101 729.97882 371.48501 731.26642 370.96289 732.55469 C 372.01275 733.10823 372.41392 732.74659 372.97852 732.61524 C 373.71719 732.44192 373.9243 731.82794 374.07031 731.16407 C 373.97201 729.76664 373.46005 729.11513 372.61133 728.72852 C 372.56424 728.71154 372.5175 728.69621 372.47071 728.68165 z " />
    <path
       style="opacity:0.99569;fill:#321c0e;fill-opacity:1;stroke:none;stroke-width:6e-08;stroke-dasharray:none;stroke-opacity:1"
       d="m 381.15647,727.70223 c -0.84765,-0.3057 -1.64707,-0.22347 -2.38127,0.38318 -1.32182,1.33236 -0.72574,2.34721 0.0892,3.04217 1.55289,1.09424 1.99225,0.61684 2.65981,0.46153 0.73867,-0.17332 0.94588,-0.78655 1.09189,-1.45042 -0.0983,-1.39743 -0.61094,-2.04986 -1.45966,-2.43647 z"
       id="path110"
       sodipodi:nodetypes="cccccc" />
    <path
       style="opacity:0.99569;fill:#321c0e;fill-opacity:1;stroke:none;stroke-width:6e-08;stroke-dasharray:none;stroke-opacity:1"
       d="m 379.10569,720.18269 c -0.84765,-0.3057 -1.64707,-0.22347 -2.38127,0.38318 -1.32182,1.33236 -0.72574,2.34721 0.0892,3.04217 1.55289,1.09424 1.99225,0.61684 2.65981,0.46153 0.73867,-0.17332 0.94588,-0.78655 1.09189,-1.45042 -0.0983,-1.39743 -0.61094,-2.04986 -1.45966,-2.43647 z"
       id="path111"
       sodipodi:nodetypes="cccccc" />
    <path
       style="opacity:0.99569;fill:#321c0e;fill-opacity:1;stroke:none;stroke-width:6e-08;stroke-dasharray:none;stroke-opacity:1"
       d="m 382.52366,711.63776 c -0.84765,-0.3057 -1.64707,-0.22347 -2.38127,0.38318 -1.32182,1.33236 -0.72574,2.34721 0.0892,3.04217 1.55289,1.09424 1.99225,0.61684 2.65981,0.46153 0.73867,-0.17332 0.94588,-0.78655 1.09189,-1.45042 -0.0983,-1.39743 -0.61094,-2.04986 -1.45966,-2.43647 z"
       id="path112"
       sodipodi:nodetypes="cccccc" />
    <path
       id="path113"
       style="opacity:0.99569;fill:#321c0e;fill-opacity:1;stroke:none;stroke-width:6e-08;stroke-dasharray:none;stroke-opacity:1"
       d="M 379.88281 701.55274 C 379.37714 701.55551 378.89247 701.73022 378.4336 702.10938 C 378.33408 702.20969 378.24647 702.30759 378.16797 702.4043 C 378.09734 703.10312 378.00867 703.79794 377.92774 704.49414 C 378.08414 704.73781 378.29606 704.95649 378.52344 705.15039 C 380.07633 706.24463 380.51408 705.7686 381.18164 705.61329 C 381.92031 705.43997 382.12743 704.82598 382.27344 704.16211 C 382.17514 702.76469 381.66317 702.11318 380.81446 701.72657 C 380.49659 701.61193 380.18622 701.55107 379.88281 701.55274 z " />
    <path
       id="path114"
       style="opacity:0.99569;fill:#321c0e;fill-opacity:1;stroke:none;stroke-width:6e-08;stroke-dasharray:none;stroke-opacity:1"
       d="M 386.03516 696.08399 C 385.52948 696.08676 385.04481 696.26147 384.58594 696.64063 C 383.26412 697.97299 383.86084 698.98669 384.67578 699.68164 C 386.22867 700.77588 386.66643 700.29985 387.33399 700.14454 C 387.45939 700.11511 387.56895 700.07046 387.66602 700.01758 C 387.7074 698.9553 387.73632 697.88665 387.76172 696.81641 C 387.54443 696.5786 387.27883 696.39995 386.9668 696.25782 C 386.64893 696.14318 386.33857 696.08232 386.03516 696.08399 z " />
    <path
       style="opacity:0.99569;fill:#321c0e;fill-opacity:1;stroke:none;stroke-width:6e-08;stroke-dasharray:none;stroke-opacity:1"
       d="m 384.23264,690.44633 c -0.84765,-0.3057 -1.64707,-0.22347 -2.38127,0.38318 -1.32182,1.33236 -0.72574,2.34721 0.0892,3.04217 1.55289,1.09424 1.99225,0.61684 2.65981,0.46153 0.73867,-0.17332 0.94588,-0.78655 1.09189,-1.45042 -0.0983,-1.39743 -0.61094,-2.04986 -1.45966,-2.43647 z"
       id="path115"
       sodipodi:nodetypes="cccccc" />
    <path
       id="path116"
       style="opacity:0.99569;fill:#321c0e;fill-opacity:1;stroke:none;stroke-width:6e-08;stroke-dasharray:none;stroke-opacity:1"
       d="M 380.56641 683.09571 C 380.06073 683.09848 379.57606 683.27319 379.11719 683.65235 C 379.08121 683.68861 379.04684 683.72398 379.01367 683.75977 C 379.01406 684.67444 379.00017 685.58392 378.99024 686.49414 C 379.05991 686.56318 379.13238 686.6297 379.20703 686.69336 C 380.75992 687.7876 381.19768 687.31156 381.86524 687.15625 C 382.60391 686.98293 382.81102 686.36895 382.95703 685.70508 C 382.85873 684.30765 382.34677 683.65615 381.49805 683.26954 C 381.18018 683.1549 380.86982 683.09404 380.56641 683.09571 z " />
    <path
       style="opacity:0.99569;fill:#321c0e;fill-opacity:1;stroke:none;stroke-width:6e-08;stroke-dasharray:none;stroke-opacity:1"
       d="m 385.59983,676.77444 c -0.84765,-0.3057 -1.64707,-0.22347 -2.38127,0.38318 -1.32182,1.33236 -0.72574,2.34721 0.0892,3.04217 1.55289,1.09424 1.99225,0.61684 2.65981,0.46153 0.73867,-0.17332 0.94588,-0.78655 1.09189,-1.45042 -0.0983,-1.39743 -0.61094,-2.04986 -1.45966,-2.43647 z"
       id="path117"
       sodipodi:nodetypes="cccccc" />
    <path
       style="opacity:0.99569;fill:#321c0e;fill-opacity:1;stroke:none;stroke-width:6e-08;stroke-dasharray:none;stroke-opacity:1"
       d="m 383.89084,668.5713 c -0.84765,-0.3057 -1.64707,-0.22347 -2.38127,0.38318 -1.32182,1.33236 -0.72574,2.34721 0.0892,3.04217 1.55289,1.09424 1.99225,0.61684 2.65981,0.46153 0.73867,-0.17332 0.94588,-0.78655 1.09189,-1.45042 -0.0983,-1.39743 -0.61094,-2.04986 -1.45966,-2.43647 z"
       id="path118"
       sodipodi:nodetypes="cccccc" />
    <path
       id="path119"
       style="opacity:0.99569;fill:#321c0e;fill-opacity:1;stroke:none;stroke-width:6e-08;stroke-dasharray:none;stroke-opacity:1"
       d="M 386.03516 658.82813 C 385.52948 658.8309 385.04481 659.00561 384.58594 659.38477 C 383.26412 660.71713 383.86084 661.73083 384.67578 662.42579 C 385.91559 663.29941 386.44422 663.1721 386.94727 663.00586 C 386.88144 661.66292 386.82173 660.28539 386.75586 658.93164 C 386.51134 658.86179 386.27084 658.82684 386.03516 658.82813 z " />
    <path
       style="opacity:0.99569;fill:#321c0e;fill-opacity:1;stroke:none;stroke-width:6e-08;stroke-dasharray:none;stroke-opacity:1"
       d="m 381.49826,654.21581 c -0.84765,-0.3057 -1.64707,-0.22347 -2.38127,0.38318 -1.32182,1.33236 -0.72574,2.34721 0.0892,3.04217 1.55289,1.09424 1.99225,0.61684 2.65981,0.46153 0.73867,-0.17332 0.94588,-0.78655 1.09189,-1.45042 -0.0983,-1.39743 -0.61094,-2.04986 -1.45966,-2.43647 z"
       id="path120"
       sodipodi:nodetypes="cccccc" />
    <path
       style="opacity:0.99569;fill:#321c0e;fill-opacity:1;stroke:none;stroke-width:6e-08;stroke-dasharray:none;stroke-opacity:1"
       d="m 383.20725,646.01267 c -0.84765,-0.3057 -1.64707,-0.22347 -2.38127,0.38318 -1.32182,1.33236 -0.72574,2.34721 0.0892,3.04217 1.55289,1.09424 1.99225,0.61684 2.65981,0.46153 0.73867,-0.17332 0.94588,-0.78655 1.09189,-1.45042 -0.0983,-1.39743 -0.61094,-2.04986 -1.45966,-2.43647 z"
       id="path121"
       sodipodi:nodetypes="cccccc" />
    <path
       id="path122"
       style="opacity:0.99569;fill:#e8c3ac;fill-opacity:1;stroke:none;stroke-width:0.00000006;stroke-dasharray:none;stroke-opacity:1"
       d="M 376.90625 632.95899 C 376.9334 633.79226 376.96293 634.62343 376.99414 635.45313 L 385.93164 636.16407 C 385.91487 635.24518 385.87013 634.35313 385.85938 633.42969 L 376.90625 632.95899 z " />
    <path
       id="path123"
       style="opacity:0.99569;fill:#e8c3ac;fill-opacity:1;stroke:none;stroke-width:6e-08;stroke-dasharray:none;stroke-opacity:1"
       d="M 385.90821 622.9668 L 376.69531 623.24024 C 376.70223 624.13541 376.72849 625.01908 376.74219 625.91016 L 385.85352 625.25977 C 385.86198 624.50047 385.89422 623.72909 385.90821 622.9668 z " />
    <path
       id="path124"
       style="opacity:0.99569;fill:#e8c3ac;fill-opacity:1;stroke:none;stroke-width:6e-08;stroke-dasharray:none;stroke-opacity:1"
       d="M 376.86719 611.16993 C 376.83933 611.99765 376.80126 612.83003 376.78125 613.6543 L 386.25196 613.4043 C 386.28629 612.74588 386.31789 612.08832 386.35742 611.42774 L 376.86719 611.16993 z " />
    <path
       id="path125"
       style="opacity:0.99569;fill:#e8c3ac;fill-opacity:1;stroke:none;stroke-width:6e-08;stroke-dasharray:none;stroke-opacity:1"
       d="M 377.32813 602.35352 C 377.27701 603.07862 377.22372 603.80487 377.17969 604.52735 L 386.84571 604.88868 C 386.89366 604.33678 386.9401 603.7858 386.99219 603.23243 L 377.32813 602.35352 z " />
    <path
       id="path126"
       style="opacity:0.99569;fill:#e8c3ac;fill-opacity:1;stroke:none;stroke-width:6e-08;stroke-dasharray:none;stroke-opacity:1"
       d="M 378.03125 594.50196 C 377.97259 595.04762 377.90961 595.59448 377.85547 596.13868 L 387.75391 596.37696 C 387.801 596.00209 387.84729 595.62748 387.89649 595.25196 L 378.03125 594.50196 z " />
    <path
       id="path127"
       style="opacity:0.99569;fill:#e8c3ac;fill-opacity:1;stroke:none;stroke-width:6e-08;stroke-dasharray:none;stroke-opacity:1"
       d="M 378.94531 587.26172 C 378.8444 587.9586 378.72571 588.66098 378.63281 589.35547 L 388.50196 590.82227 C 388.6243 590.02217 388.78142 589.21322 388.91406 588.41016 L 378.94531 587.26172 z " />
    <path
       id="path128"
       style="opacity:0.99569;fill:#e8c3ac;fill-opacity:1;stroke:none;stroke-width:6e-08;stroke-dasharray:none;stroke-opacity:1"
       d="M 379.97461 580.82227 C 379.88023 581.34544 379.76335 581.87465 379.67383 582.39649 L 389.68164 583.9043 C 389.8003 583.27619 389.92927 582.64552 390.05469 582.01563 L 379.97461 580.82227 z " />
    <path
       id="path129"
       style="opacity:0.99569;fill:#e8c3ac;fill-opacity:1;stroke:none;stroke-width:6e-08;stroke-dasharray:none;stroke-opacity:1"
       d="M 381.34375 573.87305 C 381.17337 574.6437 381.05177 575.40215 380.89258 576.16993 L 391.00781 577.63477 C 391.20034 576.77272 391.36431 575.91809 391.57031 575.05274 L 381.34375 573.87305 z " />
    <path
       id="path130"
       style="opacity:0.99569;fill:#e8c3ac;fill-opacity:1;stroke:none;stroke-width:6e-08;stroke-dasharray:none;stroke-opacity:1"
       d="M 383.01953 567.09571 C 382.82068 567.85239 382.64643 568.60349 382.45899 569.35743 L 392.45899 571.59375 C 392.57215 571.15532 392.69767 570.71466 392.81446 570.27539 L 383.01953 567.09571 z " />
    <path
       id="path131"
       style="opacity:0.99569;fill:#e8c3ac;fill-opacity:1;stroke:none;stroke-width:6e-08;stroke-dasharray:none;stroke-opacity:1"
       d="M 384.77149 560.97266 C 384.58028 561.60549 384.37816 562.24017 384.19531 562.8711 L 394.04688 565.68555 C 394.08093 565.56956 394.10631 565.4559 394.14063 565.33985 C 394.39411 564.99315 394.57319 564.65191 394.78125 564.3086 L 384.77149 560.97266 z " />
    <path
       style="opacity:0.99569;fill:#020303;fill-opacity:1;stroke:none;stroke-width:6e-08;stroke-dasharray:none;stroke-opacity:1"
       d="m 294.59136,696.33375 c 4.41747,0.3511 8.86393,-0.6738 13.35058,-3.6063 l 0.40752,0.90937 c -3.05933,2.94959 -6.34956,5.58903 -12.78989,3.99738 z"
       id="path133"
       sodipodi:nodetypes="ccccc" />
    <path
       style="opacity:0.99569;fill:#517458;fill-opacity:1;stroke:none;stroke-width:0.00000006;stroke-dasharray:none;stroke-opacity:1"
       d="m 46.142639,251.90463 c -4.379475,2.84756 10.636926,-57.91204 28.02738,-75.19541 14.746314,-13.69421 22.880935,-22.57851 53.662181,-37.93951 24.01021,-9.17367 48.09691,-18.19434 76.5626,-18.45705 35.83835,-4.07698 67.90996,-2.75148 100.83021,6.15235 28.93519,9.00493 53.01133,23.67874 76.5626,38.9649 15.79282,11.55097 27.22542,27.46215 37.59771,44.43365 4.91531,6.46982 7.35046,16.65989 10.59572,25.6348 2.67958,6.82586 2.55562,11.96959 0.68359,16.06448 -2.822,7.19966 -8.2171,11.68542 -14.69728,12.3047 -5.80888,-0.1039 -11.82407,0.60511 -17.77346,-2.39258 -6.05971,-3.97594 -7.89952,-5.49361 -13.3301,-13.33011 0,0 -5.81755,-12.58091 -12.6465,-20.84963 -7.68777,-9.30861 -28.95917,-25.75889 -38.96489,-30.07816 0,-1.93217 -50.01897,-21.51538 -59.13094,-22.21682 -8.65426,-2.86941 -53.18242,-7.6811 -64.5997,-7.17775 -11.45068,0.29711 -35.51187,5.45822 -39.64848,7.17774 -6.3896,0.40958 -37.15188,16.62275 -40.33209,17.43166 -3.53342,0.89875 -34.0051,26.25915 -32.812545,25.293 l -23.925815,26.3184 -8.88673,9.91212 z"
       id="path155"
       sodipodi:nodetypes="ccccccccccccsccccscccc" />
    <path
       style="opacity:0.99569;fill:#3c5641;fill-opacity:1;stroke:none;stroke-width:6e-08;stroke-dasharray:none;stroke-opacity:1"
       d="m 55.104683,251.35469 c 3.696929,-12.34461 22.124022,-58.51909 38.3868,-72.16436 5.583625,-6.75624 67.565887,-36.25009 120.843597,-38.50408 28.03572,1.2291 57.78042,1.99266 85.81614,11.94278 27.90426,10.7459 66.13117,28.66893 78.9316,39.97849 10.09526,6.97593 28.01315,45.99269 37.92772,70.7486 l -2.75218,-0.17218 c -9.92083,-26.36229 -26.63417,-55.86593 -38.2813,-66.30868 -11.50718,-10.62815 -53.09252,-29.08404 -79.63878,-39.64849 -27.57165,-7.38309 -61.63745,-10.28954 -81.68956,-10.93751 -13.07207,-0.16901 -51.75877,8.10277 -63.43346,12.40908 -13.38368,3.96452 -46.58159,19.68625 -53.803022,24.16323 -11.264379,7.17775 -26.393712,46.14264 -37.255909,69.38486 z"
       id="path154"
       sodipodi:nodetypes="cccccccccccccc" />
    <path
       style="opacity:0.99569;fill:#9bbaa1;fill-opacity:1;stroke:none;stroke-width:0.00000006;stroke-dasharray:none;stroke-opacity:1"
       d="m 11.147436,218.75689 c -0.824482,4.07718 34.158011,-23.49045 41.200116,-41.2728 5.365236,-14.82249 9.163572,-23.35352 12.024415,-50.77023 0.46074,-20.63751 0.808046,-41.292213 -5.337934,-62.931453 C 53.658422,35.540393 45.711462,11.592023 32.797808,-10.980153 20.704004,-30.5058 6.1130664,-44.839148 -8.7476111,-58.611629 -19.532796,-67.500551 -32.100536,-71.923844 -45.101761,-75.26119 c -5.169414,-2.000595 -12.134716,-1.13065 -18.513422,-1.198325 -4.898192,-0.211655 -8.114092,1.252811 -10.281049,3.762376 -3.91404,4.056643 -5.546298,9.339882 -4.49995,14.4151 1.353504,4.373866 2.240171,9.120656 5.449513,12.829945 3.85064,3.532228 5.215545,4.521922 11.360971,6.548802 0,0 9.222821,1.055959 15.95084,4.027258 7.574148,3.344974 22.663353,15.079756 27.60542,21.510506 1.218332,-0.514824 24.6571426,32.168025 27.1198128,38.885519 3.7281992,5.793024 16.6353442,38.251178 18.8494842,47.036483 2.35159,8.755662 4.432278,28.362656 4.265233,31.955246 1.158491,4.95071 -2.243895,32.58011 -2.048813,35.20538 0.216749,2.91684 -9.017868,32.7633 -8.673083,31.60224 l -11.290085,25.14175 -4.279666,9.37478 z"
       id="path162"
       sodipodi:nodetypes="ccccccccccccsccccscccc" />
    <path
       style="opacity:0.99569;fill:#3c5641;fill-opacity:1;stroke:none;stroke-width:6e-08;stroke-dasharray:none;stroke-opacity:1"
       d="M 9.5070677,211.81957 C 16.471266,205.72911 41.500847,179.46328 46.498981,163.50477 49.521093,157.47371 54.375292,102.64946 43.983404,61.678887 36.992097,40.762937 29.915408,18.428004 17.425051,-0.16424638 4.4620619,-18.444852 -15.315294,-42.634881 -25.284761,-49.32071 c -6.637081,-5.790735 -35.212043,-8.971672 -53.020249,-9.88805 l 0.718803,2.039526 c 18.822499,0.493104 41.131868,5.296074 50.29905,11.338976 9.253054,5.887458 30.1110622,32.480283 42.658532,49.7802412 10.768816,18.9245918 20.154814,43.9627738 25.009501,58.9841618 3.005009,9.860037 6.367142,41.378025 6.240395,51.371665 0.467699,11.19753 -2.084761,40.54153 -3.306535,47.20629 -2.028315,10.44783 -23.243084,32.29387 -35.490046,46.7173 z"
       id="path163"
       sodipodi:nodetypes="cccccccccccccc" />
    <path
       style="opacity:0.99569;fill:#7ea586;fill-opacity:1;stroke:none;stroke-width:0.00000006;stroke-dasharray:none;stroke-opacity:1"
       d="m 68.11725,179.75153 c -1.349839,3.9346 -17.596008,-37.536 -14.682134,-56.43872 2.86433,-15.50121 3.899959,-24.782011 15.29204,-49.883426 10.035687,-18.038958 20.177937,-36.035404 36.420324,-51.598653 18.91572,-21.64957688 37.87936,-38.294663 60.43253,-51.241478 20.30564,-10.732743 40.14087,-15.723156 59.92528,-20.093286 13.79921,-2.216948 26.87883,0.32021 39.78347,4.013469 5.47156,0.887265 11.04142,5.159135 16.57918,8.325476 4.33315,2.293647 6.36748,5.182973 6.96842,8.443722 1.32622,5.478798 0.0636,10.862356 -3.40494,14.712275 -3.37899,3.08951 -6.54373,6.7367871 -11.18797,8.3146888 -5.10803,1.1009285 -6.78601,1.2648136 -13.11296,-0.093192 0,0 -8.49128,-3.751482 -15.79834,-4.5891708 -8.22601,-0.94304 -27.17745,1.5534343 -34.6925,4.6034389 -0.79091,-1.0601125 -37.53659,15.2892319 -43.05739,19.8400901 -6.14533,3.11344 -33.6907,24.593162 -40.04244,31.05377 -6.45534,6.365544 -18.1628,22.230569 -19.8349,25.4147 -3.50235,3.685798 -14.534714,29.244495 -16.030223,31.410946 -1.661609,2.40708 -8.782754,32.82712 -8.493264,31.65105 l -2.969233,27.39995 -1.046894,10.25213 z"
       id="path164"
       sodipodi:nodetypes="ccccccccccccsccccscccc" />
    <path
       style="opacity:0.99569;fill:#3c5641;fill-opacity:1;stroke:none;stroke-width:6e-08;stroke-dasharray:none;stroke-opacity:1"
       d="m 73.039694,174.5953 c -2.929696,-8.77558 -11.246619,-44.09133 -7.49124,-60.38711 0.4415,-6.73141 23.969494,-56.48778 53.648126,-86.583586 16.60608,-14.511843 34.00318,-30.2048208 54.1791,-39.931753 20.42615,-9.219107 49.71922,-20.091887 61.70087,-20.82039 8.65395,-1.640892 34.91652,10.06056 50.74471,18.272781 l -1.65126,1.396314 c -16.48933,-9.090193 -38.16597,-16.22461 -49.13037,-15.645231 -10.95992,0.401849 -42.4001,12.80144 -61.97198,21.3845099 C 154.20907,3.1648298 133.45288,20.022706 121.67025,30.528884 114.09282,37.516948 95.25818,63.010937 90.315288,71.697525 84.250892,81.1223 71.618405,107.73068 69.303205,114.09869 c -3.531832,10.03979 3.72808,39.61359 7.003041,58.24953 z"
       id="path165"
       sodipodi:nodetypes="cccccccccccccc" />
    <path
       style="opacity:0.99569;fill:#5e8666;fill-opacity:1;stroke:none;stroke-width:0.00000006;stroke-dasharray:none;stroke-opacity:1"
       d="m 40.798873,251.30073 c -2.686422,4.48013 -15.846011,-56.70849 -7.800048,-79.86891 7.244314,-18.77512 10.65708,-30.32743 31.579898,-57.63459 17.552323,-18.776646 35.240501,-37.449352 60.705767,-50.172746 30.41742,-19.385297 59.81984,-32.263299 93.30934,-38.703363 29.9527,-4.601047 58.02567,-1.976227 85.89559,1.429127 19.25929,3.452222 36.51303,12.735457 53.27907,23.436678 7.25529,3.657818 13.91379,11.746809 20.76723,18.388426 5.40235,4.95854 7.54741,9.635299 7.66146,14.136367 0.62237,7.707882 -2.25809,14.1057 -7.8098,17.504934 -5.26569,2.454867 -10.36017,5.730757 -17.02158,5.646777 -7.18968,-0.91469 -9.50879,-1.47145 -17.82665,-6.131383 0,0 -10.74689,-8.753716 -20.511,-13.188629 -10.99206,-4.992657 -37.32387,-10.444272 -48.21022,-9.936454 -0.84761,-1.736332 -54.38759,2.607631 -62.88371,5.974519 -9.03584,1.217868 -51.16158,16.427459 -61.20084,21.888317 -10.15974,5.29017 -29.51811,20.48332 -32.48113,23.8432 -5.5623,3.17105 -26.09424,31.23569 -28.597263,33.35771 -2.781022,2.35769 -19.03912,38.51495 -18.391268,37.12358 l -9.955443,34.14662 -3.637761,12.80589 z"
       id="path156"
       sodipodi:nodetypes="ccccccccccccsccccscccc" />
    <path
       style="opacity:0.99569;fill:#3c5641;fill-opacity:1;stroke:none;stroke-width:6e-08;stroke-dasharray:none;stroke-opacity:1"
       d="m 48.611309,246.87507 c -2.093104,-12.71518 -5.789505,-62.29316 2.839039,-81.68954 2.053866,-8.52088 44.815488,-62.21568 91.704382,-87.613045 25.73331,-11.194169 52.79815,-23.556386 82.35718,-26.913466 29.78999,-2.584289 72.00483,-3.247228 88.46912,1.300751 12.13224,1.840293 45.34989,29.042248 65.11946,46.939672 l -2.54876,1.052597 c -20.47988,-19.338242 -48.44186,-38.519703 -63.4895,-42.794658 -15.0032,-4.502957 -60.46982,-2.845595 -88.95986,-0.693974 -28.01589,5.460347 -59.90391,17.792448 -78.20786,26.0066 -11.82128,5.582568 -42.95817,29.987003 -51.56047,38.978293 -10.288006,9.43383 -33.224298,38.1253 -37.749834,45.31641 -6.973931,11.39169 -3.476717,53.04416 -3.042079,78.69566 z"
       id="path157"
       sodipodi:nodetypes="cccccccccccccc" />
    <path
       style="opacity:0.99569;fill:#4a6a50;fill-opacity:1;stroke:none;stroke-width:0.00000006;stroke-dasharray:none;stroke-opacity:1"
       d="M 60.036461,249.97113 C 64.415936,252.81869 49.399535,192.05909 32.009081,174.77572 17.262767,161.08151 9.128146,152.19721 -21.6531,136.83621 c -24.01021,-9.17367 -48.09691,-18.19434 -76.5626,-18.45705 -35.83835,-4.07698 -67.90996,-2.75148 -100.83021,6.15235 -28.93519,9.00493 -53.01133,23.67874 -76.5626,38.9649 -15.79282,11.55097 -27.22542,27.46215 -37.59771,44.43365 -4.91531,6.46982 -7.35046,16.65989 -10.59572,25.6348 -2.67958,6.82586 -2.55562,11.96959 -0.68359,16.06448 2.822,7.19966 8.2171,11.68542 14.69728,12.3047 5.80888,-0.1039 11.82407,0.60511 17.77346,-2.39258 6.05971,-3.97594 7.89952,-5.49361 13.3301,-13.33011 0,0 5.81755,-12.58091 12.6465,-20.84963 7.68777,-9.30861 28.95917,-25.75889 38.96489,-30.07816 0,-1.93217 50.01897,-21.51538 59.13094,-22.21682 8.65426,-2.86941 53.18242,-7.6811 64.5997,-7.17775 11.45068,0.29711 35.51187,5.45822 39.64848,7.17774 6.3896,0.40958 37.15188,16.62275 40.33209,17.43166 3.53342,0.89875 34.0051,26.25915 32.812545,25.293 l 23.925815,26.3184 8.88673,9.91212 z"
       id="path158"
       sodipodi:nodetypes="ccccccccccccsccccscccc" />
    <path
       style="opacity:0.99569;fill:#3c5641;fill-opacity:1;stroke:none;stroke-width:6e-08;stroke-dasharray:none;stroke-opacity:1"
       d="M 51.074417,249.42119 C 47.377488,237.07658 28.950395,190.9021 12.687617,177.25683 7.103992,170.50059 -54.87827,141.00674 -108.15598,138.75275 c -28.03572,1.2291 -57.78042,1.99266 -85.81614,11.94278 -27.90426,10.7459 -66.13117,28.66893 -78.9316,39.97849 -10.09526,6.97593 -28.01315,45.99269 -37.92772,70.7486 l 2.75218,-0.17218 c 9.92083,-26.36229 26.63417,-55.86593 38.2813,-66.30868 11.50718,-10.62815 53.09252,-29.08404 79.63878,-39.64849 27.57165,-7.38309 61.63745,-10.28954 81.68956,-10.93751 13.07207,-0.16901 51.75877,8.10277 63.43346,12.40908 13.38368,3.96452 46.58159,19.68625 53.803022,24.16323 11.264379,7.17775 26.393712,46.14264 37.255909,69.38486 z"
       id="path159"
       sodipodi:nodetypes="cccccccccccccc" />
    <path
       style="opacity:0.99569;fill:#79a181;fill-opacity:1;stroke:none;stroke-width:6e-08;stroke-dasharray:none;stroke-opacity:1"
       d="m 59.461991,262.39875 c 2.554208,4.5568 17.498207,-56.22064 10.133234,-79.60654 C 62.903268,163.8132 59.82992,152.166 39.714915,124.25844 22.719405,104.97634 5.5850588,85.794168 -19.497092,72.331246 -49.334384,52.0644 -78.347479,38.331758 -111.63424,30.914731 c -29.80528,-5.475329 -57.94302,-3.672893 -85.90064,-1.084317 -19.35204,2.887323 -36.86997,11.661835 -53.94189,21.867994 -7.35919,3.444002 -14.25149,11.334741 -21.29629,17.773021 -5.5451,4.798374 -7.82605,9.410379 -8.07174,13.906184 -0.84759,7.686376 1.84447,14.165723 7.29436,17.725917 5.19162,2.60786 10.18809,6.03138 16.84911,6.14231 7.21336,-0.70396 9.54776,-1.19264 17.99839,-5.60724 0,0 10.99838,-8.435578 20.88805,-12.582949 11.13341,-4.668953 37.61343,-9.347911 48.48027,-8.521836 0.89803,-1.710793 54.28802,4.197596 62.68201,7.811594 8.996347,1.481686 50.659105,17.917131 60.534311,23.669351 10.000635,5.58513 28.906245,21.33809 31.769705,24.78322 5.4671513,3.33241 25.169291,31.98569 27.609164,34.18002 2.710859,2.43805 17.904236,39.05545 17.297365,37.64572 l 8.952239,34.42325 3.261574,12.90683 z"
       id="path160"
       sodipodi:nodetypes="ccccccccccccsccccscccc" />
    <path
       style="opacity:0.99569;fill:#3c5641;fill-opacity:1;stroke:none;stroke-width:6e-08;stroke-dasharray:none;stroke-opacity:1"
       d="m 51.782368,258.43003 c 2.464184,-12.6485 6.15926,-59.19688 -1.898159,-78.83739 C 48.080496,171.01533 8.3581131,113.19229 -37.767728,86.434087 -63.162537,74.491894 -89.854146,61.343199 -119.30232,57.122821 c -29.70164,-3.454673 -71.87901,-5.352303 -88.46931,-1.287924 -12.18088,1.484583 -46.18009,27.703129 -66.46478,45.014543 l 2.51688,1.12671 c 21.03685,-18.730836 49.548,-37.086074 64.71426,-40.918988 15.12851,-4.062119 60.52719,-1.075363 88.94208,1.908799 27.84417,6.277601 59.357767,19.537291 77.413585,28.283401 11.652899,5.926004 42.0625306,31.230888 50.3981099,40.469988 10.4799401,9.8882 32.1943591,40.72539 35.9245931,51.2351 3.737443,8.20721 2.406823,48.28944 1.22195,73.91724 z"
       id="path161"
       sodipodi:nodetypes="cccccccccccccc" />
    <path
       style="opacity:0.99569;fill:#4b3120;fill-opacity:1;stroke:none;stroke-width:0.00000006;stroke-dasharray:none;stroke-opacity:1"
       d="M 42.536948,284.70753 37.21983,252.32144 70.08929,250.38795 58.971678,285.67428 Z"
       id="path153" />
    <path
       style="opacity:0.99569;fill:#66432c;fill-opacity:1;stroke:none;stroke-width:6e-08;stroke-dasharray:none;stroke-opacity:1"
       d="m 42.053574,310.80975 -7.250616,-32.38609 30.452588,1.45012 -11.117612,31.41934 z"
       id="path152" />
    <path
       style="opacity:0.99569;fill:#4b3120;fill-opacity:1;stroke:none;stroke-width:0.00000006;stroke-dasharray:none;stroke-opacity:1"
       d="m 42.536948,334.01172 -8.700739,-27.06897 27.552341,-0.48337 -9.667488,27.55234 z"
       id="path151" />
    <path
       style="opacity:0.99569;fill:#66432c;fill-opacity:1;stroke:none;stroke-width:6e-08;stroke-dasharray:none;stroke-opacity:1"
       d="m 38.186579,359.63056 -5.800493,-29.48584 23.685346,0.48338 -1.933498,30.93596 z"
       id="path150" />
    <path
       style="opacity:0.99569;fill:#4b3120;fill-opacity:1;stroke:none;stroke-width:0.00000006;stroke-dasharray:none;stroke-opacity:1"
       d="M 40.603451,385.73278 26.585593,355.76357 60.905176,354.79682 53.65456,388.63303 Z"
       id="path149" />
    <path
       style="opacity:0.99569;fill:#66432c;fill-opacity:1;stroke:none;stroke-width:6e-08;stroke-dasharray:none;stroke-opacity:1"
       d="m 38.669953,414.73525 -8.700739,-32.86946 31.902711,-2.90025 -9.184114,37.21983 z"
       id="path148" />
    <path
       style="opacity:0.99569;fill:#4b3120;fill-opacity:1;stroke:none;stroke-width:0.00000006;stroke-dasharray:none;stroke-opacity:1"
       d="m 39.153327,443.25434 -9.667488,-32.86946 h 30.935962 l -7.73399,33.8362 z"
       id="path147" />
    <path
       style="opacity:0.99569;fill:#66432c;fill-opacity:1;stroke:none;stroke-width:6e-08;stroke-dasharray:none;stroke-opacity:1"
       d="m 37.703204,465.48956 -5.317118,-24.6521 30.935962,-0.96675 -12.08436,26.5856 z"
       id="path146" />
    <path
       style="opacity:0.99569;fill:#4b3120;fill-opacity:1;stroke:none;stroke-width:0.00000006;stroke-dasharray:none;stroke-opacity:1"
       d="m 37.21983,491.1084 -3.866996,-28.03571 23.685347,-1.45013 -5.317119,30.93597 z"
       id="path145" />
    <path
       style="opacity:0.99569;fill:#66432c;fill-opacity:1;stroke:none;stroke-width:6e-08;stroke-dasharray:none;stroke-opacity:1"
       d="m 38.186579,525.91136 -6.283868,-38.66995 25.13547,1.45012 -3.383621,40.12008 z"
       id="path144" />
    <path
       style="opacity:0.99569;fill:#4b3120;fill-opacity:1;stroke:none;stroke-width:0.00000006;stroke-dasharray:none;stroke-opacity:1"
       d="M 41.570199,556.36395 32.86946,523.97786 59.938427,522.52774 54.621309,555.3972 Z"
       id="path143" />
    <path
       style="opacity:0.99569;fill:#66432c;fill-opacity:1;stroke:none;stroke-width:6e-08;stroke-dasharray:none;stroke-opacity:1"
       d="m 43.987071,581.98279 -9.667488,-30.93596 28.519091,-0.48337 -8.70074,31.41933 z"
       id="path142" />
    <path
       style="opacity:0.99569;fill:#4b3120;fill-opacity:1;stroke:none;stroke-width:0.00000006;stroke-dasharray:none;stroke-opacity:1"
       d="m 45.437195,614.36888 -7.733991,-35.28633 21.751849,0.48337 -3.383621,33.83621 z"
       id="path141" />
    <path
       style="opacity:0.99569;fill:#66432c;fill-opacity:1;stroke:none;stroke-width:6e-08;stroke-dasharray:none;stroke-opacity:1"
       d="m 43.503697,639.50435 -8.700739,-29.48584 31.419336,1.9335 -6.767241,27.55234 z"
       id="path140" />
    <path
       style="opacity:0.99569;fill:#4b3120;fill-opacity:1;stroke:none;stroke-width:0.00000006;stroke-dasharray:none;stroke-opacity:1"
       d="m 43.020323,670.92368 -7.250617,-37.7032 30.452588,1.45012 -6.767241,36.25308 z"
       id="path139" />
    <path
       style="opacity:0.99569;fill:#66432c;fill-opacity:1;stroke:none;stroke-width:6e-08;stroke-dasharray:none;stroke-opacity:1"
       d="m 39.636702,703.30977 -6.283868,-35.28633 30.452588,-0.48338 -2.416872,34.31959 z"
       id="path137" />
    <path
       style="opacity:0.99569;fill:#4b3120;fill-opacity:1;stroke:none;stroke-width:0.00000006;stroke-dasharray:none;stroke-opacity:1"
       d="m 41.570199,730.86211 -10.634237,-32.38608 36.736456,-0.96675 -0.483375,32.38608 z"
       id="path136" />
    <path
       style="opacity:0.99569;fill:#66432c;fill-opacity:1;stroke:none;stroke-width:6e-08;stroke-dasharray:none;stroke-opacity:1"
       d="m 43.987071,757.93108 -7.73399,-29.96922 35.769706,-1.45012 -5.317118,33.35284 z"
       id="path135" />
    <path
       style="opacity:0.99569;fill:#4b3120;fill-opacity:1;stroke:none;stroke-width:6e-08;stroke-dasharray:none;stroke-opacity:1"
       d="M 45.386172,793.65339 29.39457,754.0049 l 47.851625,2.05078 -14.355487,37.51478 z"
       id="path134"
       sodipodi:nodetypes="ccccc" />
    <path
       style="opacity:0.99569;fill:#66432c;fill-opacity:1;stroke:none;stroke-width:6e-08;stroke-dasharray:none;stroke-opacity:1"
       d="m 35.528019,793.94248 -1.69181,-14.25955 41.570199,-1.9335 -5.317118,16.43473 z"
       id="path138"
       sodipodi:nodetypes="ccccc" />
  </g>
</svg>
