<?xml version="1.0" encoding="UTF-8" standalone="no"?>
<!-- Created with Inkscape (http://www.inkscape.org/) -->

<svg
   width="148mm"
   height="210mm"
   viewBox="0 0 559.37006 793.70081"
   version="1.1"
   id="svg1"
   sodipodi:docname="paysagepoisson.svg"
   inkscape:version="1.3.2 (091e20e, 2023-11-25, custom)"
   xmlns:inkscape="http://www.inkscape.org/namespaces/inkscape"
   xmlns:sodipodi="http://sodipodi.sourceforge.net/DTD/sodipodi-0.dtd"
   xmlns="http://www.w3.org/2000/svg"
   xmlns:svg="http://www.w3.org/2000/svg">
  <sodipodi:namedview
     id="namedview1"
     pagecolor="#ffffff"
     bordercolor="#000000"
     borderopacity="0.25"
     inkscape:showpageshadow="2"
     inkscape:pageopacity="0.0"
     inkscape:pagecheckerboard="0"
     inkscape:deskcolor="#d1d1d1"
     inkscape:document-units="mm"
     inkscape:zoom="0.73142761"
     inkscape:cx="115.5275"
     inkscape:cy="602.24689"
     inkscape:window-width="1920"
     inkscape:window-height="1017"
     inkscape:window-x="-8"
     inkscape:window-y="-8"
     inkscape:window-maximized="1"
     inkscape:current-layer="layer1" />
  <defs
     id="defs1" />
  <g
     inkscape:label="Calque 1"
     inkscape:groupmode="layer"
     id="layer1">
    <rect
       style="opacity:0.99569;fill:#c2a895;fill-opacity:1;stroke:none;stroke-width:0;stroke-dasharray:none"
       id="rect1"
       width="559.37006"
       height="793.70081"
       x="0"
       y="-1.110223e-16" />
    <path
       style="opacity:0.99569;fill:#8d5a58;fill-opacity:0.992161;stroke:none;stroke-width:0;stroke-dasharray:none"
       d="m 81.690276,615.81901 c 0.205386,-15.52342 3.074488,-43.78546 18.851604,-59.45506 11.25043,-10.46386 19.40081,-12.60237 27.06897,-13.53448 4.56879,-0.27571 11.33797,-1.08522 14.25954,5.80049 2.15275,6.73108 -11.01809,18.90556 -21.51016,26.5856 10.68926,-2.62907 20.23181,-7.55158 27.06897,-17.88486 4.51627,-5.6889 11.94916,-4.08844 13.05111,4.83374 0.65425,18.04924 -13.29876,38.96337 -27.06897,56.07144 l -43.987072,8.70073 z"
       id="path22"
       sodipodi:nodetypes="cccccccccc" />
    <path
       id="path9"
       style="opacity:0.99569;fill:#405f68;fill-opacity:0.992161;stroke:none;stroke-width:0;stroke-dasharray:none"
       d="m 122.77734,580.04883 c -9.34865,5.67989 -10.36179,16.84339 -12.08489,23.20147 -1.87753,7.96777 -12.159115,8.65571 -20.300728,4.83563 -8.360338,-3.59735 -23.237825,-22.47137 -3.383909,-23.20311 -4.056775,-2.65389 -10.363181,-3.87601 -16.918825,0.9667 -8.290763,7.19387 -1.534806,13.17903 -9.184402,16.43588 -6.444646,3.01435 -15.789539,3.87719 -22.234184,0.48157 -19.180754,-8.85105 -14.761529,-23.58789 0.965933,-19.81779 -11.95385,-9.05397 -21.567564,-3.20006 -25.134382,-0.96675 C 8.0389481,584.99343 4.2403596,592.60235 0,598.80274 v 194.89844 h 241.98438 l 11.30468,-173.04883 c -5.72663,-15.00318 -45.31402,-32.72393 -15.46875,-38.66992 -4.83403,-3.22288 -9.02333,-2.88031 -12.91016,-1.36719 -6.83775,2.09092 -9.87883,14.36025 -11.2578,23.12033 -1.97098,8.56454 -12.05441,7.07861 -19.3358,1.45012 -6.55207,-3.49134 -23.85999,-22.8429 -1.93378,-21.75314 -5.13607,-3.3131 -13.63147,-5.69125 -19.10934,-0.82513 -3.79287,2.82176 -7.776,11.20584 -11.63577,19.13596 -3.9112,6.54751 -13.36403,8.21251 -20.97636,3.70103 -6.60835,-2.30427 -23.0731,-25.45429 -2.41716,-23.46198 -4.38006,-4.52221 -9.81057,-3.79223 -15.4668,-1.9336 z"
       sodipodi:nodetypes="ccccccccccccccccccccccc" />
    <g
       id="g19">
      <path
         style="opacity:0.99569;fill:#534435;fill-opacity:0.992161;stroke:none;stroke-width:0;stroke-dasharray:none"
         d="m 233.78937,166.1135 c 8.20314,-4.78517 32.81254,-12.9883 32.81254,-12.9883 3.00573,-9.55293 1.32353,-20.98103 -4.78516,-34.17973 l 6.83595,-2.05078 c 6.69622,9.90298 7.35214,24.33619 6.83594,39.64849 l -32.12894,15.72267 z"
         id="path11"
         sodipodi:nodetypes="ccccccc" />
      <g
         id="g18">
        <g
           id="g17">
          <g
             id="g16">
            <path
               style="opacity:0.99569;fill:#534435;fill-opacity:0.992161;stroke:none;stroke-width:0;stroke-dasharray:none"
               d="m 381.46535,345.19804 c 1.73541,-32.80343 -13.68047,-66.26998 -27.63528,-93.84334 -8.22599,-11.26217 -42.05615,-47.81481 -59.93843,-46.40395 -22.99835,9.13347 -78.06514,-36.2368 -75.40641,-56.07143 l -4.10157,-29.00247 14.1008,-2.40263 c -6.16495,10.12708 -6.1516,22.16303 -1.2499,32.53771 7.97294,12.40187 18.7166,30.27249 41.85335,37.8892 7.09536,4.3395 19.21859,7.59904 20.93674,-6.15235 l 11.83556,-29.80335 -1.36719,-44.47044 8.8666,2.73438 1.9335,36.73645 c -1.79691,6.98562 -2.64173,11.74968 -9.66749,30.93596 -2.7238,19.37671 11.85902,12.93402 23.20198,-1.93349 5.90301,-8.64948 17.50038,-16.84436 16.38614,-29.00247 l -0.11728,-43.5724 6.93311,-1.36719 1.9335,46.87309 c -0.70929,19.28314 -11.86675,30.20775 -21.26848,42.53695 26.65669,3.68694 50.84583,0.1807 72.45758,-12.1673 13.7462,-7.88124 25.67763,-27.62343 16.71789,-48.45472 l 11.36641,-1.24991 c 0,0 -2.45862,48.86253 -19.33498,59.93843 -19.33497,12.68948 -90.88329,18.82251 -81.2069,17.40148 11.05218,-1.62307 48.44304,50.27094 46.40394,50.27094 18.87555,31.41 19.77217,52.54633 27.06897,77.3399 z"
               id="path10"
               sodipodi:nodetypes="ccccccccccccccccccccccccsccc" />
          </g>
          <path
             style="opacity:0.99569;fill:#534435;fill-opacity:0.992161;stroke:none;stroke-width:0;stroke-dasharray:none"
             d="m 218.75029,146.97285 c -2.73438,0 -22.55862,-0.68359 -22.55862,-0.68359 -8.95247,-17.54648 -7.76535,-26.50302 -8.20314,-32.12895 l 5.46876,5.46875 6.15235,21.19144 21.87503,0.68359 z"
             id="path14"
             sodipodi:nodetypes="ccccccc" />
        </g>
        <path
           style="opacity:0.99569;fill:#534435;fill-opacity:0.992161;stroke:none;stroke-width:0;stroke-dasharray:none"
           d="m 424.51227,140.8205 c 6.01854,3.70013 10.09687,1.57963 14.35549,0 7.47379,-6.63535 1.24326,-21.46087 -1.36718,-28.71098 l 6.83594,1.36719 c 6.03153,11.57278 4.33864,20.05579 1.36719,28.02738 -7.06381,4.77539 -14.12762,6.61157 -21.19143,4.10157 z"
           id="path15"
           sodipodi:nodetypes="ccccccc" />
      </g>
    </g>
    <path
       id="path1"
       style="opacity:0.99569;fill:#885a39;fill-opacity:1;stroke:none;stroke-width:0;stroke-dasharray:none"
       d="M 559.36914,318.29688 C 513.72149,289.25511 432.02447,262.3498 383.79883,339.32813 345.49002,402.6569 280.46776,515.36474 271.65625,535.57813 260.03579,557.55624 195.06718,659.41695 219.26953,793.70118 H 559.36914 Z"
       sodipodi:nodetypes="cccccc" />
    <path
       id="path2"
       style="opacity:0.99569;fill:#6d482e;fill-opacity:1;stroke:none;stroke-width:0;stroke-dasharray:none"
       d="m 503.67578,352.86328 c -23.84617,1.19141 -40.92508,1.42711 -59.9375,11.60157 -21.44675,12.42357 -60.92266,79.61276 -84.10742,112.14257 -42.76692,56.8086 -76.45963,122.69141 -98.60937,200.11719 -12.7515,40.50621 -9.64289,79.02991 -1.91797,116.97657 H 559.36914 V 366.78711 c -17.17338,-8.81449 -33.57412,-13.17968 -55.69336,-13.92383 z"
       sodipodi:nodetypes="cccccccc" />
    <path
       id="path3"
       style="opacity:0.99569;fill:#5a3b26;fill-opacity:1;stroke:none;stroke-width:0;stroke-dasharray:none"
       d="m 559.36914,414.81446 c -18.06177,-14.16342 -52.90623,-3.38889 -67.29492,5.7207 -13.68739,9.48339 -63.72948,61.01484 -77.33984,76.37305 -35.93273,34.12963 -61.66976,76.75567 -82.17188,123.74414 -23.82259,38.44795 -27.24469,158.29112 -26.24023,173.04883 h 253.04687 z"
       sodipodi:nodetypes="ccccccc" />
    <path
       id="path4"
       style="opacity:0.99569;fill:#4b3120;fill-opacity:1;stroke:none;stroke-width:0;stroke-dasharray:none"
       d="m 559.36914,468.47657 c -20.07363,2.15999 -38.18012,9.23784 -55.69336,17.79882 -31.7127,20.62115 -57.15337,46.46898 -81.20703,73.47266 -22.52216,35.33241 -46.89036,69.92641 -57.03711,110.20899 -3.57714,14.9094 -14.25435,89.89724 -9.98047,123.74414 h 203.91797 z"
       sodipodi:nodetypes="ccccccc" />
    <path
       id="path5"
       style="opacity:0.99569;fill:#3e291b;fill-opacity:1;stroke:none;stroke-width:0;stroke-dasharray:none"
       d="m 559.36914,527.75586 c -10.70221,2.92969 -21.90724,5.85938 -34.42382,8.78907 -28.79754,4.38082 -53.87686,26.26034 -71.54102,50.27148 -17.75881,22.30874 -38.43121,48.83182 -50.26953,87.97461 -11.09943,49.13853 -9.85908,87.99389 0.9082,118.91016 h 155.32617 z"
       sodipodi:nodetypes="ccccccc" />
    <path
       id="path6"
       style="opacity:0.99569;fill:#312015;fill-opacity:1;stroke:none;stroke-width:0;stroke-dasharray:none"
       d="m 559.36914,579.16407 c -24.44466,6.57029 -48.88932,11.71509 -73.33398,39.48828 C 457.9967,647.01214 451.70235,673.3952 442.96875,700 c -5.74547,36.09214 -2.74023,66.71509 6.08399,93.70118 h 110.3164 z"
       sodipodi:nodetypes="cccccc" />
    <path
       id="path7"
       style="opacity:0.99569;fill:#24170f;fill-opacity:1;stroke:none;stroke-width:0;stroke-dasharray:none"
       d="m 558.68555,632.88083 c -9.17774,0.76582 -25.87501,6.04874 -35.05275,17.2168 -19.17467,10.37965 -27.81955,33.8916 -40.33202,58.78909 -9.59194,21.20825 -6.43377,68.46089 5.3125,84.81446 h 70.75586 z"
       sodipodi:nodetypes="cccccc" />
    <path
       id="path8"
       style="opacity:0.99569;fill:#1a110b;fill-opacity:1;stroke:none;stroke-width:0;stroke-dasharray:none"
       d="m 558.9043,684.51368 c -10.53178,-3.96096 -15.72156,0.98143 -20.91602,5.91601 -12.95932,10.27562 -16.34347,27.73263 -22.55859,43.06641 -7.25238,24.45142 -4.12864,42.97362 1.25391,60.20508 h 42.68554 z"
       sodipodi:nodetypes="cccccc" />
    <path
       style="opacity:0.99569;fill:#534435;fill-opacity:0.992161;stroke:none;stroke-width:0;stroke-dasharray:none"
       d="m 347.94968,151.07442 h 20.50784 c 4.84899,-19.35396 -0.57658,-35.94877 -4.78516,-44.43366 l 11.6211,-2.05078 c 2.50974,15.20918 3.36381,36.98462 -1.36719,54.00398 0,0 -30.07816,4.10157 -30.07816,0 0,-4.10157 4.10157,-7.51954 4.10157,-7.51954 z"
       id="path12"
       sodipodi:nodetypes="cccccsc" />
    <path
       style="opacity:0.99569;fill:#534435;fill-opacity:0.992161;stroke:none;stroke-width:0;stroke-dasharray:none"
       d="m 418.35993,159.96115 -22.55863,2.73438 c -7.47048,-21.59811 -11.76827,-40.02352 -10.25391,-52.63679 l 6.15234,-6.15235 c -2.67348,0.41515 4.04125,40.82803 9.57033,52.63679 l 21.19143,-2.05079 z"
       id="path13"
       sodipodi:nodetypes="ccccccc" />
    <path
       style="opacity:0.99569;fill:#534435;fill-opacity:0.992161;stroke:none;stroke-width:0;stroke-dasharray:none"
       d="m 302.83243,130.56658 -14.35549,-0.6836 -3.41797,-23.92581 -3.41797,1.36719 4.78516,25.9766 17.08987,2.73438 z"
       id="path16" />
    <path
       style="opacity:0.99569;fill:#455e4e;fill-opacity:0.992161;stroke:none;stroke-width:0;stroke-dasharray:none"
       d="M 241.8162,82.373658 C 199.91979,76.690495 171.75723,71.05848 148.43606,72.075462 c -44.42017,2.324827 -38.85727,45.475058 12.30567,45.044428 30.24478,2.03805 51.60899,6.79612 106.00254,1.43772 l 40.01385,-7.06177 c 17.42076,-1.85094 36.7771,-1.14175 54.04122,0.42438 18.53581,2.46342 42.74082,2.9596 56.52233,6.01261 24.87244,4.7775 62.74004,9.70326 85.4849,1.18148 15.39761,-9.11505 30.54689,-18.19869 -1.66136,-38.397649 C 483.91005,71.872038 432.45676,63.963276 380.45802,69.178275 324.33554,74.806847 263.28713,85.685585 241.8162,82.373658 Z"
       id="path19"
       sodipodi:nodetypes="cccccccccsc" />
    <path
       style="opacity:0.99569;fill:#2e4235;fill-opacity:0.992161;stroke:none;stroke-width:0;stroke-dasharray:none"
       d="m 198.18351,100.0585 c -9.66749,0 -56.07143,-5.800492 -56.07143,-5.800492 -46.716841,-1.03822 -34.34154,26.535242 -20.30173,30.452592 45.03305,11.17345 78.3868,7.33064 115.04311,7.73399 16.14814,2.68631 34.36058,0.23735 51.72106,-4.35037 21.08128,-0.74167 36.1361,-0.57093 54.13793,-0.96675 l 72.98954,6.28387 50.75432,8.21736 c 6.41038,1.42744 15.50338,3.24203 25.13547,-0.96674 11.07432,-4.36491 14.11381,-20.55125 -3.38362,-24.6521 0,-4.15123 -98.47849,-23.9957 -123.26048,-24.652095 -33.44603,-1.835369 -70.41467,14.101105 -96.19151,16.918105 -23.04633,1.51697 -48.1611,-10.354527 -70.57266,-8.21737 z"
       id="path20"
       sodipodi:nodetypes="ccccccccccccc" />
    <path
       style="opacity:0.99569;fill:#1f2d24;fill-opacity:0.992161;stroke:none;stroke-width:0;stroke-dasharray:none"
       d="m 209.78449,125.19397 c -21.76076,0.20971 -30.91615,-3.18212 -44.47044,-5.31712 -15.98386,-1.65657 -46.7889,-4.74009 -51.72106,9.66749 -2.61087,8.37849 4.49043,10.47312 15.95134,12.56773 23.70074,6.50521 82.52686,-3.86127 105.37564,-3.86699 19.94719,2.56723 35.24626,1.6516 45.43719,0 5.12293,0.25615 9.25945,-18.38862 -16.43473,-19.33497 -6.76265,-0.24908 -54.13794,6.28386 -54.13794,6.28386 z"
       id="path21"
       sodipodi:nodetypes="ccccccsc" />
    <ellipse
       style="opacity:0.99569;fill:#fcfafa;fill-opacity:0.99216098;stroke:none;stroke-width:0;stroke-dasharray:none"
       id="path23"
       cx="119.15179"
       cy="552.01361"
       rx="4.833744"
       ry="4.5920568" />
    <ellipse
       style="opacity:0.99569;fill:#1c1212;fill-opacity:0.992161;stroke:none;stroke-width:0;stroke-dasharray:none"
       id="path24"
       cx="119.99769"
       cy="552.1344"
       rx="4.229526"
       ry="4.4712133" />
  </g>
</svg>
