<?xml version="1.0" encoding="UTF-8" standalone="no"?>
<!-- Created with Inkscape (http://www.inkscape.org/) -->

<svg
   width="148mm"
   height="210mm"
   viewBox="0 0 559.37006 793.70081"
   version="1.1"
   id="svg1"
   sodipodi:docname="plante1.svg"
   inkscape:version="1.3.2 (091e20e, 2023-11-25, custom)"
   xmlns:inkscape="http://www.inkscape.org/namespaces/inkscape"
   xmlns:sodipodi="http://sodipodi.sourceforge.net/DTD/sodipodi-0.dtd"
   xmlns="http://www.w3.org/2000/svg"
   xmlns:svg="http://www.w3.org/2000/svg">
  <sodipodi:namedview
     id="namedview1"
     pagecolor="#ffffff"
     bordercolor="#000000"
     borderopacity="0.25"
     inkscape:showpageshadow="2"
     inkscape:pageopacity="0.0"
     inkscape:pagecheckerboard="0"
     inkscape:deskcolor="#d1d1d1"
     inkscape:document-units="mm"
     inkscape:zoom="1.0343948"
     inkscape:cx="355.28019"
     inkscape:cy="370.74817"
     inkscape:window-width="1920"
     inkscape:window-height="1017"
     inkscape:window-x="-8"
     inkscape:window-y="-8"
     inkscape:window-maximized="1"
     inkscape:current-layer="layer1"
     showgrid="false" />
  <defs
     id="defs1" />
  <g
     inkscape:label="Calque 1"
     inkscape:groupmode="layer"
     id="layer1">
    <rect
       style="fill:#c3dbd8;fill-opacity:0.78924733;stroke:none;stroke-width:0;stroke-dasharray:none"
       id="rect1"
       width="559.37012"
       height="793.70081"
       x="0.96674883"
       y="0.96674883" />
    <path
       style="fill:#75995e;fill-opacity:0.830907;stroke:#000000;stroke-width:1.13386;stroke-dasharray:none;stroke-opacity:1"
       d="m 222.35223,553.31901 1.9335,241.04421 z"
       id="path12" />
    <path
       style="fill:#75995e;fill-opacity:0.830907;stroke:#000000;stroke-width:1.13386;stroke-dasharray:none;stroke-opacity:1"
       d="m 442.77096,384.10415 1.9335,408.80837 z"
       id="path16" />
    <path
       style="fill:#8fae7a;fill-opacity:1;stroke:none;stroke-width:0;stroke-dasharray:none"
       d="m 344.28333,293.24401 c 8.36197,-27.10941 6.17454,-57.3216 73.82822,-66.99228 56.93148,-4.31246 92.51082,-0.40596 120.31266,28.71098 19.3817,29.27735 18.43296,49.11091 6.83594,76.5626 -12.72646,22.56461 -26.90146,44.1264 -62.89071,50.586 -31.29193,2.02749 -78.81048,7.94034 -106.64076,-10.93751 -22.7007,-17.39013 -35.68439,-46.57296 -31.44535,-77.92979 z"
       id="path4"
       sodipodi:nodetypes="ccccccc" />
    <path
       style="fill:#75995e;fill-opacity:0.830907;stroke:#000000;stroke-width:1.13386;stroke-dasharray:none;stroke-opacity:1"
       d="m 238.07491,332.5238 1.9335,461.88209 z"
       id="path17" />
    <path
       style="fill:#7a9f62;fill-opacity:1;stroke:none;stroke-width:0;stroke-dasharray:none"
       d="m 132.56533,242.97307 c 8.36197,-27.10941 6.17454,-57.3216 73.82822,-66.99228 56.93148,-4.31246 92.51082,-0.40596 120.31266,28.71098 19.3817,29.27735 18.43296,49.11091 6.83594,76.5626 -12.72646,22.56461 -26.90146,44.1264 -62.89071,50.586 -31.29193,2.02749 -78.81048,7.94034 -106.64076,-10.93751 -22.7007,-17.39013 -35.68439,-46.57296 -31.44535,-77.92979 z"
       id="path2"
       sodipodi:nodetypes="ccccccc" />
    <path
       style="fill:#75995e;fill-opacity:0.83090705;stroke:none;stroke-width:0;stroke-dasharray:none"
       d="m 23.322714,178.20089 c 8.36197,-27.10941 6.17454,-57.3216 73.82822,-66.99228 56.931476,-4.31246 92.510816,-0.40596 120.312656,28.71098 19.3817,29.27735 18.43296,49.11091 6.83594,76.5626 -12.72646,22.56461 -26.90146,44.1264 -62.89071,50.586 -31.29193,2.02749 -78.810476,7.94034 -106.640756,-10.93751 -22.7007,-17.39013 -35.68439,-46.57296 -31.44535,-77.92979 z"
       id="path5"
       sodipodi:nodetypes="ccccccc" />
    <path
       style="fill:#75995e;fill-opacity:0.830907;stroke:#000000;stroke-width:1.13386;stroke-dasharray:none;stroke-opacity:1"
       d="m 127.69682,268.93682 3.25578,526.1654 z"
       id="path18" />
    <path
       style="fill:#648350;fill-opacity:1;stroke:none;stroke-width:0;stroke-dasharray:none"
       d="M 106.34236,466.93969 C 94.118965,466.32778 1.8428548,438.48101 -1.9334982,392.50003 c -3.679925,-31.16468 -2.14829,-58.27345 33.8362062,-81.2069 27.038757,-15.23361 37.378607,-17.86739 51.237687,-21.26848 44.689715,-12.31009 72.198245,2.09659 93.774625,15.46798 33.7089,21.44883 41.59333,44.61929 36.73646,68.63917 -6.31709,32.57509 -18.84332,76.97858 -52.20443,87.00739 -7.84683,3.48156 -20.60178,5.29199 -31.76531,6.48755 -10.52904,0.73331 -14.98111,0.4536 -23.33938,-0.68705 z"
       id="path1"
       sodipodi:nodetypes="ccccccccc" />
    <path
       style="fill:#75995e;fill-opacity:0.830907;stroke:#000000;stroke-width:1.13386;stroke-dasharray:none;stroke-opacity:1"
       d="m 111.65949,467.58065 1.9335,326.68143 z"
       id="path15" />
    <path
       style="fill:#75995e;fill-opacity:0.830907;stroke:#000000;stroke-width:1.13386;stroke-dasharray:none;stroke-opacity:1"
       d="M 302.59238,486.03892 304.52588,794.42 Z"
       id="path14" />
    <path
       style="fill:#648350;fill-opacity:0.71220607;stroke:none;stroke-width:0;stroke-dasharray:none"
       d="m 295.82515,486.27465 c -12.2234,-0.61191 -104.49952,-28.45868 -108.27587,-74.43966 -3.67992,-31.16468 -2.14829,-58.27345 33.83621,-81.2069 27.03876,-15.23361 37.37861,-17.86739 51.23769,-21.26848 44.68972,-12.31009 72.19825,2.09659 93.77463,15.46798 33.7089,21.44883 41.59333,44.61929 36.73646,68.63917 -6.31709,32.57509 -18.84332,76.97858 -52.20443,87.00739 -7.84683,3.48156 -20.60178,5.29199 -31.76531,6.48755 -10.52904,0.73331 -14.98111,0.4536 -23.33938,-0.68705 z"
       id="path7"
       sodipodi:nodetypes="ccccccccc" />
    <path
       style="fill:#49603b;fill-opacity:1;stroke:none;stroke-width:0;stroke-dasharray:none"
       d="m 419.96168,406.70691 c -82.63496,30.23088 -70.86681,84.67443 -62.8907,106.64076 31.13934,63.6347 65.33023,61.97503 92.96887,66.99228 32.95531,0.0908 54.19793,-1.87588 79.29698,-32.81254 10.00024,-19.33843 22.54817,-37.14825 15.03908,-66.99228 -3.7062,-18.58884 -10.03503,-36.30348 -24.6094,-51.2696 -22.45858,-20.39316 -57.72644,-32.48697 -99.80483,-22.55862 z"
       id="path3"
       sodipodi:nodetypes="ccccccc" />
    <path
       style="fill:#75995e;fill-opacity:0.530795;stroke:#000000;stroke-width:1.13386;stroke-dasharray:none;stroke-opacity:1"
       d="m 291.53946,398.17 c -2.76667,7.40049 -1.14458,11.54602 1.95671,14.5945 4.36322,4.38926 9.04346,4.51502 13.89299,2.36386 9.09175,-3.84781 11.26933,-8.91629 10.43921,-17.66528 0.20638,-4.6189 -2.0804,-8.63052 -10.29142,-9.89091 -8.87908,-0.18123 -10.96992,3.17427 -15.99749,10.59783 z"
       id="path24"
       sodipodi:nodetypes="cccccc" />
    <path
       style="fill:#4b633c;fill-opacity:0.6987682;stroke:none;stroke-width:0;stroke-dasharray:none"
       d="m 209.78449,552.98033 c -12.2234,-0.61191 -104.49951,-28.45868 -108.27586,-74.43966 -3.679927,-31.16468 -2.148292,-58.27345 33.8362,-81.2069 27.03876,-15.23361 37.37861,-17.86739 51.23769,-21.26848 44.68972,-12.31009 72.19825,2.09659 93.77463,15.46798 33.7089,21.44883 41.59333,44.61929 36.73646,68.63917 -6.31709,32.57509 -18.84332,76.97858 -52.20443,87.00739 -7.84683,3.48156 -20.60178,5.29199 -31.76531,6.48755 -10.52904,0.73331 -14.98111,0.4536 -23.33938,-0.68705 z"
       id="path6"
       sodipodi:nodetypes="ccccccccc" />
    <path
       style="fill:#75995e;fill-opacity:0.830907;stroke:#000000;stroke-width:1.13386;stroke-dasharray:none;stroke-opacity:1"
       d="m 359.63056,721.21093 1.9335,72.47354 z"
       id="path11" />
    <path
       style="fill:#49603b;fill-opacity:0.919373;stroke:none;stroke-width:0;stroke-dasharray:none"
       d="m 319.41981,548.81899 c -82.63496,30.23088 -70.86681,84.67443 -62.8907,106.64076 31.13934,63.6347 65.33023,61.97503 92.96887,66.99228 32.95531,0.0908 54.19793,-1.87588 79.29698,-32.81254 10.00024,-19.33843 22.54817,-37.14825 15.03908,-66.99228 -3.7062,-18.58884 -10.03503,-36.30348 -24.6094,-51.2696 -22.45858,-20.39316 -57.72644,-32.48697 -99.80483,-22.55862 z"
       id="path8"
       sodipodi:nodetypes="ccccccc" />
    <path
       style="fill:#75995e;fill-opacity:0.830907;stroke:#000000;stroke-width:1.13386;stroke-dasharray:none;stroke-opacity:1"
       d="m 122.7771,697.02411 1.9335,97.16181 z"
       id="path10" />
    <path
       style="fill:#49603b;fill-opacity:1;stroke:none;stroke-width:0;stroke-dasharray:none"
       d="m 92.233832,527.55051 c -82.6349582,30.23088 -70.866808,84.67443 -62.890698,106.64076 31.139338,63.6347 65.330228,61.97503 92.968866,66.99228 32.95531,0.0908 54.19793,-1.87588 79.29698,-32.81254 10.00024,-19.33843 22.54817,-37.14825 15.03908,-66.99228 -3.7062,-18.58884 -10.03503,-36.30348 -24.6094,-51.2696 -22.45858,-20.39316 -57.72644,-32.48697 -99.804828,-22.55862 z"
       id="path9"
       sodipodi:nodetypes="ccccccc" />
    <path
       style="fill:#75995e;fill-opacity:0.830907;stroke:#000000;stroke-width:1.13386;stroke-dasharray:none;stroke-opacity:1"
       d="m 463.07269,579.91601 1.9335,212.46795 z"
       id="path13" />
    <path
       style="fill:#75995e;fill-opacity:0.5307951;stroke:#000000;stroke-width:1.13386;stroke-dasharray:none;stroke-opacity:1"
       d="m 114.16031,600.1961 c -6.04663,5.08527 -6.67139,9.4928 -5.46876,13.6719 1.64268,5.96699 5.65685,8.37673 10.93751,8.88673 9.80903,1.11735 14.1965,-2.22651 17.77347,-10.25392 2.44981,-3.92113 2.42989,-8.53871 -4.10157,-13.67189 -7.64364,-4.52168 -11.11368,-2.627 -19.14065,1.36718 z"
       id="path19"
       sodipodi:nodetypes="cccccc" />
    <path
       style="fill:#75995e;fill-opacity:0.530795;stroke:#000000;stroke-width:1.13386;stroke-dasharray:none;stroke-opacity:1"
       d="m 98.444808,367.81679 c -2.75016,7.40664 -1.118822,11.54855 1.989252,14.5901 4.37301,4.37952 9.05351,4.49484 13.89824,2.33286 9.08314,-3.86808 11.24942,-8.94139 10.39978,-17.68852 0.19607,-4.61934 -2.09964,-8.62585 -10.31346,-9.86792 -8.87946,-0.16143 -10.96281,3.19873 -15.973812,10.63348 z"
       id="path20"
       sodipodi:nodetypes="cccccc" />
    <path
       style="fill:#75995e;fill-opacity:0.530795;stroke:#000000;stroke-width:1.13386;stroke-dasharray:none;stroke-opacity:1"
       d="m 133.24521,170.78577 c -6.86087,-3.91793 -11.21292,-2.9818 -14.71939,-0.40967 -5.03231,3.60267 -5.90717,8.20213 -4.56176,13.33392 2.33962,9.59124 6.99316,12.55363 15.76202,13.13765 4.52599,0.9446 8.85248,-0.66908 11.41364,-8.57161 1.60314,-8.73503 -1.37353,-11.33703 -7.89451,-17.49029 z"
       id="path21"
       sodipodi:nodetypes="cccccc" />
    <path
       style="fill:#75995e;fill-opacity:0.530795;stroke:#000000;stroke-width:1.13386;stroke-dasharray:none;stroke-opacity:1"
       d="m 220.17701,445.15912 c -7.40664,-2.75016 -11.54855,-1.11882 -14.5901,1.98926 -4.37952,4.37301 -4.49484,9.05351 -2.33286,13.89824 3.86808,9.08314 8.94139,11.24942 17.68852,10.39978 4.61934,0.19607 8.62585,-2.09964 9.86792,-10.31346 0.16143,-8.87946 -3.19873,-10.96281 -10.63348,-15.97382 z"
       id="path22"
       sodipodi:nodetypes="cccccc"
       inkscape:transform-center-x="1.9334513"
       inkscape:transform-center-y="-7.7340399" />
    <path
       style="fill:#75995e;fill-opacity:0.530795;stroke:#000000;stroke-width:1.13386;stroke-dasharray:none;stroke-opacity:1"
       d="m 232.57863,267.02335 c -6.55582,-4.40942 -7.64839,-8.72485 -6.89961,-13.0086 0.9951,-6.10845 4.72852,-8.93369 9.92435,-10.00552 9.63327,-2.16001 14.3532,0.69542 18.76819,8.29424 2.85511,3.63663 3.32916,8.22985 -2.61585,14.03213 -7.1162,5.31323 -10.76898,3.80054 -19.17708,0.68775 z"
       id="path23"
       sodipodi:nodetypes="cccccc" />
    <path
       style="fill:#75995e;fill-opacity:0.530795;stroke:#000000;stroke-width:1.13386;stroke-dasharray:none;stroke-opacity:1"
       d="m 462.82855,297.24413 c 2.75016,7.40664 1.11882,11.54855 -1.98925,14.5901 -4.37301,4.37952 -9.05351,4.49484 -13.89824,2.33286 -9.08314,-3.86808 -11.24942,-8.94139 -10.39978,-17.68852 -0.19607,-4.61934 2.09964,-8.62585 10.31346,-9.86792 8.87946,-0.16143 10.96281,3.19873 15.97381,10.63348 z"
       id="path25"
       sodipodi:nodetypes="cccccc" />
    <path
       style="fill:#75995e;fill-opacity:0.530795;stroke:#000000;stroke-width:1.13386;stroke-dasharray:none;stroke-opacity:1"
       d="m 460.65882,484.18624 c 6.04663,5.08527 6.67139,9.4928 5.46876,13.6719 -1.64268,5.96699 -5.65685,8.37673 -10.93751,8.88673 -9.80903,1.11735 -14.1965,-2.22651 -17.77347,-10.25392 -2.44981,-3.92113 -2.42989,-8.53871 4.10157,-13.67189 7.64364,-4.52168 11.11368,-2.627 19.14065,1.36718 z"
       id="path26"
       sodipodi:nodetypes="cccccc" />
    <path
       style="fill:#75995e;fill-opacity:0.530795;stroke:#000000;stroke-width:1.13386;stroke-dasharray:none;stroke-opacity:1"
       d="m 364.9263,635.84559 c 0.009,7.90074 -2.95859,11.21907 -6.92905,12.99294 -5.62111,2.5897 -10.05073,1.0735 -13.84404,-2.63544 -7.17622,-6.77993 -7.44718,-12.28973 -3.61471,-20.19834 1.41924,-4.4003 4.96271,-7.36108 13.09708,-5.67539 8.38361,2.93018 9.17135,6.80452 11.29072,15.51623 z"
       id="path27"
       sodipodi:nodetypes="cccccc" />
    <path
       style="fill:#283520;fill-opacity:1;stroke:none;stroke-width:0;stroke-dasharray:none;stroke-opacity:1"
       d="m 430.19636,96.217115 c -2.03071,1.68483 -2.31062,3.36966 -2.04393,5.054495 0.77129,1.87292 2.18471,3.08419 4.49664,3.36965 2.9573,0.21631 5.38955,-1.89756 4.49664,-5.054485 -1.33218,-3.0196 -3.71977,-4.87415 -6.94935,-3.36966 z"
       id="path28"
       sodipodi:nodetypes="ccccc" />
    <g
       id="g1"
       transform="translate(56.054761,-39.64849)">
      <path
         style="fill:#334328;fill-opacity:0.679731;stroke:none;stroke-width:0;stroke-dasharray:none;stroke-opacity:1"
         d="m 371.67009,146.40828 c -4.20189,0.9929 -31.3382,0.65974 -39.40623,-4.29551 -7.37246,-5.14845 -4.07865,-18.17544 6.09868,-15.26128 10.87412,2.1539 22.44685,12.93414 33.30755,19.55679 z"
         id="path30"
         sodipodi:nodetypes="cccc" />
      <path
         style="fill:#334328;fill-opacity:0.679731;stroke:none;stroke-width:0;stroke-dasharray:none;stroke-opacity:1"
         d="m 371.91041,146.40778 c 1.7837,3.93193 18.6405,25.2002 27.4948,28.55411 8.58185,2.68542 16.87555,-7.88653 8.34651,-14.15754 -8.35355,-7.28725 -23.96,-9.85248 -35.84131,-14.39657 z"
         id="path31"
         sodipodi:nodetypes="cccc" />
      <path
         style="fill:#334328;fill-opacity:0.679731;stroke:none;stroke-width:0;stroke-dasharray:none;stroke-opacity:1"
         d="m 370.36214,149.15071 c -2.54325,2.24289 -21.39727,12.29781 -28.75182,12.09805 -6.94392,-0.58997 -9.36167,-10.39225 -1.28603,-12.33152 8.28287,-2.70237 20.15482,-0.004 30.03785,0.23347 z"
         id="path32"
         sodipodi:nodetypes="cccc" />
      <path
         style="fill:#334328;fill-opacity:0.679731;stroke:none;stroke-width:0;stroke-dasharray:none;stroke-opacity:1"
         d="m 369.408,149.19091 c -0.28849,3.37868 2.85414,24.51394 7.39227,30.30486 4.60726,5.22869 13.92308,1.33694 10.67459,-6.30662 -2.75865,-8.26429 -11.99342,-16.19798 -18.06686,-23.99824 z"
         id="path33"
         sodipodi:nodetypes="cccc" />
      <path
         style="fill:#334328;fill-opacity:0.679731;stroke:none;stroke-width:0;stroke-dasharray:none;stroke-opacity:1"
         d="m 373.92627,142.87128 -34.86332,46.14264 c -1.60177,1.87153 0.88593,4.20224 2.73438,1.70899 l 33.32524,-47.33893 z"
         id="path34"
         sodipodi:nodetypes="ccccc" />
    </g>
  </g>
</svg>
