<?xml version="1.0" encoding="UTF-8" standalone="no"?>
<!-- Created with Inkscape (http://www.inkscape.org/) -->

<svg
   width="148mm"
   height="210mm"
   viewBox="0 0 559.37006 793.70081"
   version="1.1"
   id="svg1"
   inkscape:version="1.3.2 (091e20e, 2023-11-25, custom)"
   sodipodi:docname="portrait-charlotte.svg"
   xmlns:inkscape="http://www.inkscape.org/namespaces/inkscape"
   xmlns:sodipodi="http://sodipodi.sourceforge.net/DTD/sodipodi-0.dtd"
   xmlns="http://www.w3.org/2000/svg"
   xmlns:svg="http://www.w3.org/2000/svg">
  <sodipodi:namedview
     id="namedview1"
     pagecolor="#ffffff"
     bordercolor="#000000"
     borderopacity="0.25"
     inkscape:showpageshadow="2"
     inkscape:pageopacity="0.0"
     inkscape:pagecheckerboard="0"
     inkscape:deskcolor="#d1d1d1"
     inkscape:document-units="mm"
     inkscape:zoom="1.4628552"
     inkscape:cx="349.65867"
     inkscape:cy="489.79557"
     inkscape:window-width="1920"
     inkscape:window-height="1017"
     inkscape:window-x="-8"
     inkscape:window-y="-8"
     inkscape:window-maximized="1"
     inkscape:current-layer="layer2"
     showgrid="false" />
  <defs
     id="defs1" />
  <g
     inkscape:label="Calque 1"
     inkscape:groupmode="layer"
     id="layer1"
     sodipodi:insensitive="true">
    <rect
       style="fill:#e7d8d8;fill-opacity:1;stroke:#000000;stroke-width:1.8e-07;stroke-dasharray:none"
       id="rect1"
       width="559.37006"
       height="793.70081"
       x="0"
       y="0" />
  </g>
  <g
     inkscape:groupmode="layer"
     id="layer2"
     inkscape:label="Calque 2">
    <path
       style="fill:#2a5461;fill-opacity:1;stroke:#000000;stroke-width:1.8e-07;stroke-dasharray:none"
       d="m 283.69178,597.65279 c -10.31232,40.86726 -10.70571,76.77504 -10.93751,112.60204 13.21616,-1.28242 26.43233,-6.62504 39.64849,-2.16542 -6.3162,-33.29408 -8.76609,-70.45447 -4.78517,-114.04567 z"
       id="path9"
       sodipodi:nodetypes="ccccc" />
    <path
       style="fill:#2a5461;fill-opacity:1;stroke:#000000;stroke-width:1.8e-07;stroke-dasharray:none"
       d="m 355.09209,584.51164 c 1.67527,35.71671 7.34954,77.21257 11.31467,120.9438 -14.86315,-2.37047 -30.76599,-8.89969 -41.98244,3.31663 3.52821,-44.94753 12.49254,-94.52565 4.95018,-130.81709 z"
       id="path10"
       sodipodi:nodetypes="ccccc" />
    <path
       style="fill:#e5bb9f;fill-opacity:1;stroke:#000000;stroke-width:1.8e-07;stroke-dasharray:none"
       d="m 386.04714,559.60427 0.78833,7.4684 -4.5701,3.669 c -2.72545,2.34197 0.41158,6.01744 3.51116,4.08357 l 2.99108,-2.2179 c 1.06227,3.38032 0.66504,6.83688 3.68046,9.89882 1.87836,1.94075 8.46403,2.28184 12.6434,0.18652 8.78377,-4.4037 -2.59597,-28.95341 -2.59597,-28.95341 z"
       id="path20"
       sodipodi:nodetypes="ccccccscc" />
    <path
       style="fill:#82b1c0;fill-opacity:1;stroke:#000000;stroke-width:1.8e-07;stroke-dasharray:none"
       d="m 339.66361,455.30839 c 35.1313,27.67893 43.29569,65.72974 63.5743,99.12123 0,0 -17.45207,11.88554 -20.50784,8.20313 -8.60596,-10.37074 -54.37842,-112.44229 -49.21881,-98.43763 z"
       id="path18"
       sodipodi:nodetypes="ccscc" />
    <path
       style="fill:#3d8d8d;fill-opacity:1;stroke:#000000;stroke-width:0.00000018;stroke-dasharray:none"
       d="m 271.38708,458.69201 c -25.14541,64.17052 -30.63152,93.93726 -42.38287,134.66815 31.20295,26.33175 94.61539,-10.04667 164.06271,0.68359 -13.8237,-43.96264 -24.76406,-85.61862 -56.05476,-143.55487 z"
       id="path8"
       sodipodi:nodetypes="ccccc" />
    <path
       style="fill:#803300;fill-opacity:1;stroke:#000000;stroke-width:1.8e-07;stroke-dasharray:none"
       d="m 155.85958,368.45752 c -16.74702,24.27118 -32.83511,49.48389 -27.34379,149.36543 7.51954,-13.44403 8.32917,-37.55557 21.87503,-41.35748 -11.95692,35.78945 -0.89663,54.95537 2.05078,79.98058 5.51964,-20.60298 7.51803,-56.69943 17.08987,-59.47274 -5.36939,29.81211 13.49393,33.96606 21.87503,49.21882 -13.73696,-48.07299 4.15036,-99.3084 6.83595,-149.02364 z"
       id="path24"
       sodipodi:nodetypes="cccccccc" />
    <path
       style="fill:#2a5461;fill-opacity:1;stroke:#000000;stroke-width:1.8e-07"
       d="m 133.98455,302.14884 c -1.43112,-14.51778 1.41268,-27.32559 22.55863,-32.81254 27.01856,-7.17249 28.06329,10.94935 35.54692,18.45705 l -28.71098,46.48444 z"
       id="path2"
       sodipodi:nodetypes="ccccc" />
    <path
       style="fill:#3d8d8d;fill-opacity:1;stroke:#000000;stroke-width:1.8e-07;stroke-dasharray:none"
       d="m 158.06343,373.16505 c -1.02702,3.38403 -41.71612,1.3027 -56.55481,-21.75185 -16.726918,-30.66968 9.97532,-59.64262 39.6367,-50.75431 33.68956,16.31467 12.12597,48.10021 16.91811,72.50616 z"
       id="path27"
       sodipodi:nodetypes="cccc" />
    <path
       style="fill:#803300;fill-opacity:1;stroke:none;stroke-width:0"
       d="m 439.55138,362.98877 c 12.68797,-5.54038 9.68157,105.14881 -7.15346,116.12817 -2.31504,-25.97121 -4.5129,-52.00752 -18.13954,-71.69451 z"
       id="path138"
       sodipodi:nodetypes="cccc" />
    <g
       id="g161"
       transform="translate(-51.721064,-80.723531)">
      <ellipse
         style="fill:#ffe6d5;fill-opacity:1;stroke:none;stroke-width:0"
         id="ellipse156"
         cx="337.01218"
         cy="545.85034"
         rx="7.5195413"
         ry="6.8359466" />
      <ellipse
         style="fill:#ffe6d5;fill-opacity:1;stroke:none;stroke-width:0"
         id="ellipse157"
         cx="347.60788"
         cy="548.24292"
         rx="7.5195413"
         ry="6.8359466" />
      <ellipse
         style="fill:#ffe6d5;fill-opacity:1;stroke:none;stroke-width:0"
         id="ellipse158"
         cx="331.5434"
         cy="554.05347"
         rx="7.5195413"
         ry="6.8359466" />
      <ellipse
         style="fill:#ffe6d5;fill-opacity:1;stroke:none;stroke-width:0"
         id="ellipse159"
         cx="349.31689"
         cy="558.15503"
         rx="7.5195413"
         ry="6.8359466" />
      <ellipse
         style="fill:#ffe6d5;fill-opacity:1;stroke:none;stroke-width:0"
         id="ellipse160"
         cx="339.06296"
         cy="562.94019"
         rx="7.5195413"
         ry="6.8359466" />
      <ellipse
         style="fill:#ffe270;fill-opacity:1;stroke:none;stroke-width:0"
         id="ellipse161"
         cx="341.11374"
         cy="553.71167"
         rx="7.5195413"
         ry="6.8359466" />
    </g>
    <g
       id="g185"
       transform="translate(-16.918105,-96.674887)">
      <ellipse
         style="fill:#ffe6d5;fill-opacity:1;stroke:none;stroke-width:0"
         id="ellipse180"
         cx="337.01218"
         cy="545.85034"
         rx="7.5195413"
         ry="6.8359466" />
      <ellipse
         style="fill:#ffe6d5;fill-opacity:1;stroke:none;stroke-width:0"
         id="ellipse181"
         cx="347.60788"
         cy="548.24292"
         rx="7.5195413"
         ry="6.8359466" />
      <ellipse
         style="fill:#ffe6d5;fill-opacity:1;stroke:none;stroke-width:0"
         id="ellipse182"
         cx="331.5434"
         cy="554.05347"
         rx="7.5195413"
         ry="6.8359466" />
      <ellipse
         style="fill:#ffe6d5;fill-opacity:1;stroke:none;stroke-width:0"
         id="ellipse183"
         cx="349.31689"
         cy="558.15503"
         rx="7.5195413"
         ry="6.8359466" />
      <ellipse
         style="fill:#ffe6d5;fill-opacity:1;stroke:none;stroke-width:0"
         id="ellipse184"
         cx="339.06296"
         cy="562.94019"
         rx="7.5195413"
         ry="6.8359466" />
      <ellipse
         style="fill:#ffe270;fill-opacity:1;stroke:none;stroke-width:0"
         id="ellipse185"
         cx="341.11374"
         cy="553.71167"
         rx="7.5195413"
         ry="6.8359466" />
    </g>
    <path
       style="display:inline;fill:#e5bb9f;fill-opacity:1;stroke:#000000;stroke-width:1.8e-07;stroke-dasharray:none"
       d="m 300.02139,255.07765 a 143.55487,107.32436 0 0 0 -141.3125,89.50586 13.776172,16.676416 0 0 0 -3.0625,-0.42188 13.776172,16.676416 0 0 0 -13.77734,16.67774 13.776172,16.676416 0 0 0 13.77734,16.67578 13.776172,16.676416 0 0 0 2.27539,-0.25195 143.55487,107.32436 0 0 0 142.09961,92.46289 143.55487,107.32436 0 0 0 142.31055,-94.3086 13.776172,16.676416 0 0 0 1.88867,0.16406 13.776172,16.676416 0 0 0 13.77539,-16.67578 13.776172,16.676416 0 0 0 -13.77539,-16.67578 13.776172,16.676416 0 0 0 -3.37304,0.54102 143.55487,107.32436 0 0 0 -140.82618,-87.69336 z"
       id="path1" />
    <ellipse
       style="fill:#000000;fill-opacity:1;stroke:#000000;stroke-width:1.8e-07;stroke-dasharray:none"
       id="path3"
       cx="225.58624"
       cy="337.01215"
       rx="10.937514"
       ry="13.671893" />
    <ellipse
       style="fill:#000000;fill-opacity:1;stroke:#000000;stroke-width:1.8e-07;stroke-dasharray:none"
       id="ellipse3"
       cx="370.5083"
       cy="339.74652"
       rx="10.937514"
       ry="13.671893" />
    <path
       id="path7"
       style="fill:#803300;fill-opacity:1;stroke:#000000;stroke-width:1.8e-07;stroke-dasharray:none"
       d="m 297.36328,245.41016 c -2.28551,0.0822 -4.56806,0.20532 -6.8457,0.36914 l -2.84901,-0.0102 c 3.90638,65.09574 20.01821,97.1704 46.60878,123.3715 -11.94454,-45.35982 -6.46578,-71.48586 1.36718,-95.70313 21.32667,45.67546 42.71953,52.04849 55.10219,47.89303 -2.31187,-6.26889 -26.30649,-22.49818 9.83922,-26.01803 10.99737,24.42675 23.49807,26.30371 35.7207,32.35156 -15.44636,-48.07038 -72.81673,-82.03341 -138.94336,-82.2539 z"
       sodipodi:nodetypes="cccccccccc" />
    <ellipse
       style="display:inline;fill:#c38052;fill-opacity:1;stroke:none;stroke-width:0.00000018;stroke-dasharray:none"
       id="path12"
       cx="226.94429"
       cy="466.698"
       rx="61.630238"
       ry="39.395016" />
    <path
       style="fill:#c38052;fill-opacity:1;stroke:#000000;stroke-width:1.8e-07;stroke-dasharray:none"
       d="m 184.35526,420.51807 c -14.25313,2.45094 -14.10494,24.83182 -6.05536,43.99714 l 25.61885,-3.07958 c 0.35796,-10.89303 0.37268,-35.77985 -19.56349,-40.91756 z"
       id="path14"
       sodipodi:nodetypes="cccc" />
    <path
       style="fill:none;stroke:#000000;stroke-width:1.88976;stroke-linecap:butt;stroke-dasharray:none;paint-order:normal"
       d="m 262.64246,383.73058 c -0.5943,56.75011 85.24489,57.29967 86.16776,-0.96674 -1.29692,57.8838 -86.33543,57.90726 -86.16776,0.96674 z"
       id="path5"
       sodipodi:nodetypes="ccc" />
    <path
       style="fill:#c38052;fill-opacity:1;stroke:#000000;stroke-width:1.8e-07;stroke-dasharray:none"
       d="m 267.99631,419.49267 c 14.25313,2.45094 14.10494,24.83182 6.05536,43.99714 l -25.61885,-3.07958 c -0.35796,-10.89303 -0.37268,-35.77985 19.56349,-40.91756 z"
       id="path16"
       sodipodi:nodetypes="cccc" />
    <g
       id="g155"
       transform="translate(-65.255548,-15.467982)">
      <ellipse
         style="fill:#ffe6d5;fill-opacity:1;stroke:none;stroke-width:0"
         id="ellipse150"
         cx="337.01218"
         cy="545.85034"
         rx="7.5195413"
         ry="6.8359466" />
      <ellipse
         style="fill:#ffe6d5;fill-opacity:1;stroke:none;stroke-width:0"
         id="ellipse151"
         cx="347.60788"
         cy="548.24292"
         rx="7.5195413"
         ry="6.8359466" />
      <ellipse
         style="fill:#ffe6d5;fill-opacity:1;stroke:none;stroke-width:0"
         id="ellipse152"
         cx="331.5434"
         cy="554.05347"
         rx="7.5195413"
         ry="6.8359466" />
      <ellipse
         style="fill:#ffe6d5;fill-opacity:1;stroke:none;stroke-width:0"
         id="ellipse153"
         cx="349.31689"
         cy="558.15503"
         rx="7.5195413"
         ry="6.8359466" />
      <ellipse
         style="fill:#ffe6d5;fill-opacity:1;stroke:none;stroke-width:0"
         id="ellipse154"
         cx="339.06296"
         cy="562.94019"
         rx="7.5195413"
         ry="6.8359466" />
      <ellipse
         style="fill:#ffe270;fill-opacity:1;stroke:none;stroke-width:0"
         id="ellipse155"
         cx="341.11374"
         cy="553.71167"
         rx="7.5195413"
         ry="6.8359466" />
    </g>
    <path
       style="fill:#b26d3e;fill-opacity:1;stroke:#000000;stroke-width:0;stroke-linecap:butt;stroke-dasharray:none;paint-order:normal"
       d="m 260.29175,518.74112 c 7.4001,13.6651 11.9052,29.97175 15.80991,46.82623 1.62176,10.06489 -7.65542,12.47784 -12.36198,2.73438 -8.53443,-16.29234 -13.47097,-32.58468 -13.63072,-48.87702 z"
       id="path34"
       sodipodi:nodetypes="ccccc" />
    <path
       style="fill:#b26d3e;fill-opacity:1;stroke:#000000;stroke-width:0;stroke-linecap:butt;stroke-dasharray:none;paint-order:normal"
       d="m 205.76199,522.60812 c -5.97821,13.6651 -8.78656,29.97175 -10.93751,46.82623 -0.57448,10.06489 8.95377,12.47784 12.6465,2.73438 6.83917,-16.29234 10.08044,-32.58468 8.54493,-48.87702 z"
       id="path33"
       sodipodi:nodetypes="ccccc" />
    <path
       style="fill:#b26d3e;fill-opacity:1;stroke:none;stroke-width:0"
       d="m 229.25941,599.10291 c -7.70109,5.52296 -4.57922,33.88651 -2.54145,36.4839 2.65464,4.79877 5.95044,3.52506 7.88984,-0.13565 2.16766,-4.04428 4.86479,-29.02379 -0.86826,-36.72143 z"
       id="path35"
       sodipodi:nodetypes="ccccc" />
    <path
       style="fill:#b26d3e;stroke:none;stroke-width:0"
       d="m 254.63273,597.31977 c 8.48609,4.21856 9.94623,32.71601 8.35066,35.60618 -1.85198,5.16194 -5.30921,4.4324 -7.80975,1.12947 -2.78729,-3.645 -9.44947,-27.87031 -5.02299,-36.38662 z"
       id="path36"
       sodipodi:nodetypes="ccccc" />
    <path
       style="fill:#b26d3e;fill-opacity:1;stroke:none;stroke-width:0"
       d="m 214.99053,596.77816 c -5.7736,27.4432 -19.04131,48.70172 -45.97174,52.63679 -7.89967,0.61448 -9.52669,7.51283 3.24707,5.46875 25.58403,-5.34868 44.16439,-20.12536 46.14264,-57.25105 z"
       id="path37"
       sodipodi:nodetypes="ccccc" />
    <path
       id="path95"
       style="fill:#482c19;fill-opacity:1;stroke:none;stroke-width:0"
       d="M 195.76758 562.46289 C 195.58312 563.7534 195.40989 565.05198 195.23633 566.35157 L 205.76172 567.89649 L 204.56641 563.11133 L 195.76758 562.46289 z " />
    <path
       id="path96"
       style="fill:#482c19;fill-opacity:1;stroke:none;stroke-width:0"
       d="M 275.02735 561.04883 L 266.77344 563.11133 L 266.43164 566.8711 L 276.08789 565.50782 C 275.74171 564.0142 275.38459 562.53234 275.02735 561.04883 z " />
    <path
       style="fill:#482c19;fill-opacity:1;stroke:none;stroke-width:0"
       d="m 208.91223,535.07242 c 0.21717,0.52366 -0.0288,1.34943 1.20843,1.57097 1.96328,0.17916 2.48331,-0.82456 2.65856,-1.45013 0.0722,-1.42581 -0.51651,-3.06494 -2.05434,-3.14193 -2.14159,0.17922 -2.10877,1.18532 -1.81265,3.02109 z"
       id="path104"
       sodipodi:nodetypes="ccccc" />
    <path
       style="fill:#482c19;fill-opacity:1;stroke:none;stroke-width:0"
       d="m 207.92547,539.32985 c -0.52366,0.21717 -1.34943,-0.0288 -1.57097,1.20843 -0.17916,1.96328 0.82456,2.48331 1.45013,2.65856 1.42581,0.0722 3.06494,-0.51651 3.14193,-2.05434 -0.17922,-2.14159 -1.18532,-2.10877 -3.02109,-1.81265 z"
       id="path98"
       sodipodi:nodetypes="ccccc" />
    <path
       style="fill:#482c19;fill-opacity:1;stroke:none;stroke-width:0"
       d="m 207.76962,552.58954 c -0.21717,0.52366 0.0288,1.34943 -1.20843,1.57097 -1.96328,0.17916 -2.48331,-0.82456 -2.65856,-1.45013 -0.0722,-1.42581 0.51651,-3.06494 2.05434,-3.14193 2.14159,0.17922 2.10877,1.18532 1.81265,3.02109 z"
       id="path101"
       sodipodi:nodetypes="ccccc" />
    <path
       style="fill:#482c19;fill-opacity:1;stroke:none;stroke-width:0"
       d="m 258.95376,532.87435 c -0.21717,-0.52366 0.0288,-1.34943 -1.20843,-1.57097 -1.96328,-0.17916 -2.48331,0.82456 -2.65856,1.45013 -0.0722,1.42581 0.51651,3.06494 2.05434,3.14193 2.14159,-0.17922 2.10877,-1.18532 1.81265,-3.02109 z"
       id="path112"
       sodipodi:nodetypes="ccccc" />
    <path
       style="fill:#482c19;fill-opacity:1;stroke:none;stroke-width:0"
       d="m 260.69451,541.59018 c 0.21717,-0.52366 -0.0288,-1.34943 1.20843,-1.57097 1.96328,-0.17916 2.48331,0.82456 2.65856,1.45013 0.0722,1.42581 -0.51651,3.06494 -2.05434,3.14193 -2.14159,-0.17922 -2.10877,-1.18532 -1.81265,-3.02109 z"
       id="path110"
       sodipodi:nodetypes="ccccc" />
    <path
       style="fill:#482c19;fill-opacity:1;stroke:none;stroke-width:0"
       d="m 265.32382,548.30204 c 0.52366,0.21717 1.34943,-0.0288 1.57097,1.20843 0.17916,1.96328 -0.82456,2.48331 -1.45013,2.65856 -1.42581,0.0722 -3.06494,-0.51651 -3.14193,-2.05434 0.17922,-2.14159 1.18532,-2.10877 3.02109,-1.81265 z"
       id="path108"
       sodipodi:nodetypes="ccccc" />
    <path
       style="fill:#c38052;fill-opacity:1;stroke:#000000;stroke-width:1.8e-07;stroke-dasharray:none"
       d="m 215.67411,525.78237 c -14.80345,34.2028 -13.81084,51.0307 -7.51954,65.77068 13.93678,26.19597 54.39315,13.5874 58.10555,3.34517 6.23981,-8.2586 4.68712,-42.95293 -17.43167,-74.51181 z"
       id="path23"
       sodipodi:nodetypes="ccccc" />
    <path
       style="fill:#502d16;fill-opacity:1;stroke:none;stroke-width:0"
       d="m 242.67628,528.45373 c -0.94465,-1.4556 -1.55696,-2.91119 0,-4.36679 3.8037,-2.54733 6.12987,-0.78324 7.60281,0.87336 1.5518,1.96877 -0.30584,5.17189 -2.66098,5.58949 -1.64728,0.27392 -3.48463,-0.56991 -4.94183,-2.09606 z"
       id="path44"
       sodipodi:nodetypes="ccccc" />
    <path
       style="fill:#482c19;fill-opacity:1;stroke:none;stroke-width:0"
       d="m 212.17434,528.01877 c 0.52366,-0.21717 1.34943,0.0288 1.57097,-1.20843 0.17916,-1.96328 -0.82456,-2.48331 -1.45013,-2.65856 -1.42581,-0.0722 -3.06494,0.51651 -3.14193,2.05434 0.17922,2.14159 1.18532,2.10877 3.02109,1.81265 z"
       id="path99"
       sodipodi:nodetypes="ccccc" />
    <path
       style="fill:#482c19;fill-opacity:1;stroke:none;stroke-width:0"
       d="m 253.68767,525.75844 c 0.21717,0.52366 -0.0288,1.34943 1.20843,1.57097 1.96328,0.17916 2.48331,-0.82456 2.65856,-1.45013 0.0722,-1.42581 -0.51651,-3.06494 -2.05434,-3.14193 -2.14159,0.17922 -2.10877,1.18532 -1.81265,3.02109 z"
       id="path114"
       sodipodi:nodetypes="ccccc" />
    <path
       style="fill:#82b1c0;fill-opacity:1;stroke:#000000;stroke-width:1.8e-07;stroke-dasharray:none"
       d="m 199.58026,505.17645 c 7.37373,-4.71151 56.3212,-5.36962 79.86421,-2.73438 l -1.1659,17.77346 c -25.99595,3.18301 -70.51863,9.93517 -78.69831,2.05078 -3.3901,-3.24768 -7.28739,-9.61059 0,-17.08986 z"
       id="path17"
       sodipodi:nodetypes="ccccc" />
    <path
       style="fill:#e5bb9f;fill-opacity:1;stroke:#000000;stroke-width:1.8e-07;stroke-dasharray:none"
       d="m 279.10756,502.67746 7.39949,-1.28299 2.28017,-5.39891 c 1.50785,-3.26179 5.9008,-1.24881 4.88776,2.26132 l -1.31591,3.48339 c 3.54195,0.0979 6.75832,-1.22897 10.52785,0.83472 2.38025,1.27638 4.50838,7.51805 3.63518,12.11098 -1.83519,9.65294 -28.56046,5.41657 -28.56046,5.41657 z"
       id="path19"
       sodipodi:nodetypes="ccccccscc" />
    <path
       style="fill:#d48f8f;fill-opacity:1;stroke:#000000;stroke-width:0.00000018;stroke-dasharray:none"
       d="m 283.69178,719.82514 24.60941,-0.83322 c 0.61565,-3.33329 3.33129,-8.07104 -2.73438,-14.58118 -4.72765,-6.92875 -21.43798,-1.77899 -24.79246,1.0589 -3.66417,3.09479 -2.61126,14.44584 2.91743,14.3555 z"
       id="path21"
       sodipodi:nodetypes="ccccc" />
    <path
       style="fill:#d48f8f;fill-opacity:1;stroke:#000000;stroke-width:1.8e-07;stroke-dasharray:none"
       d="m 353.91888,717.7708 -24.60941,-0.83322 c -0.61565,-3.33329 -3.33129,-8.07104 2.73438,-14.58118 4.72765,-6.92875 21.43798,-1.77899 24.79246,1.0589 3.66417,3.09479 2.61126,14.44584 -2.91743,14.3555 z"
       id="path22"
       sodipodi:nodetypes="ccccc" />
    <g
       id="g30"
       transform="translate(-178.84883,-174.52519)">
      <ellipse
         style="fill:#ffe6d5;fill-opacity:1;stroke:none;stroke-width:0"
         id="ellipse25"
         cx="337.01218"
         cy="545.85034"
         rx="7.5195413"
         ry="6.8359466" />
      <ellipse
         style="fill:#ffe6d5;fill-opacity:1;stroke:none;stroke-width:0"
         id="ellipse26"
         cx="347.60788"
         cy="548.24292"
         rx="7.5195413"
         ry="6.8359466" />
      <ellipse
         style="fill:#ffe6d5;fill-opacity:1;stroke:none;stroke-width:0"
         id="ellipse27"
         cx="331.5434"
         cy="554.05347"
         rx="7.5195413"
         ry="6.8359466" />
      <ellipse
         style="fill:#ffe6d5;fill-opacity:1;stroke:none;stroke-width:0"
         id="ellipse28"
         cx="349.31689"
         cy="558.15503"
         rx="7.5195413"
         ry="6.8359466" />
      <ellipse
         style="fill:#ffe6d5;fill-opacity:1;stroke:none;stroke-width:0"
         id="ellipse29"
         cx="339.06296"
         cy="562.94019"
         rx="7.5195413"
         ry="6.8359466" />
      <ellipse
         style="fill:#ffe270;fill-opacity:1;stroke:none;stroke-width:0"
         id="ellipse30"
         cx="341.11374"
         cy="553.71167"
         rx="7.5195413"
         ry="6.8359466" />
    </g>
    <path
       style="fill:#803300;fill-opacity:1;stroke:#000000;stroke-width:1.8e-07;stroke-dasharray:none"
       d="m 190.93289,314.19337 c -18.55721,11.47088 -18.14277,45.70774 -25.13547,71.05603 -1.39433,-21.01612 -24.265,-30.54592 -4.83374,-64.28879 z"
       id="path26"
       sodipodi:nodetypes="cccc" />
    <path
       id="path6"
       style="fill:#803300;fill-opacity:1;stroke:#000000;stroke-width:1.8e-07;stroke-dasharray:none"
       d="m 287.85156,245.86719 c -58.46445,2.66724 -108.898,31.62212 -127.43359,73.16211 l -4.90039,15.24805 c 27.79948,-15.20961 55.59896,-8.70466 83.39844,-57.42188 14.50403,7.70448 14.30681,21.53449 13.67187,35.54688 26.10883,-12.84811 34.86063,-36.97829 35.26367,-66.53516 z"
       sodipodi:nodetypes="cccccc" />
    <path
       style="fill:#000000;fill-opacity:1;stroke:#000000;stroke-width:1.13386;stroke-dasharray:none"
       d="m 304.71232,362.13427 c 12.706,4.47384 18.50728,9.14782 0,14.52639 17.11525,-0.35105 16.94062,-13.71976 0,-14.52639 z"
       id="path4"
       sodipodi:nodetypes="ccc" />
    <ellipse
       style="fill:#000000;stroke:#000000;stroke-width:1.88976;stroke-linecap:butt;stroke-dasharray:none;paint-order:normal;fill-opacity:1"
       id="path11"
       cx="192.14133"
       cy="463.07269"
       rx="4.1086826"
       ry="5.8004932" />
    <ellipse
       style="fill:#000000;fill-opacity:1;stroke:#000000;stroke-width:1.88976;stroke-linecap:butt;stroke-dasharray:none;paint-order:normal"
       id="ellipse11"
       cx="260.78049"
       cy="460.65582"
       rx="4.1086826"
       ry="5.8004932" />
    <path
       style="fill:none;fill-rule:evenodd;stroke:#000000;stroke-width:1.13386;stroke-linecap:butt;stroke-linejoin:miter;stroke-dasharray:none;stroke-opacity:1"
       d="m 188.03265,450.98833 14.01786,4.83375"
       id="path13"
       inkscape:connector-type="polyline"
       inkscape:connector-curvature="0" />
    <path
       style="fill:none;fill-rule:evenodd;stroke:#000000;stroke-width:1.13386;stroke-linecap:butt;stroke-linejoin:miter;stroke-dasharray:none;stroke-opacity:1"
       d="m 267.30605,448.57146 -13.05111,4.83374"
       id="path15"
       inkscape:connector-type="polyline"
       inkscape:connector-curvature="0" />
    <path
       style="fill:#000000;fill-opacity:1;stroke:#000000;stroke-width:1.88976;stroke-linecap:butt;stroke-dasharray:none;paint-order:normal"
       d="m 214.61824,488.20816 c 13.98898,9.58906 25.99215,6.66111 34.80296,-4.35037 -8.52758,9.13364 -18.60659,14.38871 -34.80296,4.35037 z"
       id="path28"
       sodipodi:nodetypes="ccc" />
    <path
       style="fill:#5e3921;fill-opacity:1;stroke:#000000;stroke-width:0;stroke-linecap:butt;stroke-dasharray:none;paint-order:normal"
       d="m 232.2614,480.71586 c -4.69615,-0.22659 -6.36925,-5.09412 -5.67964,-8.09652 3.50447,-1.584 7.00893,-1.7582 10.5134,-0.12085 0.11921,3.20154 -0.32907,7.69031 -4.83376,8.21737 z"
       id="path29"
       sodipodi:nodetypes="cccc" />
    <path
       id="path30"
       style="fill:#482c19;fill-opacity:1;stroke:#000000;stroke-width:0;stroke-linecap:butt;stroke-dasharray:none;paint-order:normal"
       d="M 226.94336 427.30274 A 61.630238 39.395016 0 0 0 218.22266 427.72657 L 227.29492 457.66602 L 228.6582 427.32617 A 61.630238 39.395016 0 0 0 226.94336 427.30274 z M 228.69531 427.32813 L 240.625 455.95703 L 237.88281 427.92969 A 61.630238 39.395016 0 0 0 228.69531 427.32813 z M 216.8418 427.90235 A 61.630238 39.395016 0 0 0 205.95313 429.73828 C 207.98602 431.54497 215.33203 458.69141 215.33203 458.69141 L 216.8418 427.90235 z " />
    <path
       id="path31"
       style="fill:#482c19;fill-opacity:1;stroke:#000000;stroke-width:0;stroke-linecap:butt;stroke-dasharray:none;paint-order:normal"
       d="M 166.08203 460.78321 A 61.630238 39.395016 0 0 0 165.31445 466.69727 A 61.630238 39.395016 0 0 0 165.54297 468.9336 L 176.70899 462.79297 L 166.08203 460.78321 z M 165.73828 470.82813 A 61.630238 39.395016 0 0 0 169.75977 481.31055 L 186.2793 474.75586 L 165.73828 470.82813 z M 171.80274 484.10352 A 61.630238 39.395016 0 0 0 179.58399 491.79883 L 194.82422 486.71875 L 171.80274 484.10352 z " />
    <path
       id="path32"
       style="fill:#482c19;fill-opacity:1;stroke:#000000;stroke-width:0;stroke-linecap:butt;stroke-dasharray:none;paint-order:normal"
       d="M 286.85156 457.48047 L 273.4375 465.18555 L 288.53125 465.47657 A 61.630238 39.395016 0 0 0 286.85156 457.48047 z M 288.57031 466.56055 L 267.62695 474.75586 L 287.60352 473.26563 A 61.630238 39.395016 0 0 0 288.57422 466.69727 A 61.630238 39.395016 0 0 0 288.57031 466.56055 z M 287.2461 474.41407 L 265.91797 483.30078 L 282.70508 483.30078 A 61.630238 39.395016 0 0 0 287.2461 474.41407 z " />
    <path
       style="fill:#502d16;fill-opacity:1;stroke:none;stroke-width:0"
       d="m 242.85753,578.60766 c -0.94465,1.4556 -1.55696,2.91119 0,4.36679 3.8037,2.54733 6.12987,0.78324 7.60281,-0.87336 1.5518,-1.96877 -0.30584,-5.17189 -2.66098,-5.58949 -1.64728,-0.27392 -3.48463,0.56991 -4.94183,2.09606 z"
       id="path38"
       sodipodi:nodetypes="ccccc" />
    <path
       style="fill:#502d16;fill-opacity:1;stroke:none;stroke-width:0"
       d="m 214.82182,588.45258 c -0.94465,-1.4556 -1.55696,-2.91119 0,-4.36679 3.8037,-2.54733 6.12987,-0.78324 7.60281,0.87336 1.5518,1.96877 -0.30584,5.17189 -2.66098,5.58949 -1.64728,0.27392 -3.48463,-0.56991 -4.94183,-2.09606 z"
       id="path40"
       sodipodi:nodetypes="ccccc" />
    <path
       style="fill:#502d16;fill-opacity:1;stroke:none;stroke-width:0"
       d="m 210.47145,567.24836 c -0.94465,1.4556 -1.55696,2.91119 0,4.36679 3.8037,2.54733 6.12987,0.78324 7.60281,-0.87336 1.5518,-1.96877 -0.30584,-5.17189 -2.66098,-5.58949 -1.64728,-0.27392 -3.48463,0.56991 -4.94183,2.09606 z"
       id="path41"
       sodipodi:nodetypes="ccccc" />
    <path
       style="fill:#502d16;fill-opacity:1;stroke:none;stroke-width:0"
       d="m 236.39241,559.63138 c -0.94465,-1.4556 -1.55696,-2.91119 0,-4.36679 3.8037,-2.54733 6.12987,-0.78324 7.60281,0.87336 1.5518,1.96877 -0.30584,5.17189 -2.66098,5.58949 -1.64728,0.27392 -3.48463,-0.56991 -4.94183,-2.09606 z"
       id="path42"
       sodipodi:nodetypes="ccccc" />
    <path
       style="fill:#502d16;fill-opacity:1;stroke:none;stroke-width:0"
       d="m 217.04089,539.46703 c -1.4556,-0.94465 -2.91119,-1.55696 -4.36679,0 -2.54733,3.8037 -0.78324,6.12987 0.87336,7.60281 1.96877,1.5518 5.17189,-0.30584 5.58949,-2.66098 0.27392,-1.64728 -0.56991,-3.48463 -2.09606,-4.94183 z"
       id="path43"
       sodipodi:nodetypes="ccccc" />
    <path
       style="fill:#502d16;fill-opacity:1;stroke:none;stroke-width:0"
       d="m 218.50755,598.54302 c -0.94465,-1.4556 -1.55696,-2.91119 0,-4.36679 3.8037,-2.54733 6.12987,-0.78324 7.60281,0.87336 1.5518,1.96877 -0.30584,5.17189 -2.66098,5.58949 -1.64728,0.27392 -3.48463,-0.56991 -4.94183,-2.09606 z"
       id="path45"
       sodipodi:nodetypes="ccccc" />
    <path
       style="fill:#502d16;fill-opacity:1;stroke:none;stroke-width:0"
       d="m 206.42319,581.38323 c -0.94465,-1.4556 -1.55696,-2.91119 0,-4.36679 3.8037,-2.54733 6.12987,-0.78324 7.60281,0.87336 1.5518,1.96877 -0.30584,5.17189 -2.66098,5.58949 -1.64728,0.27392 -3.48463,-0.56991 -4.94183,-2.09606 z"
       id="path46"
       sodipodi:nodetypes="ccccc" />
    <path
       style="fill:#502d16;fill-opacity:1;stroke:none;stroke-width:0"
       d="m 225.51649,579.9331 c -0.94465,-1.4556 -1.55696,-2.91119 0,-4.36679 3.8037,-2.54733 6.12987,-0.78324 7.60281,0.87336 1.5518,1.96877 -0.30584,5.17189 -2.66098,5.58949 -1.64728,0.27392 -3.48463,-0.56991 -4.94183,-2.09606 z"
       id="path47"
       sodipodi:nodetypes="ccccc" />
    <path
       style="fill:#502d16;fill-opacity:1;stroke:none;stroke-width:0"
       d="m 220.44105,561.32319 c -0.94465,-1.4556 -1.55696,-2.91119 0,-4.36679 3.8037,-2.54733 6.12987,-0.78324 7.60281,0.87336 1.5518,1.96877 -0.30584,5.17189 -2.66098,5.58949 -1.64728,0.27392 -3.48463,-0.56991 -4.94183,-2.09606 z"
       id="path48"
       sodipodi:nodetypes="ccccc" />
    <path
       style="fill:#502d16;fill-opacity:1;stroke:none;stroke-width:0"
       d="m 208.115,560.11475 c -0.94465,-1.4556 -1.55696,-2.91119 0,-4.36679 3.8037,-2.54733 6.12987,-0.78324 7.60281,0.87336 1.5518,1.96877 -0.30584,5.17189 -2.66098,5.58949 -1.64728,0.27392 -3.48463,-0.56991 -4.94183,-2.09606 z"
       id="path49"
       sodipodi:nodetypes="ccccc" />
    <path
       style="fill:#502d16;fill-opacity:1;stroke:none;stroke-width:0"
       d="m 256.93582,559.87307 c -0.94465,-1.4556 -1.55696,-2.91119 0,-4.36679 3.8037,-2.54733 6.12987,-0.78324 7.60281,0.87336 1.5518,1.96877 -0.30584,5.17189 -2.66098,5.58949 -1.64728,0.27392 -3.48463,-0.56991 -4.94183,-2.09606 z"
       id="path50"
       sodipodi:nodetypes="ccccc" />
    <path
       style="fill:#502d16;fill-opacity:1;stroke:none;stroke-width:0"
       d="m 232.28372,536.91278 c -0.94465,-1.4556 -1.55696,-2.91119 0,-4.36679 3.8037,-2.54733 6.12987,-0.78324 7.60281,0.87336 1.5518,1.96877 -0.30584,5.17189 -2.66098,5.58949 -1.64728,0.27392 -3.48463,-0.56991 -4.94183,-2.09606 z"
       id="path51"
       sodipodi:nodetypes="ccccc" />
    <path
       style="fill:#502d16;fill-opacity:1;stroke:none;stroke-width:0"
       d="m 248.64533,546.05301 c 1.4556,-0.94465 2.91119,-1.55696 4.36679,0 2.54733,3.8037 0.78324,6.12987 -0.87336,7.60281 -1.96877,1.5518 -5.17189,-0.30584 -5.58949,-2.66098 -0.27392,-1.64728 0.56991,-3.48463 2.09606,-4.94183 z"
       id="path52"
       sodipodi:nodetypes="ccccc" />
    <path
       style="fill:#502d16;fill-opacity:1;stroke:none;stroke-width:0"
       d="m 246.30158,568.57381 c -0.94465,-1.4556 -1.55696,-2.91119 0,-4.36679 3.8037,-2.54733 6.12987,-0.78324 7.60281,0.87336 1.5518,1.96877 -0.30584,5.17189 -2.66098,5.58949 -1.64728,0.27392 -3.48463,-0.56991 -4.94183,-2.09606 z"
       id="path53"
       sodipodi:nodetypes="ccccc" />
    <path
       style="fill:#502d16;fill-opacity:1;stroke:none;stroke-width:0"
       d="m 265.60731,579.93311 c 0.94465,-1.4556 1.55696,-2.91119 0,-4.36679 -3.8037,-2.54733 -6.12987,-0.78324 -7.60281,0.87336 -1.5518,1.96877 0.30584,5.17189 2.66098,5.58949 1.64728,0.27392 3.48463,-0.56991 4.94183,-2.09606 z"
       id="path54"
       sodipodi:nodetypes="ccccc" />
    <path
       style="fill:#502d16;fill-opacity:1;stroke:none;stroke-width:0"
       d="m 256.93582,591.5341 c -0.94465,-1.4556 -1.55696,-2.91119 0,-4.36679 3.8037,-2.54733 6.12987,-0.78324 7.60281,0.87336 1.5518,1.96877 -0.30584,5.17189 -2.66098,5.58949 -1.64728,0.27392 -3.48463,-0.56991 -4.94183,-2.09606 z"
       id="path55"
       sodipodi:nodetypes="ccccc" />
    <path
       style="fill:#502d16;fill-opacity:1;stroke:none;stroke-width:0"
       d="m 232.28373,592.25915 c -0.94465,-1.4556 -1.55696,-2.91119 0,-4.36679 3.8037,-2.54733 6.12987,-0.78324 7.60281,0.87336 1.5518,1.96877 -0.30584,5.17189 -2.66098,5.58949 -1.64728,0.27392 -3.48463,-0.56991 -4.94183,-2.09606 z"
       id="path56"
       sodipodi:nodetypes="ccccc" />
    <path
       style="fill:#502d16;fill-opacity:1;stroke:none;stroke-width:0"
       d="m 234.74448,550.37414 c -1.4556,0.94465 -2.91119,1.55696 -4.36679,0 -2.54733,-3.8037 -0.78324,-6.12987 0.87336,-7.60281 1.96877,-1.5518 5.17189,0.30584 5.58949,2.66098 0.27392,1.64728 -0.56991,3.48463 -2.09606,4.94183 z"
       id="path57"
       sodipodi:nodetypes="ccccc" />
    <path
       style="fill:#502d16;fill-opacity:1;stroke:none;stroke-width:0"
       d="m 232.7671,570.99068 c -0.94465,-1.4556 -1.55696,-2.91119 0,-4.36679 3.8037,-2.54733 6.12987,-0.78324 7.60281,0.87336 1.5518,1.96877 -0.30584,5.17189 -2.66098,5.58949 -1.64728,0.27392 -3.48463,-0.56991 -4.94183,-2.09606 z"
       id="path58"
       sodipodi:nodetypes="ccccc" />
    <path
       style="fill:#502d16;fill-opacity:1;stroke:none;stroke-width:0"
       d="m 219.40118,528.40985 c 1.4556,-0.94465 2.91119,-1.55696 4.36679,0 2.54733,3.8037 0.78324,6.12987 -0.87336,7.60281 -1.96877,1.5518 -5.17189,-0.30584 -5.58949,-2.66098 -0.27392,-1.64728 0.56991,-3.48463 2.09606,-4.94183 z"
       id="path59"
       sodipodi:nodetypes="ccccc" />
    <path
       style="fill:#502d16;fill-opacity:1;stroke:none;stroke-width:0"
       d="m 234.7006,602.89339 c -0.94465,-1.4556 -1.55696,-2.91119 0,-4.36679 3.8037,-2.54733 6.12987,-0.78324 7.60281,0.87336 1.5518,1.96877 -0.30584,5.17189 -2.66098,5.58949 -1.64728,0.27392 -3.48463,-0.56991 -4.94183,-2.09606 z"
       id="path60"
       sodipodi:nodetypes="ccccc" />
    <path
       style="fill:#502d16;fill-opacity:1;stroke:none;stroke-width:0"
       d="m 246.78496,597.57628 c -0.94465,-1.4556 -1.55696,-2.91119 0,-4.36679 3.8037,-2.54733 6.12987,-0.78324 7.60281,0.87336 1.5518,1.96877 -0.30584,5.17189 -2.66098,5.58949 -1.64728,0.27392 -3.48463,-0.56991 -4.94183,-2.09606 z"
       id="path61"
       sodipodi:nodetypes="ccccc" />
    <path
       style="fill:#502d16;fill-opacity:1;stroke:none;stroke-width:0"
       d="m 248.23508,540.5381 c -0.94465,-1.4556 -1.55696,-2.91119 0,-4.36679 3.8037,-2.54733 6.12987,-0.78324 7.60281,0.87336 1.5518,1.96877 -0.30584,5.17189 -2.66098,5.58949 -1.64728,0.27392 -3.48463,-0.56991 -4.94183,-2.09606 z"
       id="path62"
       sodipodi:nodetypes="ccccc" />
    <path
       style="fill:#c87137;fill-opacity:1;stroke:none;stroke-width:0"
       d="m 209.04525,581.10418 c -1.37858,-0.21096 -1.80884,-1.09637 -1.50858,-2.50137 0.53753,-1.12047 0.61644,-1.94221 2.63362,-1.32812 1.75991,0.40044 2.63597,1.13299 2.75783,3.57747 -0.21576,1.09055 -1.96255,0.58319 -3.88287,0.25202 z"
       id="path63"
       sodipodi:nodetypes="ccccc" />
    <path
       style="fill:#c87137;fill-opacity:1;stroke:none;stroke-width:0"
       d="m 239.67571,559.89303 c 1.16768,0.76257 2.07889,0.39006 2.79257,-0.85687 0.3471,-1.19328 0.83655,-1.85806 -1.07579,-2.74637 -1.57815,-0.87583 -2.71946,-0.91461 -4.44108,0.82504 -0.56684,0.95632 1.07287,1.74375 2.7243,2.7782 z"
       id="path64"
       sodipodi:nodetypes="ccccc" />
    <path
       style="fill:#c87137;fill-opacity:1;stroke:none;stroke-width:0"
       d="m 262.08311,555.72431 c 1.37858,0.21096 1.80884,1.09637 1.50858,2.50137 -0.53753,1.12047 -0.61644,1.94221 -2.63362,1.32812 -1.75991,-0.40044 -2.63597,-1.13299 -2.75783,-3.57747 0.21576,-1.09055 1.96255,-0.58319 3.88287,-0.25202 z"
       id="path65"
       sodipodi:nodetypes="ccccc" />
    <path
       style="fill:#c87137;fill-opacity:1;stroke:none;stroke-width:0"
       d="m 218.31421,584.66489 c -1.34972,-0.35106 -2.09489,0.29222 -2.37436,1.7015 0.0509,1.24169 -0.20136,2.02772 1.8943,2.26086 1.77489,0.32772 2.86914,10e-4 3.9472,-2.19625 0.23281,-1.08704 -1.57228,-1.31136 -3.46714,-1.76611 z"
       id="path66"
       sodipodi:nodetypes="ccccc" />
    <path
       style="fill:#c87137;fill-opacity:1;stroke:none;stroke-width:0"
       d="m 236.04855,532.67965 c -1.30816,-0.48342 -2.11355,0.0826 -2.53165,1.45718 -0.0727,1.24061 -0.40182,1.99768 1.6603,2.43788 1.73355,0.50243 2.85485,0.2861 4.14588,-1.79323 0.33966,-1.05852 -1.43422,-1.46107 -3.27453,-2.10183 z"
       id="path67"
       sodipodi:nodetypes="ccccc" />
    <path
       style="fill:#c87137;fill-opacity:1;stroke:none;stroke-width:0"
       d="m 214.9541,570.46994 c 1.37858,-0.21096 1.80884,-1.09637 1.50858,-2.50137 -0.53753,-1.12047 -0.61644,-1.94221 -2.63362,-1.32812 -1.75991,0.40044 -2.63597,1.13299 -2.75783,3.57747 0.21576,1.09055 1.96255,0.58319 3.88287,0.25202 z"
       id="path68"
       sodipodi:nodetypes="ccccc" />
    <path
       style="fill:#c87137;fill-opacity:1;stroke:none;stroke-width:0"
       d="m 261.4789,588.11039 c 1.37858,0.21096 1.80884,1.09637 1.50858,2.50137 -0.53753,1.12047 -0.61644,1.94221 -2.63362,1.32812 -1.75991,-0.40044 -2.63597,-1.13299 -2.75783,-3.57747 0.21576,-1.09055 1.96255,-0.58319 3.88287,-0.25202 z"
       id="path69"
       sodipodi:nodetypes="ccccc" />
    <path
       style="fill:#c87137;fill-opacity:1;stroke:none;stroke-width:0"
       d="m 248.92365,568.17391 c -1.37858,-0.21096 -1.80884,-1.09637 -1.50858,-2.50137 0.53753,-1.12047 0.61644,-1.94221 2.63362,-1.32812 1.75991,0.40044 2.63597,1.13299 2.75783,3.57747 -0.21576,1.09055 -1.96255,0.58319 -3.88287,0.25202 z"
       id="path70"
       sodipodi:nodetypes="ccccc" />
    <path
       style="fill:#c87137;fill-opacity:1;stroke:none;stroke-width:0"
       d="m 223.58489,561.31356 c 0.94773,1.02313 1.9221,0.88286 2.91703,-0.15362 0.62629,-1.07339 1.26241,-1.59953 -0.37721,-2.92534 -1.31845,-1.2326 -2.41625,-1.54716 -4.50855,-0.27727 -0.78195,0.79019 0.61767,1.95197 1.96873,3.35623 z"
       id="path71"
       sodipodi:nodetypes="ccccc" />
    <path
       style="fill:#c87137;fill-opacity:1;stroke:none;stroke-width:0"
       d="m 247.46103,582.07092 c 1.37858,-0.21096 1.80884,-1.09637 1.50858,-2.50137 -0.53753,-1.12047 -0.61644,-1.94221 -2.63362,-1.32812 -1.75991,0.40044 -2.63597,1.13299 -2.75783,3.57747 0.21576,1.09055 1.96255,0.58319 3.88287,0.25202 z"
       id="path72"
       sodipodi:nodetypes="ccccc" />
    <path
       style="fill:#c87137;fill-opacity:1;stroke:none;stroke-width:0"
       d="m 219.16795,531.50783 c -0.65548,1.23099 -0.20324,2.10538 1.10233,2.70509 1.21946,0.23939 1.92521,0.66764 2.63957,-1.31625 0.73171,-1.64992 0.66862,-2.79015 -1.21753,-4.34989 -1.00303,-0.47935 -1.6412,1.224 -2.52437,2.96105 z"
       id="path73"
       sodipodi:nodetypes="ccccc" />
    <path
       style="fill:#c87137;fill-opacity:1;stroke:none;stroke-width:0"
       d="m 247.70272,525.03003 c 1.37858,0.21096 1.80884,1.09637 1.50858,2.50137 -0.53753,1.12047 -0.61644,1.94221 -2.63362,1.32812 -1.75991,-0.40044 -2.63597,-1.13299 -2.75783,-3.57747 0.21576,-1.09055 1.96255,-0.58319 3.88287,-0.25202 z"
       id="path74"
       sodipodi:nodetypes="ccccc" />
    <path
       style="fill:#c87137;fill-opacity:1;stroke:none;stroke-width:0"
       d="m 252.44632,549.30769 c 0.4747,-1.31135 -0.0967,-2.11295 -1.47401,-2.52189 -1.24106,-0.0644 -2.00031,-0.3885 -2.42676,1.67651 -0.49088,1.73686 -0.26707,2.85669 1.8208,4.13383 1.06077,0.33261 1.45149,-1.44391 2.07997,-3.28845 z"
       id="path75"
       sodipodi:nodetypes="ccccc" />
    <path
       style="fill:#c87137;fill-opacity:1;stroke:none;stroke-width:0"
       d="m 234.92538,546.28896 c 0.62069,-1.24889 0.14411,-2.11025 -1.17778,-2.6731 -1.2257,-0.20508 -1.94318,-0.61337 -2.60161,1.38978 -0.68513,1.6698 -0.59007,2.80781 1.33909,4.31402 1.01608,0.45103 1.60622,-1.26956 2.4403,-3.0307 z"
       id="path76"
       sodipodi:nodetypes="ccccc"
       inkscape:transform-center-x="-0.60421806"
       inkscape:transform-center-y="-1.6918106" />
    <path
       style="fill:#c87137;fill-opacity:1;stroke:none;stroke-width:0"
       d="m 236.48682,588.33883 c -1.0894,-0.87074 -2.03206,-0.58708 -2.86171,0.58589 -0.45963,1.15462 -1.0104,1.76954 0.80821,2.83666 1.48716,1.02274 2.61954,1.17048 4.49963,-0.39655 0.6557,-0.89773 -0.90119,-1.83836 -2.44613,-3.026 z"
       id="path77"
       sodipodi:nodetypes="ccccc"
       inkscape:transform-center-y="-2.6585595" />
    <path
       style="fill:#c87137;fill-opacity:1;stroke:none;stroke-width:0"
       d="m 238.82365,603.17214 c 1.33297,0.41011 2.10572,-0.19976 2.44693,-1.59538 0.004,-1.24273 0.29037,-2.01689 -1.79299,-2.34202 -1.75876,-0.40549 -2.86633,-0.12728 -4.04002,2.02046 -0.28042,1.07574 1.51306,1.37926 3.38608,1.91694 z"
       id="path78"
       sodipodi:nodetypes="ccccc" />
    <path
       style="fill:#c87137;fill-opacity:1;stroke:none;stroke-width:0"
       d="m 222.60527,598.9453 c 1.328,0.42593 2.10794,-0.17471 2.46572,-1.56617 0.0185,-1.2426 0.31433,-2.0133 -1.76502,-2.36317 -1.75381,-0.42638 -2.86461,-0.16136 -4.06375,1.97228 -0.29319,1.07233 1.49656,1.39715 3.36305,1.95706 z"
       id="path79"
       sodipodi:nodetypes="ccccc" />
    <path
       style="fill:#c87137;fill-opacity:1;stroke:none;stroke-width:0"
       d="m 210.49538,559.95654 c -1.37858,-0.21096 -1.80884,-1.09637 -1.50858,-2.50137 0.53753,-1.12047 0.61644,-1.94221 2.63362,-1.32812 1.75991,0.40044 2.63597,1.13299 2.75783,3.57747 -0.21576,1.09055 -1.96255,0.58319 -3.88287,0.25202 z"
       id="path80"
       sodipodi:nodetypes="ccccc" />
    <path
       style="fill:#c87137;fill-opacity:1;stroke:none;stroke-width:0"
       d="m 263.29155,579.89574 c 1.37858,-0.21096 1.80884,-1.09637 1.50858,-2.50137 -0.53753,-1.12047 -0.61644,-1.94221 -2.63362,-1.32812 -1.75991,0.40044 -2.63597,1.13299 -2.75783,3.57747 0.21576,1.09055 1.96255,0.58319 3.88287,0.25202 z"
       id="path81"
       sodipodi:nodetypes="ccccc" />
    <path
       style="fill:#c87137;fill-opacity:1;stroke:none;stroke-width:0"
       d="m 252.56514,536.568 c 1.3485,-0.35574 2.09589,0.28496 2.38024,1.69326 -0.0466,1.24186 0.20837,2.02701 -1.88646,2.26741 -1.77375,0.33386 -2.86913,0.011 -3.95479,-2.18258 -0.23657,-1.08622 1.56773,-1.31679 3.46101,-1.77809 z"
       id="path82"
       sodipodi:nodetypes="ccccc" />
    <path
       style="fill:#c87137;fill-opacity:1;stroke:none;stroke-width:0"
       d="m 217.19731,542.137 c -0.21096,-1.37858 -1.09637,-1.80884 -2.50137,-1.50858 -1.12047,0.53753 -1.94221,0.61644 -1.32812,2.63362 0.40044,1.75991 1.13299,2.63597 3.57747,2.75783 1.09055,-0.21576 0.58319,-1.96255 0.25202,-3.88287 z"
       id="path83"
       sodipodi:nodetypes="ccccc" />
    <path
       style="fill:#c87137;fill-opacity:1;stroke:none;stroke-width:0"
       d="m 227.89686,579.65405 c -1.37858,-0.21096 -1.80884,-1.09637 -1.50858,-2.50137 0.53753,-1.12047 0.61644,-1.94221 2.63362,-1.32812 1.75991,0.40044 2.63597,1.13299 2.75783,3.57747 -0.21576,1.09055 -1.96255,0.58319 -3.88287,0.25202 z"
       id="path84"
       sodipodi:nodetypes="ccccc" />
    <path
       style="fill:#c87137;fill-opacity:1;stroke:none;stroke-width:0"
       d="m 236.63315,571.64071 c 1.24021,0.63786 2.10807,0.17321 2.6891,-1.14079 0.22197,-1.22275 0.64012,-1.93453 -1.35375,-2.62053 -1.66019,-0.70811 -2.79941,-0.62876 -4.33209,1.27944 -0.465,1.00976 1.24728,1.62358 2.99674,2.48188 z"
       id="path85"
       sodipodi:nodetypes="ccccc" />
    <path
       style="fill:#c87137;fill-opacity:1;stroke:none;stroke-width:0"
       d="m 251.20889,597.82708 c 1.36298,0.29542 2.08114,-0.37787 2.3026,-1.79742 -0.1018,-1.23856 0.11804,-2.03427 -1.98541,-2.18129 -1.78684,-0.25467 -2.86678,0.1166 -3.85383,2.35625 -0.18805,1.09567 1.62473,1.24579 3.53664,1.62246 z"
       id="path86"
       sodipodi:nodetypes="ccccc" />
    <path
       id="path87"
       style="fill:#482c19;fill-opacity:1;stroke:none;stroke-width:0"
       d="M 224.77149 626.28125 C 224.89024 627.45595 225.02516 628.57167 225.17578 629.58985 L 235.8711 630.95118 C 236.1008 629.73434 236.31443 628.35532 236.5 626.84961 L 224.77149 626.28125 z " />
    <path
       id="path88"
       style="fill:#482c19;fill-opacity:1;stroke:none;stroke-width:0"
       d="M 237.08985 619.72071 C 233.51061 619.80886 227.01567 620.01506 224.36914 620.09961 C 224.39346 620.93935 224.4315 621.77028 224.47852 622.58594 L 236.91016 622.58594 C 236.98045 621.64402 237.04735 620.69587 237.08985 619.72071 z " />
    <path
       id="path89"
       style="fill:#482c19;fill-opacity:1;stroke:none;stroke-width:0"
       d="M 237.11524 612.96875 L 224.45899 613.51172 C 224.41455 614.24767 224.38123 614.98848 224.36133 615.73438 L 237.17188 615.36914 C 237.16627 614.5654 237.14655 613.76331 237.11524 612.96875 z " />
    <path
       id="path90"
       style="fill:#482c19;fill-opacity:1;stroke:none;stroke-width:0"
       d="M 225.28906 606.95508 C 225.1186 607.75986 224.97277 608.59615 224.85156 609.46094 L 236.94531 610.19727 C 236.86502 609.24407 236.76325 608.31173 236.63477 607.41016 L 225.28906 606.95508 z " />
    <path
       id="path91"
       style="fill:#482c19;fill-opacity:1;stroke:none;stroke-width:0"
       d="M 260.10352 605.23243 L 248.70313 607.39649 C 248.73428 608.2842 248.79199 609.19364 248.87305 610.11719 L 260.9668 607.94727 C 260.70206 607.00761 260.4144 606.10032 260.10352 605.23243 z " />
    <path
       id="path92"
       style="fill:#482c19;fill-opacity:1;stroke:none;stroke-width:0"
       d="M 261.85352 611.58008 L 249.35742 614.17383 C 249.49017 615.06558 249.63874 615.9568 249.80078 616.84375 L 262.45117 614.77735 C 262.27523 613.70495 262.07638 612.63568 261.85352 611.58008 z " />
    <path
       id="path93"
       style="fill:#482c19;fill-opacity:1;stroke:none;stroke-width:0"
       d="M 262.95703 618.33789 L 250.44531 620.04493 C 250.64819 620.96623 250.86284 621.86328 251.08399 622.74219 L 263.20508 620.69336 C 263.1336 619.92068 263.05254 619.13484 262.95703 618.33789 z " />
    <path
       id="path94"
       style="fill:#482c19;fill-opacity:1;stroke:none;stroke-width:0"
       d="M 263.52539 625.94336 L 252.50977 627.76758 C 252.91746 629.03971 253.32447 630.18762 253.71289 631.1543 L 263.49414 629.85157 C 263.55461 628.75404 263.56459 627.42216 263.52539 625.94336 z " />
    <path
       style="fill:#482c19;fill-opacity:1;stroke:none;stroke-width:0"
       d="m 197.97471,559.85273 c 0.21717,0.52366 -0.0288,1.34943 1.20843,1.57097 1.96328,0.17916 2.48331,-0.82456 2.65856,-1.45013 0.0722,-1.42581 -0.51651,-3.06494 -2.05434,-3.14193 -2.14159,0.17922 -2.10877,1.18532 -1.81265,3.02109 z"
       id="path97"
       sodipodi:nodetypes="ccccc" />
    <path
       style="fill:#482c19;fill-opacity:1;stroke:none;stroke-width:0"
       d="m 201.90538,537.20866 c 0.21717,0.52366 -0.0288,1.34943 1.20843,1.57097 1.96328,0.17916 2.48331,-0.82456 2.65856,-1.45013 0.0722,-1.42581 -0.51651,-3.06494 -2.05434,-3.14193 -2.14159,0.17922 -2.10877,1.18532 -1.81265,3.02109 z"
       id="path100"
       sodipodi:nodetypes="ccccc" />
    <path
       style="fill:#482c19;fill-opacity:1;stroke:none;stroke-width:0"
       d="m 200.70909,545.75359 c 0.21717,0.52366 -0.0288,1.34943 1.20843,1.57097 1.96328,0.17916 2.48331,-0.82456 2.65856,-1.45013 0.0722,-1.42581 -0.51651,-3.06494 -2.05434,-3.14193 -2.14159,0.17922 -2.10877,1.18532 -1.81265,3.02109 z"
       id="path102"
       sodipodi:nodetypes="ccccc" />
    <path
       style="fill:#482c19;fill-opacity:1;stroke:none;stroke-width:0"
       d="m 198.3165,550.98961 c 0.21717,-0.52366 -0.0288,-1.34943 1.20843,-1.57097 1.96328,-0.17916 2.48331,0.82456 2.65856,1.45013 0.0722,1.42581 -0.51651,3.06494 -2.05434,3.14193 -2.14159,-0.17922 -2.10877,-1.18532 -1.81265,-3.02109 z"
       id="path103"
       sodipodi:nodetypes="ccccc" />
    <path
       style="fill:#482c19;fill-opacity:1;stroke:none;stroke-width:0"
       d="m 206.13105,530.58225 c -0.52366,-0.21717 -1.34943,0.0288 -1.57097,-1.20843 -0.17916,-1.96328 0.82456,-2.48331 1.45013,-2.65856 1.42581,-0.0722 3.06494,0.51651 3.14193,2.05434 -0.17922,2.14159 -1.18532,2.10877 -3.02109,1.81265 z"
       id="path105"
       sodipodi:nodetypes="ccccc" />
    <path
       style="fill:#482c19;fill-opacity:1;stroke:none;stroke-width:0"
       d="m 272.79655,558.33825 c -0.21717,-0.52366 0.0288,-1.34943 -1.20843,-1.57097 -1.96328,-0.17916 -2.48331,0.82456 -2.65856,1.45013 -0.0722,1.42581 0.51651,3.06494 2.05434,3.14193 2.14159,-0.17922 2.10877,-1.18532 1.81265,-3.02109 z"
       id="path106"
       sodipodi:nodetypes="ccccc" />
    <path
       style="fill:#482c19;fill-opacity:1;stroke:none;stroke-width:0"
       d="m 266.33417,546.09538 c 0.21717,0.52366 -0.0288,1.34943 1.20843,1.57097 1.96328,0.17916 2.48331,-0.82456 2.65856,-1.45013 0.0722,-1.42581 -0.51651,-3.06494 -2.05434,-3.14193 -2.14159,0.17922 -2.10877,1.18532 -1.81265,3.02109 z"
       id="path109"
       sodipodi:nodetypes="ccccc" />
    <path
       style="fill:#482c19;fill-opacity:1;stroke:none;stroke-width:0"
       d="m 263.21119,538.01634 c -0.52366,-0.21717 -1.34943,0.0288 -1.57097,-1.20843 -0.17916,-1.96328 0.82456,-2.48331 1.45013,-2.65856 1.42581,-0.0722 3.06494,0.51651 3.14193,2.05434 -0.17922,2.14159 -1.18532,2.10877 -3.02109,1.81265 z"
       id="path111"
       sodipodi:nodetypes="ccccc" />
    <path
       style="fill:#482c19;fill-opacity:1;stroke:none;stroke-width:0"
       d="m 260.01092,529.68911 c 0.21717,0.52366 -0.0288,1.34943 1.20843,1.57097 1.96328,0.17916 2.48331,-0.82456 2.65856,-1.45013 0.0722,-1.42581 -0.51651,-3.06494 -2.05434,-3.14193 -2.14159,0.17922 -2.10877,1.18532 -1.81265,3.02109 z"
       id="path113"
       sodipodi:nodetypes="ccccc" />
    <path
       style="fill:#482c19;fill-opacity:1;stroke:none;stroke-width:0"
       d="m 271.08757,554.29853 c -0.21717,0.52366 0.0288,1.34943 -1.20843,1.57097 -1.96328,0.17916 -2.48331,-0.82456 -2.65856,-1.45013 -0.0722,-1.42581 0.51651,-3.06494 2.05434,-3.14193 2.14159,0.17922 2.10877,1.18532 1.81265,3.02109 z"
       id="path115"
       sodipodi:nodetypes="ccccc" />
    <ellipse
       style="fill:#ffb380;fill-opacity:1;stroke:none;stroke-width:0"
       id="path116"
       cx="213.77202"
       cy="473.86096"
       rx="1.8798853"
       ry="1.4526387" />
    <ellipse
       style="fill:#ffb380;fill-opacity:1;stroke:none;stroke-width:0"
       id="ellipse116"
       cx="247.85962"
       cy="472.20059"
       rx="1.8798853"
       ry="1.4526387" />
    <ellipse
       style="fill:#ffb380;fill-opacity:1;stroke:none;stroke-width:0"
       id="ellipse117"
       cx="241.65071"
       cy="474.84195"
       rx="1.8798853"
       ry="1.4526387" />
    <ellipse
       style="fill:#ffb380;fill-opacity:1;stroke:none;stroke-width:0"
       id="ellipse118"
       cx="247.63217"
       cy="479.45621"
       rx="1.8798853"
       ry="1.4526387" />
    <ellipse
       style="fill:#ffb380;fill-opacity:1;stroke:none;stroke-width:0"
       id="ellipse119"
       cx="218.14461"
       cy="480.98926"
       rx="1.8798853"
       ry="1.4526387" />
    <ellipse
       style="fill:#ffb380;fill-opacity:1;stroke:none;stroke-width:0"
       id="ellipse120"
       cx="207.81277"
       cy="477.06363"
       rx="1.8798853"
       ry="1.4526387" />
    <ellipse
       style="fill:#ffb380;fill-opacity:1;stroke:none;stroke-width:0"
       id="ellipse121"
       cx="219.4339"
       cy="474.84195"
       rx="1.8798853"
       ry="1.4526387" />
    <ellipse
       style="fill:#ffb380;fill-opacity:1;stroke:none;stroke-width:0"
       id="ellipse122"
       cx="211.85277"
       cy="481.34824"
       rx="1.8798853"
       ry="1.4526387" />
    <ellipse
       style="fill:#ffb380;fill-opacity:1;stroke:none;stroke-width:0"
       id="ellipse123"
       cx="254.51669"
       cy="473.00858"
       rx="1.8798853"
       ry="1.4526387" />
    <ellipse
       style="fill:#ffb380;fill-opacity:1;stroke:none;stroke-width:0"
       id="ellipse124"
       cx="254.44884"
       cy="479.39044"
       rx="1.8798853"
       ry="1.4526387" />
    <path
       style="fill:#ffb380;fill-opacity:1;stroke:none;stroke-width:0"
       d="m 180.05075,438.30916 c -4.37046,-4.46676 -1.03429,-11.39608 4.14322,-12.21446 6.04588,-0.57641 8.68887,3.18372 10.24094,6.85962 -5.59338,3.90144 -10.55371,6.12526 -14.38416,5.35484 z"
       id="path124"
       sodipodi:nodetypes="cccc" />
    <path
       style="fill:#ffb380;fill-opacity:1;stroke:none;stroke-width:0"
       d="m 273.62127,437.5841 c 4.37046,-4.46676 1.03429,-11.39608 -4.14322,-12.21446 -6.04588,-0.57641 -8.68887,3.18372 -10.24094,6.85962 5.59338,3.90144 10.55371,6.12526 14.38416,5.35484 z"
       id="path125"
       sodipodi:nodetypes="cccc" />
    <path
       id="path126"
       style="fill:#ffb380;fill-opacity:1;stroke:none;stroke-width:0"
       d="M 178.63867 647.09375 C 177.47074 647.49832 176.26325 647.85469 175.03125 648.17969 L 176.98047 653.76758 C 178.57396 653.3427 180.13466 652.8712 181.66211 652.35743 L 178.63867 647.09375 z " />
    <path
       id="path127"
       style="fill:#ffb380;fill-opacity:1;stroke:none;stroke-width:0"
       d="M 187.55859 642.89454 C 186.47267 643.55634 185.35204 644.17733 184.19531 644.75391 L 187.12305 650.24414 C 188.3687 649.6968 189.58561 649.11152 190.77344 648.48633 L 187.55859 642.89454 z " />
    <path
       id="path128"
       style="fill:#ffb380;fill-opacity:1;stroke:none;stroke-width:0"
       d="M 194.36328 637.82032 C 193.42262 638.66719 192.44758 639.47388 191.43945 640.24219 L 195.22266 645.85938 C 196.67535 644.89936 198.07874 643.87253 199.41797 642.75977 L 194.36328 637.82032 z " />
    <path
       id="path130"
       style="fill:#482c19;fill-opacity:1;stroke:none;stroke-width:0"
       d="M 199.86133 632.00196 C 199.2199 632.79849 198.55451 633.56669 197.87305 634.31836 C 197.89874 634.53646 197.93453 634.76909 197.97461 635.01758 C 198.19178 635.54124 197.94637 636.36635 199.18359 636.58789 C 201.14687 636.76705 201.66655 635.76425 201.8418 635.13868 C 201.91282 633.73605 201.34385 632.12722 199.86133 632.00196 z " />
    <path
       id="path131"
       style="fill:#482c19;fill-opacity:1;stroke:none;stroke-width:0"
       d="M 206.68945 633.98633 C 205.33426 633.99715 203.88859 634.60516 203.81641 636.04688 C 203.89529 636.98951 204.13369 637.50841 204.5332 637.77149 C 205.53369 636.63171 206.48717 635.42989 207.39258 634.16211 C 207.24069 634.08338 207.08978 634.02938 206.95703 633.99219 C 206.86792 633.98768 206.7798 633.98561 206.68945 633.98633 z " />
    <path
       style="fill:#482c19;fill-opacity:1;stroke:none;stroke-width:0"
       d="m 206.8371,632.29993 c 0.52366,-0.21717 1.34943,0.0288 1.57097,-1.20843 0.17916,-1.96328 -0.82456,-2.48331 -1.45013,-2.65856 -1.42581,-0.0722 -3.06494,0.51651 -3.14193,2.05434 0.17922,2.14159 1.18532,2.10877 3.02109,1.81265 z"
       id="path132"
       sodipodi:nodetypes="ccccc" />
    <path
       id="path133"
       style="fill:#482c19;fill-opacity:1;stroke:none;stroke-width:0"
       d="M 206.38086 621.94336 C 205.76808 623.11546 205.12496 624.25695 204.45703 625.3711 C 204.80691 625.69189 205.29768 625.62717 205.65039 625.77344 C 207.48616 626.06956 208.4907 626.10253 208.66992 623.96094 C 208.60807 622.7254 207.53867 622.10305 206.38086 621.94336 z " />
    <path
       style="fill:#482c19;fill-opacity:1;stroke:none;stroke-width:0"
       d="m 210.48349,621.42401 c -0.52366,-0.21717 -1.34943,0.0288 -1.57097,-1.20843 -0.17916,-1.96328 0.82456,-2.48331 1.45013,-2.65856 1.42581,-0.0722 3.06494,0.51651 3.14193,2.05434 -0.17922,2.14159 -1.18532,2.10877 -3.02109,1.81265 z"
       id="path134"
       sodipodi:nodetypes="ccccc" />
    <path
       style="fill:#482c19;fill-opacity:1;stroke:none;stroke-width:0"
       d="m 211.75088,612.31994 c 0.21717,-0.52366 -0.0288,-1.34943 1.20843,-1.57097 1.96328,-0.17916 2.48331,0.82456 2.65856,1.45013 0.0722,1.42581 -0.51651,3.06494 -2.05434,3.14193 -2.14159,-0.17922 -2.10877,-1.18532 -1.81265,-3.02109 z"
       id="path135"
       sodipodi:nodetypes="ccccc" />
    <path
       id="path136"
       style="fill:#482c19;fill-opacity:1;stroke:none;stroke-width:0"
       d="M 214.03516 602.26953 C 213.92894 602.27176 213.81733 602.2769 213.70117 602.28711 C 213.35833 603.62137 212.99688 604.93856 212.61328 606.23633 C 212.89058 606.59274 213.40443 606.80879 214.28906 606.88282 C 215.82689 606.80583 216.41595 605.16605 216.34375 603.74024 C 216.17945 603.15377 215.71062 602.23447 214.03516 602.26953 z " />
    <path
       id="path137"
       style="fill:#482c19;fill-opacity:1;stroke:none;stroke-width:0"
       d="M 212.97266 623.59375 C 211.61747 623.60457 210.17179 624.21259 210.09961 625.6543 C 210.20838 626.95401 210.62331 627.45102 211.3418 627.57618 C 211.981 626.30029 212.5862 624.97782 213.14649 623.59571 C 213.08866 623.59398 213.03093 623.59329 212.97266 623.59375 z " />
    <g
       id="g143"
       transform="translate(-21.75185,-15.951356)">
      <ellipse
         style="fill:#ffe6d5;fill-opacity:1;stroke:none;stroke-width:0"
         id="path140"
         cx="337.01218"
         cy="545.85034"
         rx="7.5195413"
         ry="6.8359466" />
      <ellipse
         style="fill:#ffe6d5;fill-opacity:1;stroke:none;stroke-width:0"
         id="ellipse140"
         cx="347.60788"
         cy="548.24292"
         rx="7.5195413"
         ry="6.8359466" />
      <ellipse
         style="fill:#ffe6d5;fill-opacity:1;stroke:none;stroke-width:0"
         id="ellipse141"
         cx="331.5434"
         cy="554.05347"
         rx="7.5195413"
         ry="6.8359466" />
      <ellipse
         style="fill:#ffe6d5;fill-opacity:1;stroke:none;stroke-width:0"
         id="ellipse142"
         cx="349.31689"
         cy="558.15503"
         rx="7.5195413"
         ry="6.8359466" />
      <ellipse
         style="fill:#ffe6d5;fill-opacity:1;stroke:none;stroke-width:0"
         id="ellipse143"
         cx="339.06296"
         cy="562.94019"
         rx="7.5195413"
         ry="6.8359466" />
      <ellipse
         style="fill:#ffe270;fill-opacity:1;stroke:none;stroke-width:0"
         id="path139"
         cx="341.11374"
         cy="553.71167"
         rx="7.5195413"
         ry="6.8359466" />
    </g>
    <g
       id="g149"
       transform="translate(-45.920571,22.235224)">
      <ellipse
         style="fill:#ffe6d5;fill-opacity:1;stroke:none;stroke-width:0"
         id="ellipse144"
         cx="337.01218"
         cy="545.85034"
         rx="7.5195413"
         ry="6.8359466" />
      <ellipse
         style="fill:#ffe6d5;fill-opacity:1;stroke:none;stroke-width:0"
         id="ellipse145"
         cx="347.60788"
         cy="548.24292"
         rx="7.5195413"
         ry="6.8359466" />
      <ellipse
         style="fill:#ffe6d5;fill-opacity:1;stroke:none;stroke-width:0"
         id="ellipse146"
         cx="331.5434"
         cy="554.05347"
         rx="7.5195413"
         ry="6.8359466" />
      <ellipse
         style="fill:#ffe6d5;fill-opacity:1;stroke:none;stroke-width:0"
         id="ellipse147"
         cx="349.31689"
         cy="558.15503"
         rx="7.5195413"
         ry="6.8359466" />
      <ellipse
         style="fill:#ffe6d5;fill-opacity:1;stroke:none;stroke-width:0"
         id="ellipse148"
         cx="339.06296"
         cy="562.94019"
         rx="7.5195413"
         ry="6.8359466" />
      <ellipse
         style="fill:#ffe270;fill-opacity:1;stroke:none;stroke-width:0"
         id="ellipse149"
         cx="341.11374"
         cy="553.71167"
         rx="7.5195413"
         ry="6.8359466" />
    </g>
    <g
       id="g167"
       transform="translate(12.084361,15.951357)">
      <ellipse
         style="fill:#ffe6d5;fill-opacity:1;stroke:none;stroke-width:0"
         id="ellipse162"
         cx="337.01218"
         cy="545.85034"
         rx="7.5195413"
         ry="6.8359466" />
      <ellipse
         style="fill:#ffe6d5;fill-opacity:1;stroke:none;stroke-width:0"
         id="ellipse163"
         cx="347.60788"
         cy="548.24292"
         rx="7.5195413"
         ry="6.8359466" />
      <ellipse
         style="fill:#ffe6d5;fill-opacity:1;stroke:none;stroke-width:0"
         id="ellipse164"
         cx="331.5434"
         cy="554.05347"
         rx="7.5195413"
         ry="6.8359466" />
      <ellipse
         style="fill:#ffe6d5;fill-opacity:1;stroke:none;stroke-width:0"
         id="ellipse165"
         cx="349.31689"
         cy="558.15503"
         rx="7.5195413"
         ry="6.8359466" />
      <ellipse
         style="fill:#ffe6d5;fill-opacity:1;stroke:none;stroke-width:0"
         id="ellipse166"
         cx="339.06296"
         cy="562.94019"
         rx="7.5195413"
         ry="6.8359466" />
      <ellipse
         style="fill:#ffe270;fill-opacity:1;stroke:none;stroke-width:0"
         id="ellipse167"
         cx="341.11374"
         cy="553.71167"
         rx="7.5195413"
         ry="6.8359466" />
    </g>
    <g
       id="g173"
       transform="translate(-12.084361,-60.421804)">
      <ellipse
         style="fill:#ffe6d5;fill-opacity:1;stroke:none;stroke-width:0"
         id="ellipse168"
         cx="337.01218"
         cy="545.85034"
         rx="7.5195413"
         ry="6.8359466" />
      <ellipse
         style="fill:#ffe6d5;fill-opacity:1;stroke:none;stroke-width:0"
         id="ellipse169"
         cx="347.60788"
         cy="548.24292"
         rx="7.5195413"
         ry="6.8359466" />
      <ellipse
         style="fill:#ffe6d5;fill-opacity:1;stroke:none;stroke-width:0"
         id="ellipse170"
         cx="331.5434"
         cy="554.05347"
         rx="7.5195413"
         ry="6.8359466" />
      <ellipse
         style="fill:#ffe6d5;fill-opacity:1;stroke:none;stroke-width:0"
         id="ellipse171"
         cx="349.31689"
         cy="558.15503"
         rx="7.5195413"
         ry="6.8359466" />
      <ellipse
         style="fill:#ffe6d5;fill-opacity:1;stroke:none;stroke-width:0"
         id="ellipse172"
         cx="339.06296"
         cy="562.94019"
         rx="7.5195413"
         ry="6.8359466" />
      <ellipse
         style="fill:#ffe270;fill-opacity:1;stroke:none;stroke-width:0"
         id="ellipse173"
         cx="341.11374"
         cy="553.71167"
         rx="7.5195413"
         ry="6.8359466" />
    </g>
    <g
       id="g179"
       transform="translate(13.924863,-24.134369)">
      <ellipse
         style="fill:#ffe6d5;fill-opacity:1;stroke:none;stroke-width:0"
         id="ellipse174"
         cx="337.01218"
         cy="545.85034"
         rx="7.5195413"
         ry="6.8359466" />
      <ellipse
         style="fill:#ffe6d5;fill-opacity:1;stroke:none;stroke-width:0"
         id="ellipse175"
         cx="347.60788"
         cy="548.24292"
         rx="7.5195413"
         ry="6.8359466" />
      <ellipse
         style="fill:#ffe6d5;fill-opacity:1;stroke:none;stroke-width:0"
         id="ellipse176"
         cx="331.5434"
         cy="554.05347"
         rx="7.5195413"
         ry="6.8359466" />
      <ellipse
         style="fill:#ffe6d5;fill-opacity:1;stroke:none;stroke-width:0"
         id="ellipse177"
         cx="349.31689"
         cy="558.15503"
         rx="7.5195413"
         ry="6.8359466" />
      <ellipse
         style="fill:#ffe6d5;fill-opacity:1;stroke:none;stroke-width:0"
         id="ellipse178"
         cx="339.06296"
         cy="562.94019"
         rx="7.5195413"
         ry="6.8359466" />
      <ellipse
         style="fill:#ffe270;fill-opacity:1;stroke:none;stroke-width:0"
         id="ellipse179"
         cx="341.11374"
         cy="553.71167"
         rx="7.5195413"
         ry="6.8359466" />
    </g>
    <g
       id="g36"
       transform="translate(95.272629,-174.52519)">
      <ellipse
         style="fill:#ffe6d5;fill-opacity:1;stroke:none;stroke-width:0"
         id="ellipse31"
         cx="337.01218"
         cy="545.85034"
         rx="7.5195413"
         ry="6.8359466" />
      <ellipse
         style="fill:#ffe6d5;fill-opacity:1;stroke:none;stroke-width:0"
         id="ellipse32"
         cx="347.60788"
         cy="548.24292"
         rx="7.5195413"
         ry="6.8359466" />
      <ellipse
         style="fill:#ffe6d5;fill-opacity:1;stroke:none;stroke-width:0"
         id="ellipse33"
         cx="331.5434"
         cy="554.05347"
         rx="7.5195413"
         ry="6.8359466" />
      <ellipse
         style="fill:#ffe6d5;fill-opacity:1;stroke:none;stroke-width:0"
         id="ellipse34"
         cx="349.31689"
         cy="558.15503"
         rx="7.5195413"
         ry="6.8359466" />
      <ellipse
         style="fill:#ffe6d5;fill-opacity:1;stroke:none;stroke-width:0"
         id="ellipse35"
         cx="339.06296"
         cy="562.94019"
         rx="7.5195413"
         ry="6.8359466" />
      <ellipse
         style="fill:#ffe270;fill-opacity:1;stroke:none;stroke-width:0"
         id="ellipse36"
         cx="341.11374"
         cy="553.71167"
         rx="7.5195413"
         ry="6.8359466" />
    </g>
    <path
       style="fill:#803300;fill-opacity:1;stroke-width:0"
       d="m 428.75311,317.09362 c 3.75494,-20.28088 35.31792,102.17197 47.27354,129.99509 -16.00041,-27.86746 -64.22919,-93.70564 -76.96549,-154.21412 z"
       id="path25"
       sodipodi:nodetypes="cccc" />
  </g>
</svg>
