<?xml version="1.0" encoding="UTF-8" standalone="no"?>
<!-- Created with Inkscape (http://www.inkscape.org/) -->

<svg
   width="148mm"
   height="210mm"
   viewBox="0 0 559.37006 793.70081"
   version="1.1"
   id="svg1"
   inkscape:version="1.3.2 (091e20e, 2023-11-25, custom)"
   sodipodi:docname="surprise1.svg"
   xmlns:inkscape="http://www.inkscape.org/namespaces/inkscape"
   xmlns:sodipodi="http://sodipodi.sourceforge.net/DTD/sodipodi-0.dtd"
   xmlns="http://www.w3.org/2000/svg"
   xmlns:svg="http://www.w3.org/2000/svg">
  <sodipodi:namedview
     id="namedview1"
     pagecolor="#ffffff"
     bordercolor="#000000"
     borderopacity="0.25"
     inkscape:showpageshadow="2"
     inkscape:pageopacity="0.0"
     inkscape:pagecheckerboard="0"
     inkscape:deskcolor="#d1d1d1"
     inkscape:document-units="mm"
     inkscape:zoom="1.0343948"
     inkscape:cx="101.02525"
     inkscape:cy="403.61763"
     inkscape:window-width="1920"
     inkscape:window-height="1017"
     inkscape:window-x="-8"
     inkscape:window-y="-8"
     inkscape:window-maximized="1"
     inkscape:current-layer="layer1"
     showguides="true"
     showgrid="false">
    <sodipodi:guide
       position="299.69214,1000.585"
       orientation="0,-1"
       id="guide91"
       inkscape:locked="false" />
  </sodipodi:namedview>
  <defs
     id="defs1" />
  <g
     inkscape:label="Calque 1"
     inkscape:groupmode="layer"
     id="layer1">
    <rect
       style="opacity:0.99569;fill:#77a279;fill-opacity:1;stroke-width:0.0000000599999"
       id="rect1"
       width="559.37006"
       height="791.76733"
       x="-5.9443224e-08"
       y="1.4501233" />
    <path
       style="opacity:0.99569;fill:#f2dd93;fill-opacity:1;stroke-width:0.00000006"
       d="m 0,516.24388 46.403944,-13.53449 c 28.147272,-6.68052 54.341646,-3.59655 77.339906,15.46799 59.15917,43.8436 117.31739,47.40047 172.08129,29.00246 56.38754,-12.97678 104.72377,-11.31846 150.81282,-11.60099 43.3639,-1.88312 79.51564,9.56916 113.10961,-33.8362 L 560.71432,0 -6.6989769e-8,0.9667488 -0.9667488,514.31039 Z"
       id="path36"
       sodipodi:nodetypes="cccccccccc" />
    <g
       id="g168"
       transform="matrix(0.87319362,0,0,0.72810068,-8.0393181,147.73862)"
       style="stroke-width:1.25414">
      <path
         style="opacity:0.99569;fill:#6f9c72;fill-opacity:1;stroke-width:7.52489e-08"
         d="m 444.70446,253.28819 c -2.50045,-17.43074 -14.00271,-39.65184 -28.03571,-46.88732 -34.13921,-21.21162 -94.81923,11.79531 -126.6441,32.38609 l 7.25062,-12.08435 c 21.05336,-31.68845 65.76928,-50.85473 114.55973,-36.73647 30.60177,10.61407 37.56616,44.07342 42.05358,60.90519 z"
         id="path142"
         sodipodi:nodetypes="ccccccc" />
      <g
         id="g167"
         style="stroke-width:1.25414">
        <path
           style="opacity:0.99569;fill:#695a44;fill-opacity:1;stroke-width:7.52489e-08"
           d="m 447.96358,535.34744 -4.08939,-17.05131 28.00705,-3.54238 -0.61469,21.06166 z"
           id="path143"
           sodipodi:nodetypes="ccccc" />
        <path
           style="opacity:0.99569;fill:#695a44;fill-opacity:1;stroke-width:7.52489e-08"
           d="m 453.00761,518.04607 -9.44086,-20.39347 24.93087,-3.20058 -0.85638,24.2036 z"
           id="path144"
           sodipodi:nodetypes="ccccc" />
        <path
           style="opacity:0.99569;fill:#695a44;fill-opacity:1;stroke-width:7.52489e-08"
           d="m 448.59128,497.234 -6.61635,-21.47667 25.13485,0.1768 -4.09932,23.86929 z"
           id="path145"
           sodipodi:nodetypes="ccccc" />
        <path
           style="opacity:0.99569;fill:#695a44;fill-opacity:1;stroke-width:7.52489e-08"
           d="m 447.14116,475.96553 -6.61635,-21.47667 25.13485,0.1768 -4.09932,23.86929 z"
           id="path146"
           sodipodi:nodetypes="ccccc" />
        <path
           style="opacity:0.99569;fill:#695a44;fill-opacity:1;stroke-width:7.52489e-08"
           d="m 447.62453,456.14718 -6.61635,-21.47667 25.13485,0.1768 -4.09932,23.86929 z"
           id="path147"
           sodipodi:nodetypes="ccccc" />
        <path
           style="opacity:0.99569;fill:#695a44;fill-opacity:1;stroke-width:7.52489e-08"
           d="m 447.62453,435.84545 -6.61635,-21.47667 25.13485,0.1768 -4.09932,23.86929 z"
           id="path148"
           sodipodi:nodetypes="ccccc" />
        <path
           style="opacity:0.99569;fill:#695a44;fill-opacity:1;stroke-width:7.52489e-08"
           d="m 448.1079,415.06035 -6.61635,-21.47667 25.13485,0.1768 -4.09932,23.86929 z"
           id="path149"
           sodipodi:nodetypes="ccccc" />
        <path
           style="opacity:0.99569;fill:#695a44;fill-opacity:1;stroke-width:7.52489e-08"
           d="m 446.1744,394.75862 -6.61635,-21.47667 25.13485,0.1768 -4.09932,23.86929 z"
           id="path150"
           sodipodi:nodetypes="ccccc" />
        <path
           style="opacity:0.99569;fill:#695a44;fill-opacity:1;stroke-width:7.52489e-08"
           d="m 444.72428,375.90702 -6.61635,-21.47667 25.13485,0.1768 -4.09932,23.86929 z"
           id="path151"
           sodipodi:nodetypes="ccccc" />
        <path
           style="opacity:0.99569;fill:#695a44;fill-opacity:1;stroke-width:7.52489e-08"
           d="m 443.27416,358.50554 -6.61635,-21.47667 25.13485,0.1768 -4.09932,23.86929 z"
           id="path152"
           sodipodi:nodetypes="ccccc" />
        <path
           style="opacity:0.99569;fill:#695a44;fill-opacity:1;stroke-width:7.52489e-08"
           d="m 441.82404,337.23707 -6.61635,-21.47667 25.13485,0.1768 -4.09932,23.86929 z"
           id="path153"
           sodipodi:nodetypes="ccccc" />
        <path
           style="opacity:0.99569;fill:#695a44;fill-opacity:1;stroke-width:7.52489e-08"
           d="m 441.34067,319.35222 -6.61635,-21.47667 25.13485,0.1768 -4.09932,23.86929 z"
           id="path154"
           sodipodi:nodetypes="ccccc" />
        <path
           style="opacity:0.99569;fill:#695a44;fill-opacity:1;stroke-width:7.52489e-08"
           d="m 440.8573,300.01724 -6.61635,-21.47667 25.13485,0.1768 -4.09932,23.86929 z"
           id="path155"
           sodipodi:nodetypes="ccccc" />
        <g
           id="g166"
           transform="translate(-2.050784)"
           style="stroke-width:1.25414">
          <path
             style="opacity:0.99569;fill:#58805b;fill-opacity:1;stroke-width:7.52489e-08"
             d="m 444.9685,224.40517 c 6.3012,-16.44317 7.07119,-41.4529 -1.66452,-54.6045 -18.89203,-38.46429 -91.08095,-50.30925 -130.74105,-37.71176 1.40809,-3.30881 3.04579,-6.61761 10.76609,-9.92642 33.81644,-15.01444 88.007,-5.15471 123.75314,30.92917 21.56399,24.1686 11.35928,56.786 7.0853,73.67323 z"
             id="path156"
             sodipodi:nodetypes="ccccccc" />
          <path
             style="opacity:0.99569;fill:#a8c3a8;fill-opacity:1;stroke-width:7.52489e-08"
             d="m 458.4539,222.95505 c -6.3012,-16.44317 -7.07119,-41.4529 1.66452,-54.6045 19.49504,-39.04554 82.72142,-74.632577 126.39068,-33.36139 l -20.43358,-26.36114 c -33.87251,-17.496742 -96.64405,12.07937 -112.15215,40.11327 -16.73025,23.20185 -8.94241,59.68625 -4.66843,76.57348 z"
             id="path157"
             sodipodi:nodetypes="ccccccc" />
          <path
             style="opacity:0.99569;fill:#97b898;fill-opacity:1;stroke-width:7.52489e-08"
             d="m 444.73166,221.57262 c 1.12983,-17.57289 -5.5675,-41.6815 -17.817,-51.64278 -29.05966,-27.76607 -95.22175,-7.91414 -130.59484,5.70743 l 9.5762,-10.33921 c 27.10825,-26.69353 74.80569,-36.27547 119.66043,-12.44513 27.77229,16.66814 27.72207,50.84457 28.65984,68.23899 z"
             id="path158"
             sodipodi:nodetypes="ccccccc" />
          <path
             style="opacity:0.99569;fill:#58805b;fill-opacity:1;stroke-width:7.52489e-08"
             d="m 444.73165,244.77461 c 1.12983,-17.57289 -5.5675,-41.6815 -17.817,-51.64278 -29.05966,-27.76608 -95.22175,-7.91414 -130.59484,5.70743 l 9.5762,-10.33921 c 27.10825,-26.69354 74.80569,-36.27548 119.66043,-12.44513 27.77229,16.66814 27.72207,50.84457 28.65984,68.23899 z"
             id="path159"
             sodipodi:nodetypes="ccccccc" />
          <path
             style="opacity:0.99569;fill:#58805b;fill-opacity:1;stroke-width:7.52489e-08"
             d="M 443.73771,267.78942 C 441.23726,250.35868 429.735,228.13758 415.702,220.9021 381.56279,199.69048 320.88277,232.69741 289.0579,253.28819 l 7.25062,-12.08435 c 21.05336,-31.68845 65.76928,-50.85473 114.55973,-36.73647 30.60177,10.61407 37.56616,44.07342 42.05358,60.90519 z"
             id="path160"
             sodipodi:nodetypes="ccccccc" />
          <g
             id="g165"
             style="stroke-width:1.25414">
            <path
               style="opacity:0.99569;fill:#6f9c72;fill-opacity:1;stroke-width:7.52489e-08"
               d="m 454.68376,220.12251 c -1.12983,-17.57289 5.5675,-41.6815 17.817,-51.64278 29.05966,-27.76608 95.22175,-7.91414 130.59484,5.70743 l -9.5762,-10.33921 c -27.10825,-26.69354 -74.80569,-36.27548 -119.66043,-12.44513 -27.77229,16.66814 -27.72207,50.84457 -28.65984,68.23899 z"
               id="path161"
               sodipodi:nodetypes="ccccccc" />
            <path
               style="opacity:0.99569;fill:#58805b;fill-opacity:1;stroke-width:7.52489e-08"
               d="m 450.33339,240.42424 c -1.12983,-17.57289 5.5675,-41.6815 17.817,-51.64278 29.05966,-27.76608 95.22175,-7.91414 130.59484,5.70743 l -9.5762,-10.33921 C 562.06078,157.45614 514.36334,147.8742 469.5086,171.70455 c -27.77229,16.66814 -27.72207,50.84457 -28.65984,68.23899 z"
               id="path162"
               sodipodi:nodetypes="ccccccc" />
            <path
               style="opacity:0.99569;fill:#58805b;fill-opacity:1;stroke-width:7.52489e-08"
               d="m 451.47171,263.43905 c 2.50045,-17.43074 14.00271,-39.65184 28.03571,-46.88732 34.13921,-21.21162 94.81923,11.79531 126.6441,32.38609 L 598.9009,236.85347 C 577.84754,205.16502 533.13162,185.99874 484.34117,200.117 c -30.60177,10.61407 -37.56616,44.07342 -42.05358,60.90519 z"
               id="path163"
               sodipodi:nodetypes="ccccccc" />
            <path
               style="opacity:0.99569;fill:#695a44;fill-opacity:1;stroke-width:7.52489e-08"
               d="m 439.40718,262.79741 -6.61635,-21.47667 25.13485,0.1768 -4.09932,23.86929 z"
               id="path164"
               sodipodi:nodetypes="ccccc" />
            <path
               style="opacity:0.99569;fill:#80a782;fill-opacity:1;stroke-width:7.52489e-08"
               d="m 452.43846,241.20383 c 2.50045,-17.43074 14.00271,-39.65184 28.03571,-46.88732 34.13921,-21.21162 94.81923,11.79531 126.6441,32.38609 l -7.25062,-12.08435 c -21.05336,-31.68845 -65.76928,-50.85473 -114.55973,-36.73647 -30.60177,10.61407 -37.56616,44.07342 -42.05358,60.90519 z"
               id="path165"
               sodipodi:nodetypes="ccccccc" />
          </g>
        </g>
        <path
           style="opacity:0.99569;fill:#695a44;fill-opacity:1;stroke-width:7.52489e-08"
           d="m 439.89055,282.13239 -6.61635,-21.47667 25.13485,0.1768 -4.09932,23.86929 z"
           id="path166"
           sodipodi:nodetypes="ccccc" />
      </g>
    </g>
    <path
       style="opacity:0.99569;fill:#d1ad93;fill-opacity:1;stroke-width:0.00000006"
       d="m 165.31405,360.59731 -1.9335,19.33498 c 9.39008,4.42597 19.72301,6.05889 30.93596,0.45908 -2.59426,-8.0017 -3.37607,-19.0498 -3.86699,-27.52805 z"
       id="path3"
       sodipodi:nodetypes="ccccc" />
    <ellipse
       style="opacity:0.99569;fill:#d9bba6;fill-opacity:1;stroke-width:6e-08"
       id="path1"
       cx="174.73985"
       cy="307.90948"
       rx="81.931969"
       ry="58.488304" />
    <ellipse
       style="opacity:0.99569;fill:#000000;fill-opacity:1;stroke-width:6e-08"
       id="path2"
       cx="208.81775"
       cy="291.95813"
       rx="8.7007389"
       ry="8.7007399" />
    <path
       style="opacity:0.99569;fill:#59815b;fill-opacity:1;stroke:#faaeae;stroke-width:0;stroke-dasharray:none;stroke-opacity:1"
       d="M 0.96674895,618.71925 C 29.084829,597.62453 62.393403,585.49521 118.60101,612.91876 c 29.19541,18.06478 47.30653,53.86442 88.2257,53.17118 58.73186,-4.60844 121.56327,-6.87429 163.1701,-21.26847 L 474.34979,615.819 c 29.36335,-3.91193 57.64417,-3.49375 84.43103,2.90025 L 557.81407,794.66754 1.7526435,793.70079 Z"
       id="path94"
       sodipodi:nodetypes="ccccccccc" />
    <path
       style="opacity:0.99569;fill:#496b4c;fill-opacity:1;stroke:#faaeae;stroke-width:0;stroke-dasharray:none;stroke-opacity:1"
       d="M -0.96674884,675.75743 C -5.0702433,664.95308 77.343253,658.88692 95.708135,666.08994 c 21.663145,7.96357 72.857805,39.11322 95.708135,50.27094 24.82596,11.27015 104.17949,7.13457 121.81035,0.96675 8.56874,-1.50635 133.34913,-28.67037 149.84607,-28.03572 18.58571,-4.14478 60.33756,-2.36373 88.94089,1.9335 l 8.53403,2.62316 -2.73437,101.17201 L 0,794.33699 Z"
       id="path95"
       sodipodi:nodetypes="cccccccccc" />
    <path
       style="opacity:0.99569;fill:#344c36;fill-opacity:1;stroke:#5ea2eb;stroke-width:0;stroke-dasharray:none;stroke-opacity:1"
       d="M -1.3671893,734.18066 C 40.145297,762.7375 106.6432,752.98337 166.1135,754.0049 c 86.86367,-3.17448 174.73319,-25.46016 260.44956,-6.83595 33.43171,7.04578 65.17635,-7.84033 97.4148,-16.30684 14.82348,-4.83374 27.79166,-5.83959 36.17015,-1.65034 l 0.40043,64.77218 -561.11474839,0.80087 z"
       id="path96"
       sodipodi:nodetypes="cccccccc" />
    <path
       style="opacity:0.99569;fill:#d9bba6;fill-opacity:1;stroke-width:6e-08"
       d="m 184.46896,567.08381 c 32.62828,45.57753 60.41026,160.81841 66.8116,212.71431 l 9.13043,-4.43568 C 254.92535,716.2859 243.99705,603.85946 214.43396,558.69893 Z"
       id="path23"
       sodipodi:nodetypes="ccccc" />
    <path
       style="opacity:0.99569;fill:#d9bba6;fill-opacity:1;stroke-width:6e-08"
       d="m 156.22037,566.9121 c 12.57482,40.87049 -18.66478,160.93796 -46.1758,213.89058 l 9.96848,1.91565 c 31.938,-46.31857 70.43944,-154.88393 67.76728,-214.72632 z"
       id="path24"
       sodipodi:nodetypes="ccccc" />
    <g
       id="g125"
       transform="translate(-19.406629,-31.096443)"
       style="fill:#d1ad93;fill-opacity:1">
      <path
         style="opacity:0.99569;fill:#d1ad93;fill-opacity:1;stroke-width:6e-08"
         d="m 191.68967,415.92588 c 9.50846,-0.35805 48.45838,44.17675 75.5372,34.86333 28.87838,-14.59249 32.44314,-32.72748 39.36533,-56.0133 l 7.86134,1.36719 c -6.34321,24.7786 -3.18679,51.00762 -46.14264,70.41025 -45.47393,14.06936 -78.40531,-32.04862 -81.78966,-37.41466 -4.31936,-6.49365 -1.96256,-14.14789 5.16843,-13.21281 z"
         id="path124"
         sodipodi:nodetypes="ccccccc" />
      <path
         style="opacity:0.99569;fill:#d1ad93;fill-opacity:1;stroke-width:6e-08"
         d="m 305.90861,396.4849 c -2.64911,-5.18358 -6.40363,-8.15632 -9.91213,-11.62111 -0.32284,-1.0786 0.64384,-2.04378 1.70899,-1.28174 2.05115,1.70391 5.05064,4.80636 7.51954,7.43409 1.35279,0.72486 2.51887,-0.1121 2.81376,-0.8459 0.5333,-4.91765 0.20455,-9.29159 -0.59207,-13.76593 0.44226,-1.74199 2.06957,-1.48175 2.64285,0.37719 l 0.60422,11.98009 c 0.36539,0.6024 1.32894,0.42004 1.60888,-1e-5 l 2.83448,-12.78452 c 0.97788,-1.6653 2.54203,-1.33428 2.39259,0.3418 l -3.43871,12.68442 c -0.0455,0.66757 0.8079,0.72988 1.03146,0.15016 l 5.47735,-10.76914 c 0.6898,-1.51756 2.35776,-2.3449 3.08225,-0.35646 -2.35924,4.55735 -6.94391,11.18615 -5.79108,12.10095 l 0.59936,0.1562 c 1.14879,-0.36725 3.2683,-3.62155 4.9879,-5.51778 1.68436,-1.00568 2.59187,0.40275 1.85057,0.94602 -4.75265,4.70419 -10.98255,10.8118 -12.52211,13.50602 z"
         id="path125"
         sodipodi:nodetypes="ccccccccccccccccccccc" />
    </g>
    <path
       style="opacity:0.99569;fill:#2c332d;fill-opacity:1;stroke-width:0.00000006"
       d="m 163.88032,378.08637 c -11.01977,71.64985 -91.944658,120.28769 -123.134282,164.08029 2.522152,-0.61302 26.178694,-1.77385 44.499704,15.49373 14.999698,14.13724 35.099938,13.80823 39.040668,13.03085 7.88146,-1.55476 22.75826,7.28296 37.17167,3.49967 11.2281,-5.74227 30.08267,4.36121 39.25725,-1.4935 13.40527,-4.96667 31.46939,5.76578 51.58974,4.62468 -22.14789,-65.90545 -39.47954,-132.74888 -58.34165,-199.29425 -14.0559,3.99541 -20.91692,0.5071 -30.0831,0.0585 z"
       id="path7"
       sodipodi:nodetypes="ccscccccc" />
    <ellipse
       style="opacity:0.99569;fill:#d9bba6;fill-opacity:1;stroke-width:6e-08"
       id="path4"
       cx="254.82501"
       cy="312.14389"
       rx="5.8105545"
       ry="6.1523519" />
    <path
       style="fill:none;fill-rule:evenodd;stroke:#000000;stroke-width:1px;stroke-linecap:butt;stroke-linejoin:miter;stroke-opacity:1"
       d="m 320.60589,359.57079 4.78516,11.9629"
       id="path92"
       inkscape:connector-type="polyline"
       inkscape:connector-curvature="0" />
    <g
       id="g20"
       transform="translate(-2.6585593,-16.399158)">
      <path
         style="opacity:0.99569;fill:#d9bba6;fill-opacity:1;stroke-width:6e-08"
         d="m 191.68967,415.92588 c 9.50846,-0.35805 48.45838,44.17675 75.5372,34.86333 28.87838,-14.59249 32.44314,-32.72748 39.36533,-56.0133 l 7.86134,1.36719 c -6.34321,24.7786 -3.18679,51.00762 -46.14264,70.41025 -45.47393,14.06936 -78.40531,-32.04862 -81.78966,-37.41466 -4.31936,-6.49365 -1.96256,-14.14789 5.16843,-13.21281 z"
         id="path5"
         sodipodi:nodetypes="ccccccc" />
      <path
         style="opacity:0.99569;fill:#d9bba6;fill-opacity:1;stroke-width:6e-08"
         d="m 305.90861,396.4849 c -2.64911,-5.18358 -6.40363,-8.15632 -9.91213,-11.62111 -0.32284,-1.0786 0.64384,-2.04378 1.70899,-1.28174 2.05115,1.70391 5.05064,4.80636 7.51954,7.43409 1.35279,0.72486 2.51887,-0.1121 2.81376,-0.8459 0.5333,-4.91765 0.20455,-9.29159 -0.59207,-13.76593 0.44226,-1.74199 2.06957,-1.48175 2.64285,0.37719 l 0.60422,11.98009 c 0.36539,0.6024 1.32894,0.42004 1.60888,-1e-5 l 2.83448,-12.78452 c 0.97788,-1.6653 2.54203,-1.33428 2.39259,0.3418 l -3.43871,12.68442 c -0.0455,0.66757 0.8079,0.72988 1.03146,0.15016 l 5.47735,-10.76914 c 0.6898,-1.51756 2.35776,-2.3449 3.08225,-0.35646 -2.35924,4.55735 -6.94391,11.18615 -5.79108,12.10095 l 0.59936,0.1562 c 1.14879,-0.36725 3.2683,-3.62155 4.9879,-5.51778 1.68436,-1.00568 2.59187,0.40275 1.85057,0.94602 -4.75265,4.70419 -10.98255,10.8118 -12.52211,13.50602 z"
         id="path6"
         sodipodi:nodetypes="ccccccccccccccccccccc" />
    </g>
    <path
       style="opacity:0.99569;fill:#ddb010;fill-opacity:1;stroke-width:0;stroke-dasharray:none;stroke:none;stroke-opacity:1"
       d="m 301.38396,326.27773 c -11.9712,-5.90761 -22.47727,8.49775 -15.95136,15.46798 6.5734,-5.58332 13.0705,-6.05872 17.88484,-3.86699 z"
       id="path11"
       sodipodi:nodetypes="cccc" />
    <path
       style="opacity:0.99569;fill:#558c8b;fill-opacity:1;stroke-width:6e-08"
       d="m 319.99365,334.64808 c 7.52988,2.92589 13.37738,2.74939 17.80212,-0.0507 5.98823,-3.51617 7.63813,-5.35179 10.49906,-8.29891 5.64068,-8.02776 6.60166,-14.54294 5.85165,-20.5219 l -8.59129,-2.7956 c -7.43592,-1.50337 -8.04344,0.22974 -10.81121,0.93896 -3.53087,1.78794 -5.47264,2.93496 -8.68476,5.90387 -6.79599,8.73335 -7.88983,17.23912 -6.06557,24.82428 z"
       id="path12"
       sodipodi:nodetypes="cccccccc" />
    <path
       style="opacity:0.99569;fill:#558c8b;fill-opacity:1;stroke-width:6e-08"
       d="m 344.16258,358.18044 c 20.6258,20.40671 44.38741,73.20767 50.51263,76.37316 5.39156,0.8617 23.14931,-6.0917 14.98461,-18.12654 -14.17654,-25.06081 -35.2123,-45.42848 -61.63024,-62.11361 z"
       id="path13"
       sodipodi:nodetypes="ccccc" />
    <path
       style="opacity:0.99569;fill:#7ba9a8;fill-opacity:1;stroke-width:6e-08"
       d="m 342.66454,355.52192 c 24.28969,15.87036 58.12926,62.85375 64.76374,64.73054 5.45498,-0.23377 21.46374,-10.5975 11.0575,-20.75672 -18.90129,-21.72004 -43.58485,-37.47017 -72.80556,-48.53594 z"
       id="path14"
       sodipodi:nodetypes="ccccc" />
    <g
       id="g142"
       transform="matrix(0.92692514,0,0,0.86246953,66.090253,74.374538)"
       style="stroke-width:1.11842">
      <path
         style="opacity:0.99569;fill:#6f9c72;fill-opacity:1;stroke-width:6.71053e-08"
         d="m 444.70446,253.28819 c -2.50045,-17.43074 -14.00271,-39.65184 -28.03571,-46.88732 -34.13921,-21.21162 -94.81923,11.79531 -126.6441,32.38609 l 7.25062,-12.08435 c 21.05336,-31.68845 65.76928,-50.85473 114.55973,-36.73647 30.60177,10.61407 37.56616,44.07342 42.05358,60.90519 z"
         id="path21"
         sodipodi:nodetypes="ccccccc" />
      <g
         id="g141"
         style="stroke-width:1.11842">
        <path
           style="opacity:0.99569;fill:#695a44;fill-opacity:1;stroke-width:6.71053e-08"
           d="m 447.96358,535.34744 -4.08939,-17.05131 28.00705,-3.54238 -0.61469,21.06166 z"
           id="path22"
           sodipodi:nodetypes="ccccc" />
        <path
           style="opacity:0.99569;fill:#695a44;fill-opacity:1;stroke-width:6.71053e-08"
           d="m 453.00761,518.04607 -9.44086,-20.39347 24.93087,-3.20058 -0.85638,24.2036 z"
           id="path29"
           sodipodi:nodetypes="ccccc" />
        <path
           style="opacity:0.99569;fill:#695a44;fill-opacity:1;stroke-width:6.71053e-08"
           d="m 448.59128,497.234 -6.61635,-21.47667 25.13485,0.1768 -4.09932,23.86929 z"
           id="path34"
           sodipodi:nodetypes="ccccc" />
        <path
           style="opacity:0.99569;fill:#695a44;fill-opacity:1;stroke-width:6.71053e-08"
           d="m 447.14116,475.96553 -6.61635,-21.47667 25.13485,0.1768 -4.09932,23.86929 z"
           id="path35"
           sodipodi:nodetypes="ccccc" />
        <path
           style="opacity:0.99569;fill:#695a44;fill-opacity:1;stroke-width:6.71053e-08"
           d="m 447.62453,456.14718 -6.61635,-21.47667 25.13485,0.1768 -4.09932,23.86929 z"
           id="path62"
           sodipodi:nodetypes="ccccc" />
        <path
           style="opacity:0.99569;fill:#695a44;fill-opacity:1;stroke-width:6.71053e-08"
           d="m 447.62453,435.84545 -6.61635,-21.47667 25.13485,0.1768 -4.09932,23.86929 z"
           id="path63"
           sodipodi:nodetypes="ccccc" />
        <path
           style="opacity:0.99569;fill:#695a44;fill-opacity:1;stroke-width:6.71053e-08"
           d="m 448.1079,415.06035 -6.61635,-21.47667 25.13485,0.1768 -4.09932,23.86929 z"
           id="path64"
           sodipodi:nodetypes="ccccc" />
        <path
           style="opacity:0.99569;fill:#695a44;fill-opacity:1;stroke-width:6.71053e-08"
           d="m 446.1744,394.75862 -6.61635,-21.47667 25.13485,0.1768 -4.09932,23.86929 z"
           id="path65"
           sodipodi:nodetypes="ccccc" />
        <path
           style="opacity:0.99569;fill:#695a44;fill-opacity:1;stroke-width:6.71053e-08"
           d="m 444.72428,375.90702 -6.61635,-21.47667 25.13485,0.1768 -4.09932,23.86929 z"
           id="path66"
           sodipodi:nodetypes="ccccc" />
        <path
           style="opacity:0.99569;fill:#695a44;fill-opacity:1;stroke-width:6.71053e-08"
           d="m 443.27416,358.50554 -6.61635,-21.47667 25.13485,0.1768 -4.09932,23.86929 z"
           id="path67"
           sodipodi:nodetypes="ccccc" />
        <path
           style="opacity:0.99569;fill:#695a44;fill-opacity:1;stroke-width:6.71053e-08"
           d="m 441.82404,337.23707 -6.61635,-21.47667 25.13485,0.1768 -4.09932,23.86929 z"
           id="path68"
           sodipodi:nodetypes="ccccc" />
        <path
           style="opacity:0.99569;fill:#695a44;fill-opacity:1;stroke-width:6.71053e-08"
           d="m 441.34067,319.35222 -6.61635,-21.47667 25.13485,0.1768 -4.09932,23.86929 z"
           id="path69"
           sodipodi:nodetypes="ccccc" />
        <path
           style="opacity:0.99569;fill:#695a44;fill-opacity:1;stroke-width:6.71053e-08"
           d="m 440.8573,300.01724 -6.61635,-21.47667 25.13485,0.1768 -4.09932,23.86929 z"
           id="path88"
           sodipodi:nodetypes="ccccc" />
        <g
           id="g140"
           transform="translate(-2.050784)"
           style="stroke-width:1.11842">
          <path
             style="opacity:0.99569;fill:#58805b;fill-opacity:1;stroke-width:6.71053e-08"
             d="m 444.9685,224.40517 c 6.3012,-16.44317 7.07119,-41.4529 -1.66452,-54.6045 -18.89203,-38.46429 -91.08095,-50.30925 -130.74105,-37.71176 1.40809,-3.30881 3.04579,-6.61761 10.76609,-9.92642 33.81644,-15.01444 88.007,-5.15471 123.75314,30.92917 21.56399,24.1686 11.35928,56.786 7.0853,73.67323 z"
             id="path89"
             sodipodi:nodetypes="ccccccc" />
          <path
             style="opacity:0.99569;fill:#a8c3a8;fill-opacity:1;stroke-width:6.71053e-08"
             d="m 458.4539,222.95505 c -6.3012,-16.44317 -7.07119,-41.4529 1.66452,-54.6045 19.49504,-39.04554 82.72142,-74.632577 126.39068,-33.36139 l -20.43358,-26.36114 c -33.87251,-17.496742 -96.64405,12.07937 -112.15215,40.11327 -16.73025,23.20185 -8.94241,59.68625 -4.66843,76.57348 z"
             id="path90"
             sodipodi:nodetypes="ccccccc" />
          <path
             style="opacity:0.99569;fill:#97b898;fill-opacity:1;stroke-width:6.71053e-08"
             d="m 444.73166,221.57262 c 1.12983,-17.57289 -5.5675,-41.6815 -17.817,-51.64278 -29.05966,-27.76607 -95.22175,-7.91414 -130.59484,5.70743 l 9.5762,-10.33921 c 27.10825,-26.69353 74.80569,-36.27547 119.66043,-12.44513 27.77229,16.66814 27.72207,50.84457 28.65984,68.23899 z"
             id="path108"
             sodipodi:nodetypes="ccccccc" />
          <path
             style="opacity:0.99569;fill:#58805b;fill-opacity:1;stroke-width:6.71053e-08"
             d="m 444.73165,244.77461 c 1.12983,-17.57289 -5.5675,-41.6815 -17.817,-51.64278 -29.05966,-27.76608 -95.22175,-7.91414 -130.59484,5.70743 l 9.5762,-10.33921 c 27.10825,-26.69354 74.80569,-36.27548 119.66043,-12.44513 27.77229,16.66814 27.72207,50.84457 28.65984,68.23899 z"
             id="path130"
             sodipodi:nodetypes="ccccccc" />
          <path
             style="opacity:0.99569;fill:#58805b;fill-opacity:1;stroke-width:6.71053e-08"
             d="M 443.73771,267.78942 C 441.23726,250.35868 429.735,228.13758 415.702,220.9021 381.56279,199.69048 320.88277,232.69741 289.0579,253.28819 l 7.25062,-12.08435 c 21.05336,-31.68845 65.76928,-50.85473 114.55973,-36.73647 30.60177,10.61407 37.56616,44.07342 42.05358,60.90519 z"
             id="path134"
             sodipodi:nodetypes="ccccccc" />
          <g
             id="g139"
             style="stroke-width:1.11842">
            <path
               style="opacity:0.99569;fill:#6f9c72;fill-opacity:1;stroke-width:6.71053e-08"
               d="m 454.68376,220.12251 c -1.12983,-17.57289 5.5675,-41.6815 17.817,-51.64278 29.05966,-27.76608 95.22175,-7.91414 130.59484,5.70743 l -9.5762,-10.33921 c -27.10825,-26.69354 -74.80569,-36.27548 -119.66043,-12.44513 -27.77229,16.66814 -27.72207,50.84457 -28.65984,68.23899 z"
               id="path135"
               sodipodi:nodetypes="ccccccc" />
            <path
               style="opacity:0.99569;fill:#58805b;fill-opacity:1;stroke-width:6.71053e-08"
               d="m 450.33339,240.42424 c -1.12983,-17.57289 5.5675,-41.6815 17.817,-51.64278 29.05966,-27.76608 95.22175,-7.91414 130.59484,5.70743 l -9.5762,-10.33921 C 562.06078,157.45614 514.36334,147.8742 469.5086,171.70455 c -27.77229,16.66814 -27.72207,50.84457 -28.65984,68.23899 z"
               id="path136"
               sodipodi:nodetypes="ccccccc" />
            <path
               style="opacity:0.99569;fill:#58805b;fill-opacity:1;stroke-width:6.71053e-08"
               d="m 451.47171,263.43905 c 2.50045,-17.43074 14.00271,-39.65184 28.03571,-46.88732 34.13921,-21.21162 94.81923,11.79531 126.6441,32.38609 L 598.9009,236.85347 C 577.84754,205.16502 533.13162,185.99874 484.34117,200.117 c -30.60177,10.61407 -37.56616,44.07342 -42.05358,60.90519 z"
               id="path137"
               sodipodi:nodetypes="ccccccc" />
            <path
               style="opacity:0.99569;fill:#695a44;fill-opacity:1;stroke-width:6.71053e-08"
               d="m 439.40718,262.79741 -6.61635,-21.47667 25.13485,0.1768 -4.09932,23.86929 z"
               id="path138"
               sodipodi:nodetypes="ccccc" />
            <path
               style="opacity:0.99569;fill:#80a782;fill-opacity:1;stroke-width:6.71053e-08"
               d="m 452.43846,241.20383 c 2.50045,-17.43074 14.00271,-39.65184 28.03571,-46.88732 34.13921,-21.21162 94.81923,11.79531 126.6441,32.38609 l -7.25062,-12.08435 c -21.05336,-31.68845 -65.76928,-50.85473 -114.55973,-36.73647 -30.60177,10.61407 -37.56616,44.07342 -42.05358,60.90519 z"
               id="path139"
               sodipodi:nodetypes="ccccccc" />
          </g>
        </g>
        <path
           style="opacity:0.99569;fill:#695a44;fill-opacity:1;stroke-width:6.71053e-08"
           d="m 439.89055,282.13239 -6.61635,-21.47667 25.13485,0.1768 -4.09932,23.86929 z"
           id="path140"
           sodipodi:nodetypes="ccccc" />
      </g>
    </g>
    <path
       style="fill:none;fill-rule:evenodd;stroke:#000000;stroke-width:1px;stroke-linecap:butt;stroke-linejoin:miter;stroke-opacity:1"
       d="m 327.78364,361.27977 4.78516,10.25392"
       id="path93"
       inkscape:connector-type="polyline"
       inkscape:connector-curvature="0" />
    <path
       style="opacity:0.99569;fill:#2d5958;fill-opacity:1;stroke-width:0.00000006"
       d="m 297.70548,334.61958 c -0.94071,7.17774 2.14468,10.25392 5.81055,15.38088 4.00735,5.18064 9.38048,7.96894 20.16604,10.93752 8.97287,1.6534 17.74299,-0.17489 23.92581,-4.10157 5.09509,-4.94769 5.51375,-13.16318 3.41798,-18.79885 -1.41808,-7.93064 -3.91504,-11.69463 -11.96291,-17.77347 -7.59795,-5.91791 -24.26049,-5.97342 -28.36917,-4.10156 -5.9989,2.21127 -8.70551,6.05796 -10.93752,10.25393 -1.00017,3.05095 -1.94528,6.04684 -2.05078,8.20312 z"
       id="path8"
       sodipodi:nodetypes="ccccccccc" />
    <path
       style="opacity:0.99569;fill:#7ba9a8;fill-opacity:1;stroke-width:6e-08"
       d="m 327.57973,339.68934 c 6.34215,5.00371 11.98473,6.54826 17.0357,5.16749 6.75566,-1.60733 8.87098,-2.87897 12.46985,-4.85851 7.74524,-6.02275 10.57297,-11.97044 11.60769,-17.90675 l -7.39515,-5.19013 c -6.6691,-3.61609 -7.75775,-2.13705 -10.61185,-2.2699 -3.89978,0.67494 -6.0924,1.20269 -10.03343,3.10016 -9.05658,6.35888 -12.59458,14.17086 -13.07281,21.95764 z"
       id="path9"
       sodipodi:nodetypes="cccccccc" />
    <ellipse
       style="opacity:0.99569;fill:#030303;fill-opacity:1;stroke-width:6e-08"
       id="path10"
       cx="312.62241"
       cy="326.88196"
       rx="6.1630239"
       ry="5.9213367" />
    <path
       id="path15"
       style="opacity:0.99569;fill:#695a44;fill-opacity:1;stroke-width:6e-08"
       d="m 178.36524,249.42188 c -47.25172,2.4e-4 -85.556627,26.18626 -85.556646,58.48828 0.04669,26.89613 26.919436,50.3034 65.124996,56.72656 -0.83932,-32.40613 10.79167,-76.4821 14.14844,-76.0625 7.77633,6.42368 2.9501,19.14865 3.86719,29.00195 7.83404,-12.96078 14.07455,-29.90542 19.33398,-49.30273 4.43994,6.1224 1.74418,12.24479 0,18.36719 15.47873,-5.27982 17.16718,-19.17856 23.1543,-30.39063 -12.34142,-4.4788 -26.09963,-6.82313 -40.07226,-6.82812 z"
       sodipodi:nodetypes="ccccccccc" />
    <path
       style="opacity:0.99569;fill:#695a44;fill-opacity:1;stroke-width:6e-08"
       d="M 118.94254,340.39681 C 140.96883,387.4725 78.307744,471.4922 49.438196,537.57002 79.790246,475.15866 143.66031,459.95087 139.76998,349.31582 Z"
       id="path20"
       sodipodi:nodetypes="cccc" />
    <ellipse
       style="opacity:0.99569;fill:#d3bb66;fill-opacity:1;stroke-width:6e-08"
       id="path86"
       cx="141.05507"
       cy="538.98657"
       rx="6.1523519"
       ry="6.635726" />
    <ellipse
       style="opacity:0.99569;fill:#d3bb66;fill-opacity:1;stroke-width:6e-08"
       id="ellipse91"
       cx="100.49429"
       cy="528.44543"
       rx="5.4687572"
       ry="5.8105545" />
    <ellipse
       style="opacity:0.99569;fill:#d3bb66;fill-opacity:1;stroke-width:6e-08"
       id="path72"
       cx="108.97817"
       cy="544.02655"
       rx="6.8359466"
       ry="6.1523519" />
    <path
       style="opacity:0.99569;fill:#695a44;fill-opacity:1;stroke-width:6e-08"
       d="M 125.67735,351.41319 C 157.0909,392.81931 113.45398,488.11643 99.091756,558.78082 115.67279,491.39021 174.93011,463.11953 147.91257,355.76357 Z"
       id="path16"
       sodipodi:nodetypes="cccc" />
    <path
       style="opacity:0.99569;fill:#695a44;fill-opacity:1;stroke-width:6e-08"
       d="M 125.1333,328.33341 C 123.64081,380.2858 63.729364,453.74462 -25.60418,473.20004 59.054632,482.8216 93.456346,446.23469 139.7264,345.66466 Z"
       id="path126"
       sodipodi:nodetypes="cccc" />
    <path
       style="opacity:0.99569;fill:#d9bba6;fill-opacity:1;stroke-width:6e-08"
       d="m 118.42673,778.71618 23.20197,5.31712 -33.83621,0.48337 6.82589,-12.56773 3.80835,3.86699 z"
       id="path25"
       sodipodi:nodetypes="cccccc" />
    <path
       style="opacity:0.99569;fill:#d9bba6;fill-opacity:1;stroke-width:6e-08"
       d="m 257.15519,773.88244 15.95135,-6.76724 -21.26847,17.40147 -0.96675,-11.60098 z"
       id="path26"
       sodipodi:nodetypes="ccccc" />
    <path
       style="opacity:0.99569;fill:#101411;fill-opacity:1;stroke-width:0.00000006"
       d="m 109.32362,780.53059 -2.18714,5.38321 c 14.31057,3.44287 28.62113,3.27216 42.9317,2.92418 2.4808,-3.90815 0.0824,-4.23324 -11.59819,-5.90581 -9.83295,0.49457 -19.75746,1.99824 -29.14637,-2.40158 z"
       id="path27"
       sodipodi:nodetypes="ccccc" />
    <path
       style="opacity:0.99569;fill:#101411;fill-opacity:1;stroke-width:0.00000006"
       d="m 250.82371,781.38638 1.61937,5.58033 c 13.36509,-6.16603 24.49087,-15.16816 35.50681,-24.30942 -0.47481,-4.60462 -2.55864,-3.37349 -12.76257,2.55217 -7.41085,6.48157 -14.26824,13.81186 -24.36361,16.17692 z"
       id="path28"
       sodipodi:nodetypes="ccccc" />
    <g
       id="g21">
      <path
         style="opacity:0.99569;fill:#6f9c72;fill-opacity:1;stroke-width:6e-08"
         d="m 444.70446,253.28819 c -2.50045,-17.43074 -14.00271,-39.65184 -28.03571,-46.88732 -34.13921,-21.21162 -94.81923,11.79531 -126.6441,32.38609 l 7.25062,-12.08435 c 21.05336,-31.68845 65.76928,-50.85473 114.55973,-36.73647 30.60177,10.61407 37.56616,44.07342 42.05358,60.90519 z"
         id="path52"
         sodipodi:nodetypes="ccccccc" />
      <g
         id="g19">
        <path
           style="opacity:0.99569;fill:#695a44;fill-opacity:1;stroke-width:6e-08"
           d="m 447.96358,535.34744 -4.08939,-17.05131 28.00705,-3.54238 -0.61469,21.06166 z"
           id="path37"
           sodipodi:nodetypes="ccccc" />
        <path
           style="opacity:0.99569;fill:#695a44;fill-opacity:1;stroke-width:6e-08"
           d="m 453.00761,518.04607 -9.44086,-20.39347 24.93087,-3.20058 -0.85638,24.2036 z"
           id="path38"
           sodipodi:nodetypes="ccccc" />
        <path
           style="opacity:0.99569;fill:#695a44;fill-opacity:1;stroke-width:6e-08"
           d="m 448.59128,497.234 -6.61635,-21.47667 25.13485,0.1768 -4.09932,23.86929 z"
           id="path39"
           sodipodi:nodetypes="ccccc" />
        <path
           style="opacity:0.99569;fill:#695a44;fill-opacity:1;stroke-width:6e-08"
           d="m 447.14116,475.96553 -6.61635,-21.47667 25.13485,0.1768 -4.09932,23.86929 z"
           id="path40"
           sodipodi:nodetypes="ccccc" />
        <path
           style="opacity:0.99569;fill:#695a44;fill-opacity:1;stroke-width:6e-08"
           d="m 447.62453,456.14718 -6.61635,-21.47667 25.13485,0.1768 -4.09932,23.86929 z"
           id="path41"
           sodipodi:nodetypes="ccccc" />
        <path
           style="opacity:0.99569;fill:#695a44;fill-opacity:1;stroke-width:6e-08"
           d="m 447.62453,435.84545 -6.61635,-21.47667 25.13485,0.1768 -4.09932,23.86929 z"
           id="path42"
           sodipodi:nodetypes="ccccc" />
        <path
           style="opacity:0.99569;fill:#695a44;fill-opacity:1;stroke-width:6e-08"
           d="m 448.1079,415.06035 -6.61635,-21.47667 25.13485,0.1768 -4.09932,23.86929 z"
           id="path43"
           sodipodi:nodetypes="ccccc" />
        <path
           style="opacity:0.99569;fill:#695a44;fill-opacity:1;stroke-width:6e-08"
           d="m 446.1744,394.75862 -6.61635,-21.47667 25.13485,0.1768 -4.09932,23.86929 z"
           id="path44"
           sodipodi:nodetypes="ccccc" />
        <path
           style="opacity:0.99569;fill:#695a44;fill-opacity:1;stroke-width:6e-08"
           d="m 444.72428,375.90702 -6.61635,-21.47667 25.13485,0.1768 -4.09932,23.86929 z"
           id="path45"
           sodipodi:nodetypes="ccccc" />
        <path
           style="opacity:0.99569;fill:#695a44;fill-opacity:1;stroke-width:6e-08"
           d="m 443.27416,358.50554 -6.61635,-21.47667 25.13485,0.1768 -4.09932,23.86929 z"
           id="path46"
           sodipodi:nodetypes="ccccc" />
        <path
           style="opacity:0.99569;fill:#695a44;fill-opacity:1;stroke-width:6e-08"
           d="m 441.82404,337.23707 -6.61635,-21.47667 25.13485,0.1768 -4.09932,23.86929 z"
           id="path47"
           sodipodi:nodetypes="ccccc" />
        <path
           style="opacity:0.99569;fill:#695a44;fill-opacity:1;stroke-width:6e-08"
           d="m 441.34067,319.35222 -6.61635,-21.47667 25.13485,0.1768 -4.09932,23.86929 z"
           id="path48"
           sodipodi:nodetypes="ccccc" />
        <path
           style="opacity:0.99569;fill:#695a44;fill-opacity:1;stroke-width:6e-08"
           d="m 440.8573,300.01724 -6.61635,-21.47667 25.13485,0.1768 -4.09932,23.86929 z"
           id="path49"
           sodipodi:nodetypes="ccccc" />
        <g
           id="g18"
           transform="translate(-2.050784)">
          <path
             style="opacity:0.99569;fill:#58805b;fill-opacity:1;stroke-width:6e-08"
             d="m 444.9685,224.40517 c 6.3012,-16.44317 7.07119,-41.4529 -1.66452,-54.6045 -18.89203,-38.46429 -91.08095,-50.30925 -130.74105,-37.71176 1.40809,-3.30881 3.04579,-6.61761 10.76609,-9.92642 33.81644,-15.01444 88.007,-5.15471 123.75314,30.92917 21.56399,24.1686 11.35928,56.786 7.0853,73.67323 z"
             id="path61"
             sodipodi:nodetypes="ccccccc" />
          <path
             style="opacity:0.99569;fill:#a8c3a8;fill-opacity:1;stroke-width:6e-08"
             d="m 458.4539,222.95505 c -6.3012,-16.44317 -7.07119,-41.4529 1.66452,-54.6045 19.49504,-39.04554 82.72142,-74.632577 126.39068,-33.36139 l -20.43358,-26.36114 c -33.87251,-17.496742 -96.64405,12.07937 -112.15215,40.11327 -16.73025,23.20185 -8.94241,59.68625 -4.66843,76.57348 z"
             id="path60"
             sodipodi:nodetypes="ccccccc" />
          <path
             style="opacity:0.99569;fill:#97b898;fill-opacity:1;stroke-width:6e-08"
             d="m 444.73166,221.57262 c 1.12983,-17.57289 -5.5675,-41.6815 -17.817,-51.64278 -29.05966,-27.76607 -95.22175,-7.91414 -130.59484,5.70743 l 9.5762,-10.33921 c 27.10825,-26.69353 74.80569,-36.27547 119.66043,-12.44513 27.77229,16.66814 27.72207,50.84457 28.65984,68.23899 z"
             id="path57"
             sodipodi:nodetypes="ccccccc" />
          <path
             style="opacity:0.99569;fill:#58805b;fill-opacity:1;stroke-width:6e-08"
             d="m 444.73165,244.77461 c 1.12983,-17.57289 -5.5675,-41.6815 -17.817,-51.64278 -29.05966,-27.76608 -95.22175,-7.91414 -130.59484,5.70743 l 9.5762,-10.33921 c 27.10825,-26.69354 74.80569,-36.27548 119.66043,-12.44513 27.77229,16.66814 27.72207,50.84457 28.65984,68.23899 z"
             id="path55"
             sodipodi:nodetypes="ccccccc" />
          <path
             style="opacity:0.99569;fill:#58805b;fill-opacity:1;stroke-width:6e-08"
             d="M 443.73771,267.78942 C 441.23726,250.35868 429.735,228.13758 415.702,220.9021 381.56279,199.69048 320.88277,232.69741 289.0579,253.28819 l 7.25062,-12.08435 c 21.05336,-31.68845 65.76928,-50.85473 114.55973,-36.73647 30.60177,10.61407 37.56616,44.07342 42.05358,60.90519 z"
             id="path58"
             sodipodi:nodetypes="ccccccc" />
          <g
             id="g17">
            <path
               style="opacity:0.99569;fill:#6f9c72;fill-opacity:1;stroke-width:6e-08"
               d="m 454.68376,220.12251 c -1.12983,-17.57289 5.5675,-41.6815 17.817,-51.64278 29.05966,-27.76608 95.22175,-7.91414 130.59484,5.70743 l -9.5762,-10.33921 c -27.10825,-26.69354 -74.80569,-36.27548 -119.66043,-12.44513 -27.77229,16.66814 -27.72207,50.84457 -28.65984,68.23899 z"
               id="path56"
               sodipodi:nodetypes="ccccccc" />
            <path
               style="opacity:0.99569;fill:#58805b;fill-opacity:1;stroke-width:6e-08"
               d="m 450.33339,240.42424 c -1.12983,-17.57289 5.5675,-41.6815 17.817,-51.64278 29.05966,-27.76608 95.22175,-7.91414 130.59484,5.70743 l -9.5762,-10.33921 C 562.06078,157.45614 514.36334,147.8742 469.5086,171.70455 c -27.77229,16.66814 -27.72207,50.84457 -28.65984,68.23899 z"
               id="path54"
               sodipodi:nodetypes="ccccccc" />
            <path
               style="opacity:0.99569;fill:#58805b;fill-opacity:1;stroke-width:6e-08"
               d="m 451.47171,263.43905 c 2.50045,-17.43074 14.00271,-39.65184 28.03571,-46.88732 34.13921,-21.21162 94.81923,11.79531 126.6441,32.38609 L 598.9009,236.85347 C 577.84754,205.16502 533.13162,185.99874 484.34117,200.117 c -30.60177,10.61407 -37.56616,44.07342 -42.05358,60.90519 z"
               id="path59"
               sodipodi:nodetypes="ccccccc" />
            <path
               style="opacity:0.99569;fill:#695a44;fill-opacity:1;stroke-width:6e-08"
               d="m 439.40718,262.79741 -6.61635,-21.47667 25.13485,0.1768 -4.09932,23.86929 z"
               id="path51"
               sodipodi:nodetypes="ccccc" />
            <path
               style="opacity:0.99569;fill:#80a782;fill-opacity:1;stroke-width:6e-08"
               d="m 452.43846,241.20383 c 2.50045,-17.43074 14.00271,-39.65184 28.03571,-46.88732 34.13921,-21.21162 94.81923,11.79531 126.6441,32.38609 l -7.25062,-12.08435 c -21.05336,-31.68845 -65.76928,-50.85473 -114.55973,-36.73647 -30.60177,10.61407 -37.56616,44.07342 -42.05358,60.90519 z"
               id="path53"
               sodipodi:nodetypes="ccccccc" />
          </g>
        </g>
        <path
           style="opacity:0.99569;fill:#695a44;fill-opacity:1;stroke-width:6e-08"
           d="m 439.89055,282.13239 -6.61635,-21.47667 25.13485,0.1768 -4.09932,23.86929 z"
           id="path50"
           sodipodi:nodetypes="ccccc" />
      </g>
    </g>
    <circle
       style="opacity:0.99569;fill:#d3bb66;fill-opacity:1;stroke-width:6e-08"
       id="path70"
       cx="154.03503"
       cy="547.81299"
       r="5.4687572" />
    <circle
       style="opacity:0.99569;fill:#d3bb66;fill-opacity:1;stroke-width:6e-08"
       id="path71"
       cx="220.93677"
       cy="550.42346"
       r="5.8105545" />
    <ellipse
       style="opacity:0.99569;fill:#d3bb66;fill-opacity:1;stroke-width:6e-08"
       id="path73"
       cx="76.664955"
       cy="522.03418"
       rx="5.8105545"
       ry="5.4687572" />
    <ellipse
       style="opacity:0.99569;fill:#d3bb66;fill-opacity:1;stroke-width:6e-08"
       id="path74"
       cx="220.68796"
       cy="564.30151"
       rx="5.8105545"
       ry="5.1269598" />
    <circle
       style="opacity:0.99569;fill:#d3bb66;fill-opacity:1;stroke-width:6e-08"
       id="path75"
       cx="153.63286"
       cy="562.95447"
       r="5.8105545" />
    <ellipse
       style="opacity:0.99569;fill:#d3bb66;fill-opacity:1;stroke-width:6e-08"
       id="path76"
       cx="64.751335"
       cy="532.31995"
       rx="5.8105545"
       ry="4.7851624" />
    <ellipse
       style="opacity:0.99569;fill:#d3bb66;fill-opacity:1;stroke-width:6e-08"
       id="path77"
       cx="74.361908"
       cy="539.14423"
       rx="5.8105545"
       ry="4.7851624" />
    <ellipse
       style="opacity:0.99569;fill:#d3bb66;fill-opacity:1;stroke-width:6e-08"
       id="path78"
       cx="121.47961"
       cy="561.41125"
       rx="4.7851624"
       ry="5.4687572" />
    <ellipse
       style="opacity:0.99569;fill:#d3bb66;fill-opacity:1;stroke-width:6e-08"
       id="path79"
       cx="89.607101"
       cy="547.79633"
       rx="5.8105545"
       ry="4.7851624" />
    <ellipse
       style="opacity:0.99569;fill:#d3bb66;fill-opacity:1;stroke-width:6e-08"
       id="path80"
       cx="171.39627"
       cy="544.04315"
       rx="5.4687572"
       ry="6.1523519" />
    <ellipse
       style="opacity:0.99569;fill:#d3bb66;fill-opacity:1;stroke-width:6e-08"
       id="path81"
       cx="104.93525"
       cy="557.69739"
       rx="5.8105545"
       ry="5.4687572" />
    <ellipse
       style="opacity:0.99569;fill:#d3bb66;fill-opacity:1;stroke-width:6e-08"
       id="path82"
       cx="183.99419"
       cy="564.61481"
       rx="6.4941492"
       ry="6.1523519" />
    <ellipse
       style="opacity:0.99569;fill:#d3bb66;fill-opacity:1;stroke-width:6e-08"
       id="path83"
       cx="234.57013"
       cy="548.42719"
       rx="5.4687572"
       ry="5.8105545" />
    <ellipse
       style="opacity:0.99569;fill:#d3bb66;fill-opacity:1;stroke-width:6e-08"
       id="path84"
       cx="187.78833"
       cy="548.5545"
       rx="6.1523519"
       ry="5.4687572" />
    <ellipse
       style="opacity:0.99569;fill:#d3bb66;fill-opacity:1;stroke-width:6e-08"
       id="path85"
       cx="238.22267"
       cy="565.98199"
       rx="6.8359466"
       ry="4.7851624" />
    <ellipse
       style="opacity:0.99569;fill:#d3bb66;fill-opacity:1;stroke-width:6e-08"
       id="path87"
       cx="205.53749"
       cy="543.77588"
       rx="6.4941492"
       ry="5.8105545" />
    <circle
       style="opacity:0.99569;fill:#d3bb66;fill-opacity:1;stroke-width:6e-08"
       id="circle87"
       cx="137.89008"
       cy="556.4787"
       r="5.8105545" />
    <ellipse
       style="opacity:0.99569;fill:#d3bb66;fill-opacity:1;stroke-width:6e-08"
       id="ellipse87"
       cx="87.085434"
       cy="533.77014"
       rx="4.7851624"
       ry="5.4687572" />
    <circle
       style="opacity:0.99569;fill:#d3bb66;fill-opacity:1;stroke-width:6e-08"
       id="circle88"
       cx="169.33543"
       cy="559.26166"
       r="5.8105545" />
    <circle
       style="opacity:0.99569;fill:#d3bb66;fill-opacity:1;stroke-width:6e-08"
       id="circle89"
       cx="201.50464"
       cy="561.70105"
       r="5.8105545" />
    <circle
       style="opacity:0.99569;fill:#d3bb66;fill-opacity:1;stroke-width:6e-08"
       id="circle90"
       cx="125.00239"
       cy="542.49414"
       r="5.8105545" />
    <ellipse
       style="opacity:0.99569;fill:#d3bb66;fill-opacity:1;stroke-width:6e-08"
       id="ellipse90"
       cx="225.38429"
       cy="535.39935"
       rx="5.8105545"
       ry="5.4687572" />
    <path
       style="opacity:0.99569;fill:#89aeb0;fill-opacity:1;stroke-width:6e-08"
       d="m 118.62696,375.90533 c 0.96675,0 0,0 0,0 z"
       id="path91" />
    <ellipse
       style="opacity:0.99569;fill:#ddb010;fill-opacity:1;stroke:#75f78f;stroke-width:0;stroke-dasharray:none;stroke-opacity:1"
       id="path97"
       cx="118.94547"
       cy="74.511818"
       rx="54.687572"
       ry="48.535221" />
    <ellipse
       style="opacity:0.99569;fill:#26312a;fill-opacity:1;stroke:#faaeae;stroke-width:0;stroke-dasharray:none;stroke-opacity:1"
       id="path98"
       cx="77.417091"
       cy="522.94989"
       rx="2.5634799"
       ry="2.3925812" />
    <circle
       style="opacity:0.99569;fill:#26312a;fill-opacity:1;stroke:#faaeae;stroke-width:0;stroke-dasharray:none;stroke-opacity:1"
       id="path99"
       cx="64.770592"
       cy="533.37476"
       r="1.8798853" />
    <ellipse
       style="opacity:0.99569;fill:#26312a;fill-opacity:1;stroke:#faaeae;stroke-width:0;stroke-dasharray:none;stroke-opacity:1"
       id="path100"
       cx="73.999123"
       cy="539.0144"
       rx="2.2216825"
       ry="2.0507839" />
    <ellipse
       style="opacity:0.99569;fill:#26312a;fill-opacity:1;stroke:#faaeae;stroke-width:0;stroke-dasharray:none;stroke-opacity:1"
       id="path101"
       cx="86.816521"
       cy="534.40015"
       rx="2.0507839"
       ry="1.8798853" />
    <circle
       style="opacity:0.99569;fill:#26312a;fill-opacity:1;stroke:#faaeae;stroke-width:0;stroke-dasharray:none;stroke-opacity:1"
       id="path102"
       cx="100.48841"
       cy="529.44403"
       r="2.0507839" />
    <ellipse
       style="opacity:0.99569;fill:#26312a;fill-opacity:1;stroke:#faaeae;stroke-width:0;stroke-dasharray:none;stroke-opacity:1"
       id="path103"
       cx="89.8927"
       cy="548.41382"
       rx="2.0507839"
       ry="1.8798853" />
    <ellipse
       style="opacity:0.99569;fill:#26312a;fill-opacity:1;stroke:#faaeae;stroke-width:0;stroke-dasharray:none;stroke-opacity:1"
       id="path104"
       cx="104.58998"
       cy="558.66772"
       rx="1.7089866"
       ry="2.2216825" />
    <circle
       style="opacity:0.99569;fill:#26312a;fill-opacity:1;stroke:#faaeae;stroke-width:0;stroke-dasharray:none;stroke-opacity:1"
       id="path105"
       cx="108.86245"
       cy="544.65405"
       r="2.2216825" />
    <circle
       style="opacity:0.99569;fill:#26312a;fill-opacity:1;stroke:#faaeae;stroke-width:0;stroke-dasharray:none;stroke-opacity:1"
       id="path106"
       cx="124.92693"
       cy="542.94507"
       r="2.2216825" />
    <ellipse
       style="opacity:0.99569;fill:#26312a;fill-opacity:1;stroke:#faaeae;stroke-width:0;stroke-dasharray:none;stroke-opacity:1"
       id="path107"
       cx="120.99625"
       cy="562.76929"
       rx="1.7089866"
       ry="2.2216825" />
    <ellipse
       style="opacity:0.99569;fill:#26312a;fill-opacity:1;stroke:#faaeae;stroke-width:0;stroke-dasharray:none;stroke-opacity:1"
       id="path109"
       cx="141.50409"
       cy="540.55249"
       rx="2.7343786"
       ry="2.2216825" />
    <ellipse
       style="opacity:0.99569;fill:#26312a;fill-opacity:1;stroke:#faaeae;stroke-width:0;stroke-dasharray:none;stroke-opacity:1"
       id="path110"
       cx="154.49239"
       cy="549.43921"
       rx="2.0507839"
       ry="1.8798853" />
    <ellipse
       style="opacity:0.99569;fill:#26312a;fill-opacity:1;stroke:#faaeae;stroke-width:0;stroke-dasharray:none;stroke-opacity:1"
       id="path111"
       cx="154.49239"
       cy="562.76929"
       rx="2.0507839"
       ry="2.2216825" />
    <ellipse
       style="opacity:0.99569;fill:#26312a;fill-opacity:1;stroke:#faaeae;stroke-width:0;stroke-dasharray:none;stroke-opacity:1"
       id="path112"
       cx="169.53148"
       cy="559.86401"
       rx="2.7343786"
       ry="2.0507839" />
    <ellipse
       style="opacity:0.99569;fill:#26312a;fill-opacity:1;stroke:#faaeae;stroke-width:0;stroke-dasharray:none;stroke-opacity:1"
       id="path113"
       cx="171.92406"
       cy="544.65405"
       rx="2.0507839"
       ry="1.8798853" />
    <circle
       style="opacity:0.99569;fill:#26312a;fill-opacity:1;stroke:#faaeae;stroke-width:0;stroke-dasharray:none;stroke-opacity:1"
       id="path114"
       cx="187.13403"
       cy="549.09741"
       r="1.8798853" />
    <ellipse
       style="opacity:0.99569;fill:#26312a;fill-opacity:1;stroke:#faaeae;stroke-width:0;stroke-dasharray:none;stroke-opacity:1"
       id="path115"
       cx="183.71606"
       cy="565.16187"
       rx="2.9052773"
       ry="2.2216825" />
    <ellipse
       style="opacity:0.99569;fill:#26312a;fill-opacity:1;stroke:#faaeae;stroke-width:0;stroke-dasharray:none;stroke-opacity:1"
       id="path116"
       cx="206.27469"
       cy="544.99585"
       rx="1.8798853"
       ry="2.2216825" />
    <ellipse
       style="opacity:0.99569;fill:#26312a;fill-opacity:1;stroke:#faaeae;stroke-width:0;stroke-dasharray:none;stroke-opacity:1"
       id="path117"
       cx="201.14772"
       cy="562.59839"
       rx="2.5634799"
       ry="2.0507839" />
    <ellipse
       style="opacity:0.99569;fill:#26312a;fill-opacity:1;stroke:#faaeae;stroke-width:0;stroke-dasharray:none;stroke-opacity:1"
       id="path118"
       cx="221.65556"
       cy="551.31909"
       rx="2.5634799"
       ry="2.3925812" />
    <ellipse
       style="opacity:0.99569;fill:#26312a;fill-opacity:1;stroke:#faaeae;stroke-width:0;stroke-dasharray:none;stroke-opacity:1"
       id="path119"
       cx="225.92804"
       cy="536.62183"
       rx="2.0507839"
       ry="2.3925812" />
    <ellipse
       style="opacity:0.99569;fill:#26312a;fill-opacity:1;stroke:#faaeae;stroke-width:0;stroke-dasharray:none;stroke-opacity:1"
       id="path120"
       cx="234.13116"
       cy="548.92651"
       rx="2.0507839"
       ry="2.3925812" />
    <ellipse
       style="opacity:0.99569;fill:#26312a;fill-opacity:1;stroke:#faaeae;stroke-width:0;stroke-dasharray:none;stroke-opacity:1"
       id="path121"
       cx="221.65556"
       cy="564.99097"
       rx="2.2216825"
       ry="1.7089866" />
    <ellipse
       style="opacity:0.99569;fill:#26312a;fill-opacity:1;stroke:#faaeae;stroke-width:0;stroke-dasharray:none;stroke-opacity:1"
       id="path122"
       cx="239.77083"
       cy="566.69995"
       rx="2.2216825"
       ry="1.7089866" />
    <ellipse
       style="opacity:0.99569;fill:#26312a;fill-opacity:1;stroke:#faaeae;stroke-width:0;stroke-dasharray:none;stroke-opacity:1"
       id="path123"
       cx="138.76971"
       cy="558.15503"
       rx="2.7343786"
       ry="2.3925812" />
    <ellipse
       style="opacity:0.99569;fill:#d3bb66;fill-opacity:1;stroke:none;stroke-width:0;stroke-dasharray:none;stroke-opacity:1"
       id="path127"
       cx="118.26187"
       cy="352.05124"
       rx="8.2031355"
       ry="7.5195413" />
    <ellipse
       style="opacity:0.99569;fill:#d3bb66;fill-opacity:1;stroke:none;stroke-width:0;stroke-dasharray:none;stroke-opacity:1"
       id="path128"
       cx="131.59196"
       cy="360.59616"
       rx="7.1777439"
       ry="7.8613386" />
    <ellipse
       style="opacity:0.99569;fill:#d3bb66;fill-opacity:1;stroke:none;stroke-width:0;stroke-dasharray:none;stroke-opacity:1"
       id="path129"
       cx="147.99825"
       cy="362.30518"
       rx="7.8613386"
       ry="8.8867302" />
    <ellipse
       style="opacity:0.99569;fill:#26312a;fill-opacity:1;stroke:none;stroke-width:0;stroke-dasharray:none;stroke-opacity:1"
       id="path131"
       cx="119.11637"
       cy="352.73483"
       rx="2.9052773"
       ry="2.7343786" />
    <ellipse
       style="opacity:0.99569;fill:#26312a;fill-opacity:1;stroke:none;stroke-width:0;stroke-dasharray:none;stroke-opacity:1"
       id="path132"
       cx="130.39568"
       cy="361.45068"
       rx="2.9052773"
       ry="3.2470746" />
    <circle
       style="opacity:0.99569;fill:#26312a;fill-opacity:1;stroke:none;stroke-width:0;stroke-dasharray:none;stroke-opacity:1"
       id="path133"
       cx="149.53633"
       cy="363.50146"
       r="3.2470746" />
    <text
       xml:space="preserve"
       style="font-style:normal;font-variant:normal;font-weight:bold;font-stretch:normal;font-size:17.3215px;font-family:'MS Reference Sans Serif';-inkscape-font-specification:'MS Reference Sans Serif Bold';opacity:0.99569;fill:#0e0c04;fill-opacity:1;stroke:#75f78f;stroke-width:0"
       x="45.315567"
       y="137.02065"
       id="text1"
       transform="scale(0.76432609,1.3083421)"><tspan
         sodipodi:role="line"
         id="tspan1"
         x="45.315567"
         y="137.02065"
         style="stroke-width:0">Wait for a surprise ...</tspan></text>
    <path
       style="opacity:0.99569;fill:#f1dd92;fill-opacity:1;stroke:#75f78f;stroke-width:0"
       d="m 239.94172,353.41843 c -8.21128,-6.45345 -12.25977,-14.29451 -15.03908,-22.55862 11.39324,4.91956 22.78649,2.92112 34.17973,2.73438 z"
       id="path17"
       sodipodi:nodetypes="cccc" />
    <path
       style="opacity:0.99569;fill:#6f9c72;fill-opacity:1;stroke-width:6.00002e-08"
       d="M 478.65774,105.26108 C 473.8088,62.755579 451.50331,8.568604 424.29014,-9.0753817 358.08646,-60.800702 240.41414,19.687918 178.69849,69.899297 l 14.0606,-29.468135 c 40.82724,-77.273457 127.54156,-124.01114 222.15731,-89.583241 59.34378,25.882803 72.84931,107.474666 81.55143,148.519559 z"
       id="path169"
       sodipodi:nodetypes="ccccccc" />
    <path
       style="opacity:0.99569;fill:#58805b;fill-opacity:1;stroke-width:6.00002e-08"
       d="M 475.19283,34.82877 C 487.41229,-5.2685084 488.90548,-66.25566 471.96495,-98.326324 435.32902,-192.12292 295.33832,-221.00729 218.42839,-190.28785 c 2.73061,-8.06865 5.90648,-16.13728 20.87789,-24.20594 65.57775,-36.61327 170.66554,-12.56995 239.98542,75.42193 41.81747,58.936023 22.02822,138.47475938 13.74001,179.654895 z"
       id="path183"
       sodipodi:nodetypes="ccccccc" />
    <path
       style="opacity:0.99569;fill:#a8c3a8;fill-opacity:1;stroke-width:6.00002e-08"
       d="m 501.34409,31.292599 c -12.21946,-40.0972787 -13.71265,-101.084431 3.22788,-133.155089 37.8053,-95.214 160.4156,-181.99431 245.1002,-81.35299 l -39.62534,-64.28261 C 644.36034,-290.16455 522.63208,-218.0421 492.55836,-149.6804 460.11461,-93.101831 475.217,-4.1332719 483.50521,37.046863 Z"
       id="path184"
       sodipodi:nodetypes="ccccccc" />
    <path
       style="opacity:0.99569;fill:#97b898;fill-opacity:1;stroke-width:6.00002e-08"
       d="m 474.73355,27.921492 c 2.191,-42.852142 -10.79665,-101.64188 -34.55121,-125.93283 -56.35327,-67.708592 -184.65658,-19.298922 -253.25302,13.917779 l 18.57042,-25.212541 c 52.56905,-65.09317 145.06521,-88.45908 232.04873,-30.34791 53.85677,40.645871 53.75938,123.986361 55.57793,166.403297 z"
       id="path185"
       sodipodi:nodetypes="ccccccc" />
    <path
       style="opacity:0.99569;fill:#58805b;fill-opacity:1;stroke-width:6.00002e-08"
       d="m 474.73353,84.500403 c 2.191,-42.852142 -10.79665,-101.64188 -34.55121,-125.93283 -56.35327,-67.708613 -184.65658,-19.298923 -253.25302,13.91778 l 18.57042,-25.212547 c 52.56905,-65.093186 145.06521,-88.459096 232.04873,-30.34791 53.85677,40.645877 53.75938,123.986366 55.57793,166.403302 z"
       id="path186"
       sodipodi:nodetypes="ccccccc" />
    <path
       style="opacity:0.99569;fill:#58805b;fill-opacity:1;stroke-width:6.00002e-08"
       d="m 472.80605,140.62287 c -4.84894,-42.505506 -27.15443,-96.69248 -54.3676,-114.336466 -66.20367,-51.72532 -183.876,28.7633 -245.59164,78.974676 L 186.9074,75.792948 c 40.82724,-77.2734574 127.54156,-124.01114 222.15731,-89.583241 59.34378,25.882802 72.84931,107.474665 81.55144,148.519563 z"
       id="path187"
       sodipodi:nodetypes="ccccccc" />
    <path
       style="opacity:0.99569;fill:#6f9c72;fill-opacity:1;stroke-width:6.00002e-08"
       d="m 496.93317,31.152589 c -2.191,-42.852142 10.79664,-101.64188 34.5512,-125.93283 56.35328,-67.708619 184.65658,-19.298929 253.25303,13.91778 l -18.57042,-25.212549 c -52.56905,-65.09319 -145.06521,-88.4591 -232.04873,-30.34791 -53.85677,40.645874 -53.75938,123.986368 -55.57793,166.403304 z"
       id="path188"
       sodipodi:nodetypes="ccccccc" />
    <path
       style="opacity:0.99569;fill:#58805b;fill-opacity:1;stroke-width:6.00002e-08"
       d="m 488.49681,80.659109 c -2.19099,-42.852143 10.79665,-101.64188 34.55121,-125.93283 56.35327,-67.708619 184.65658,-19.298923 253.25303,13.917779 L 757.73062,-56.568488 C 705.16157,-121.66168 612.66542,-145.02759 525.6819,-86.916398 471.82513,-46.270522 471.92251,37.069967 470.10396,79.486904 Z"
       id="path189"
       sodipodi:nodetypes="ccccccc" />
    <path
       style="opacity:0.99569;fill:#58805b;fill-opacity:1;stroke-width:6.00002e-08"
       d="m 490.70427,136.78157 c 4.84894,-42.5055 27.15444,-96.692474 54.36761,-114.33646 66.20367,-51.72532 183.876,28.7633 245.59164,78.97468 L 776.60293,71.951654 C 735.77568,-5.3218039 649.06137,-52.059487 554.44562,-17.631587 495.10184,8.2512153 481.59631,89.843078 472.89418,130.88797 Z"
       id="path190"
       sodipodi:nodetypes="ccccccc" />
    <path
       style="opacity:0.99569;fill:#80a782;fill-opacity:1;stroke-width:6.00002e-08"
       d="m 491.61227,93.194405 c 4.84894,-42.505504 27.15443,-96.6924789 54.36761,-114.336465 66.20367,-51.72532 183.876,28.7633004 245.59164,78.974679 L 777.51092,28.364485 C 736.68368,-48.908973 649.96937,-95.646663 555.35361,-61.218757 496.00984,-35.335954 482.50431,46.255909 473.80218,87.300802 Z"
       id="path192"
       sodipodi:nodetypes="ccccccc" />
    <path
       style="opacity:0.99569;fill:#695a44;fill-opacity:1;stroke-width:6.00002e-08"
       d="m 467.30841,135.21691 -12.8306,-52.371653 48.74218,0.431134 -7.94951,58.206139 z"
       id="path191"
       sodipodi:nodetypes="ccccc" />
    <path
       style="opacity:0.99569;fill:#4e4232;fill-opacity:1;stroke-width:0.0000000600002"
       d="m 469.32248,175.59873 -12.83061,-52.37165 48.74218,0.43113 -7.94951,58.20615 z"
       id="path193"
       sodipodi:nodetypes="ccccc" />
    <path
       style="opacity:0.99569;fill:#695a44;fill-opacity:1;stroke-width:6.00002e-08"
       d="m 471.19723,219.2116 -12.83061,-52.37165 48.74218,0.43113 -7.94951,58.20615 z"
       id="path182"
       sodipodi:nodetypes="ccccc" />
    <path
       style="opacity:0.99569;fill:#4e4232;fill-opacity:1;stroke-width:0.0000000600002"
       d="m 472.13459,266.36066 -12.8306,-52.37165 48.74217,0.43113 -7.94951,58.20615 z"
       id="path181"
       sodipodi:nodetypes="ccccc" />
    <path
       style="opacity:0.99569;fill:#695a44;fill-opacity:1;stroke-width:6.00002e-08"
       d="m 473.07195,309.97353 -12.8306,-52.37165 48.74218,0.43113 -7.94951,58.20615 z"
       id="path180"
       sodipodi:nodetypes="ccccc" />
    <path
       style="opacity:0.99569;fill:#4e4232;fill-opacity:1;stroke-width:0.0000000600002"
       d="m 475.88407,361.83748 -12.83061,-52.37165 48.74218,0.43113 -7.94951,58.20615 z"
       id="path179"
       sodipodi:nodetypes="ccccc" />
    <path
       style="opacity:0.99569;fill:#695a44;fill-opacity:1;stroke-width:6.00002e-08"
       d="m 478.69618,404.27164 -12.83061,-52.37166 48.74218,0.43114 -7.94951,58.20614 z"
       id="path178"
       sodipodi:nodetypes="ccccc" />
    <path
       style="opacity:0.99569;fill:#4e4232;fill-opacity:1;stroke-width:0.0000000600002"
       d="m 481.50829,450.24196 -12.83061,-52.37165 48.74218,0.43113 -7.94951,58.20615 z"
       id="path177"
       sodipodi:nodetypes="ccccc" />
    <path
       style="opacity:0.99569;fill:#695a44;fill-opacity:1;stroke-width:6.00002e-08"
       d="m 485.25778,499.74848 -12.8306,-52.37165 48.74218,0.43113 -7.94951,58.20615 z"
       id="path176"
       sodipodi:nodetypes="ccccc" />
    <path
       style="opacity:0.99569;fill:#4e4232;fill-opacity:1;stroke-width:0.0000000600002"
       d="m 484.32042,550.43372 -12.8306,-52.37166 48.74217,0.43114 -7.94951,58.20614 z"
       id="path175"
       sodipodi:nodetypes="ccccc" />
    <path
       style="opacity:0.99569;fill:#695a44;fill-opacity:1;stroke-width:6.00002e-08"
       d="m 484.32042,599.94024 -12.8306,-52.37166 48.74217,0.43113 -7.94951,58.20615 z"
       id="path174"
       sodipodi:nodetypes="ccccc" />
    <path
       style="opacity:0.99569;fill:#4e4232;fill-opacity:1;stroke-width:0.0000000600002"
       d="m 483.38306,648.26802 -12.83061,-52.37166 48.74218,0.43113 -7.94951,58.20615 z"
       id="path173"
       sodipodi:nodetypes="ccccc" />
    <path
       style="opacity:0.99569;fill:#695a44;fill-opacity:1;stroke-width:6.00002e-08"
       d="m 486.19517,700.13197 -12.83061,-52.37166 48.74218,0.43114 -7.94951,58.20614 z"
       id="path172"
       sodipodi:nodetypes="ccccc" />
    <path
       style="opacity:0.99569;fill:#4e4232;fill-opacity:1;stroke-width:0.0000000600002"
       d="m 494.75943,750.88297 -18.30797,-49.73023 48.34662,-7.80473 -1.66072,59.02137 z"
       id="path171"
       sodipodi:nodetypes="ccccc" />
    <path
       style="opacity:0.99569;fill:#695a44;fill-opacity:1;stroke-width:6.00002e-08"
       d="m 490.99993,794.06463 -13.93228,-44.27444 59.05208,-3.57059 -5.84514,47.4467 z"
       id="path170"
       sodipodi:nodetypes="ccccc" />
  </g>
</svg>
