<?xml version="1.0" encoding="UTF-8" standalone="no"?>
<!-- Created with Inkscape (http://www.inkscape.org/) -->

<svg
   width="148mm"
   height="210mm"
   viewBox="0 0 559.37006 793.70081"
   version="1.1"
   id="svg1"
   inkscape:version="1.3.2 (091e20e, 2023-11-25, custom)"
   sodipodi:docname="tigre.svg"
   xmlns:inkscape="http://www.inkscape.org/namespaces/inkscape"
   xmlns:sodipodi="http://sodipodi.sourceforge.net/DTD/sodipodi-0.dtd"
   xmlns="http://www.w3.org/2000/svg"
   xmlns:svg="http://www.w3.org/2000/svg">
  <sodipodi:namedview
     id="namedview1"
     pagecolor="#ffffff"
     bordercolor="#000000"
     borderopacity="0.25"
     inkscape:showpageshadow="2"
     inkscape:pageopacity="0.0"
     inkscape:pagecheckerboard="0"
     inkscape:deskcolor="#d1d1d1"
     inkscape:document-units="mm"
     inkscape:zoom="0.73142761"
     inkscape:cx="254.9808"
     inkscape:cy="414.25836"
     inkscape:window-width="1419"
     inkscape:window-height="1008"
     inkscape:window-x="133"
     inkscape:window-y="0"
     inkscape:window-maximized="0"
     inkscape:current-layer="layer3" />
  <defs
     id="defs1" />
  <g
     inkscape:label="Calque 1"
     inkscape:groupmode="layer"
     id="layer1"
     sodipodi:insensitive="true">
    <rect
       style="fill:#524740;fill-opacity:1;stroke-width:0"
       id="rect1"
       width="559.37006"
       height="793.70081"
       x="0"
       y="0"
       ry="0.72594589" />
  </g>
  <g
     inkscape:groupmode="layer"
     id="layer2"
     inkscape:label="Calque 2">
    <path
       style="fill:#b0710e;fill-opacity:1;stroke-width:0"
       d="m 27.068967,336.4286 c 14.492358,-42.9412 21.940722,-71.80259 89.907643,-95.70814 100.54188,-27.06897 240.72046,-20.30173 325.79435,6.76724 81.82862,33.88407 92.55345,111.26735 93.77464,142.11208 -0.83198,28.37084 4.36561,57.64981 -17.40147,90.87439 -46.98828,62.3533 -85.88655,65.68271 -131.47785,77.3399 -75.09763,12.20506 -163.70002,11.93157 -246.52095,0.96675 C 79.274092,549.97209 60.614343,522.23302 29.969213,473.70693 4.1419772,416.3465 17.296103,358.01932 27.068967,336.4286 Z"
       id="path6"
       sodipodi:nodetypes="ccccccccc" />
    <path
       style="fill:#b0710e;fill-opacity:1;stroke:none;stroke-width:1.8e-07;stroke-dasharray:none;stroke-opacity:1"
       d="M 29.969214,771.46556 C 36.454124,687.06162 64.449378,634.74833 159.51356,546.21309 l 237.82021,-1.9335 c 48.23067,81.20691 109.74779,169.18105 106.34238,250.38795 H 29.969213 c 0,-1.02198 1e-6,2.46618 1e-6,-23.20198 z"
       id="path40"
       sodipodi:nodetypes="cccccc" />
    <path
       id="path37"
       style="fill:#ffccaa;fill-opacity:0.74867725;stroke:none;stroke-width:0.00000018;stroke-dasharray:none;stroke-opacity:1"
       d="m 514.07618,308.72656 c -10.7045,73.21307 -57.22405,180.64361 -147.66993,188.2461 -49.62225,8.02749 -105.15016,10.14932 -172.94922,0 C 114.54891,485.24783 46.927896,426.25982 35.791016,311.71485 c -2.981374,7.73661 -5.734578,15.85914 -8.722656,24.71289 -9.772855,21.59069 -22.9268198,79.91892 2.90039,137.27929 30.6451,48.52605 49.304606,76.2655 111.17578,85.07422 82.82085,10.96481 171.42393,11.23825 246.52149,-0.96679 45.59125,-11.65718 84.49028,-14.98661 131.47851,-77.33985 21.76706,-33.22454 16.56842,-62.50419 17.4004,-90.875 -0.69196,-17.47732 -4.46795,-49.892 -22.46875,-80.87305 z"
       sodipodi:nodetypes="ccccccccccc" />
    <path
       style="fill:#b0710e;fill-opacity:1;stroke-width:0"
       d="m 63.805423,272.62317 c 4.071995,-26.57768 1.642337,-55.81775 26.102219,-85.0739 24.490968,-24.03138 53.815678,-19.14898 73.472908,-3.86699 34.40318,23.70982 28.09351,43.34835 39.6367,64.77217 z"
       id="path7"
       sodipodi:nodetypes="ccccc" />
    <path
       style="fill:#b0710e;fill-opacity:1;stroke-width:0"
       d="m 477.55341,281.68576 c 1.34262,-26.85426 9.58883,-55.01248 -8.50462,-88.58084 -19.17207,-28.45605 -48.8801,-29.55583 -71.20348,-18.52802 -38.46028,16.32608 -36.21863,36.83117 -51.82506,55.50374 z"
       id="path8"
       sodipodi:nodetypes="ccccc" />
    <path
       style="fill:#1a1a1a;fill-opacity:1;stroke-width:0"
       d="m 232.98647,238.78696 c -31.90208,-11.57581 -62.96607,9.19248 -87.0074,18.36823 30.61371,-5.45617 60.26068,-13.57922 91.84114,-6.76724 10.65519,1.75234 8.78777,-6.01824 -4.83374,-11.60099 z"
       id="path9"
       sodipodi:nodetypes="cccc" />
    <path
       style="fill:#1a1a1a;fill-opacity:1;stroke-width:0"
       d="m 278.62978,238.95283 c -9.43731,-0.80819 -10.99923,12.54034 0,9.66749 51.93969,-4.94767 68.25217,0.79282 96.67488,2.90024 -29.42735,-6.28745 -39.65701,-26.97317 -96.67488,-12.56773 z"
       id="path10"
       sodipodi:nodetypes="cccc" />
    <path
       style="fill:#ffccaa;fill-opacity:0.75661373;stroke:none;stroke-width:0.00000018;stroke-dasharray:none;stroke-opacity:1"
       d="m 85.449334,344.5317 c -9.581272,-12.02396 -7.870115,-33.80287 6.15235,-53.32038 11.681416,-9.54151 15.224326,-19.89687 61.523516,-25.9766 41.63874,-0.99374 56.00814,17.69138 43.75006,45.11725 -18.95287,30.97065 -49.49612,49.67608 -83.39855,47.16803 -16.375569,-1.53485 -23.01887,-3.524 -28.027376,-12.9883 z"
       id="path38"
       sodipodi:nodetypes="cccccc" />
    <path
       style="fill:#1a1a1a;fill-opacity:1;stroke-width:0"
       d="m 232.50309,265.85593 c -30.51007,-12.57623 -98.18378,8.93102 -95.70813,14.50123 32.54721,-3.5456 62.67755,-11.96725 95.22476,-3.867 10.77557,3.11932 12.23849,-6.34516 0.48337,-10.63423 z"
       id="path11"
       sodipodi:nodetypes="cccc" />
    <path
       style="fill:#ffccaa;fill-opacity:0.756614;stroke:none;stroke-width:1.8e-07;stroke-dasharray:none;stroke-opacity:1"
       d="m 453.47712,340.43013 c 9.58128,-12.02396 7.87012,-33.80287 -6.15235,-53.32038 -11.68141,-9.54151 -15.22432,-19.89687 -61.52351,-25.9766 -41.63874,-0.99374 -56.00814,17.69138 -43.75006,45.11725 18.95287,30.97065 49.49612,49.67608 83.39855,47.16803 16.37557,-1.53485 23.01887,-3.524 28.02737,-12.9883 z"
       id="path39"
       sodipodi:nodetypes="cccccc" />
    <path
       style="fill:#1a1a1a;fill-opacity:1;stroke-width:0"
       d="m 293.26842,267.05725 c 59.94068,-17.24205 68.1435,4.31931 100.54187,7.73399 -32.26503,-1.32963 -62.01502,-6.85098 -101.50862,3.867 -12.85538,2.27929 -7.51817,-9.61768 0.96675,-11.60099 z"
       id="path12"
       sodipodi:nodetypes="cccc" />
    <path
       style="fill:#1a1a1a;fill-opacity:1;stroke-width:0"
       d="M 95.182072,320.72604 C 80.201626,381.38828 107.581,429.34257 115.4838,483.13984 L 98.082319,307.19155 Z"
       id="path13"
       sodipodi:nodetypes="cccc" />
    <path
       style="fill:#1a1a1a;fill-opacity:1;stroke-width:0"
       d="m 407.18379,328.59743 c 5.72074,52.78012 -7.61343,100.11597 -19.33497,147.91257 23.89007,-41.61503 54.67482,-80.12745 29.00246,-144.04557 -7.6484,-13.68154 -8.21023,-7.52066 -9.66749,-3.867 z"
       id="path14"
       sodipodi:nodetypes="cccc" />
    <path
       style="fill:#1a1a1a;fill-opacity:1;stroke-width:0"
       d="m 152.56378,345.9302 c -4.97081,42.83004 20.28482,74.32516 33.83621,110.20937 -7.61314,-38.06574 -19.63223,-113.81616 -20.30173,-122.7771 -4.28939,-19.81331 -12.91687,-6.64077 -13.53448,12.56773 z"
       id="path15"
       sodipodi:nodetypes="cccc" />
    <path
       style="fill:#1a1a1a;fill-opacity:1;stroke-width:0"
       d="m 370.21276,331.82942 c 6.13544,46.31731 -8.23223,83.84758 -19.33497,122.7771 20.21513,-37.08035 43.48813,-73.39623 33.83621,-117.94335 -4.93347,-17.04652 -15.20007,-16.39634 -14.50124,-4.83375 z"
       id="path16"
       sodipodi:nodetypes="cccc" />
    <path
       style="fill:#1a1a1a;fill-opacity:1;stroke-width:0"
       d="M 56.277546,303.1469 C 60.891805,275.72227 73.26937,281.26482 74.645773,296.37966 74.013285,321.41962 100.90426,473.0101 100.74799,467.4942 100.64109,463.7208 53.080442,330.05599 56.277546,303.1469 Z"
       id="path17"
       sodipodi:nodetypes="ccsc" />
    <path
       style="fill:#1a1a1a;fill-opacity:1;stroke-width:0"
       d="m 502.22601,363.98094 c -9.90759,-27.53273 10.08332,-17.8079 12.56774,-10.15087 25.97099,31.66574 -52.15299,177.48177 -51.72106,169.18105 2.29598,-44.12347 53.7024,-129.92917 39.15332,-159.03018 z"
       id="path18"
       sodipodi:nodetypes="ccsc" />
    <path
       style="fill:#1a1a1a;fill-opacity:1;stroke-width:0"
       d="m 160.60592,290.45355 c -20.46285,-13.23646 -47.69294,0.77648 -71.539407,11.60099 22.766147,0.2853 43.584697,-11.11498 68.639167,2.90024 17.47007,6.30788 9.15782,-9.12081 2.90024,-14.50123 z"
       id="path19"
       sodipodi:nodetypes="cccc" />
    <path
       style="fill:#1a1a1a;fill-opacity:1;stroke-width:0"
       d="m 336.85505,287.30451 c -19.65087,16.47636 -5.27381,16.79981 16.43473,13.53448 24.36287,-1.50674 97.33341,6.70421 84.10715,1.45012 -10.49972,-4.17099 -77.64678,-27.03446 -100.54188,-14.9846 z"
       id="path20"
       sodipodi:nodetypes="ccsc" />
    <path
       style="fill:#1a1a1a;fill-opacity:1;stroke-width:0"
       d="m 47.529425,355.7778 c 9.90759,-27.53273 -10.08332,-17.8079 -12.56774,-10.15087 -25.9709896,31.66574 52.15299,177.48177 51.72106,169.18105 -2.29598,-44.12347 -53.7024,-129.92917 -39.15332,-159.03018 z"
       id="path21"
       sodipodi:nodetypes="ccsc" />
    <path
       style="fill:#1a1a1a;fill-opacity:1;stroke-width:0"
       d="m 498.4465,307.24846 c -4.61426,-27.42463 -16.99182,-21.88208 -18.36822,-6.76724 0.63248,25.03996 -26.25849,176.63044 -26.10222,171.11454 0.1069,-3.7734 47.66755,-137.43821 44.47044,-164.3473 z"
       id="path22"
       sodipodi:nodetypes="ccsc" />
    <path
       style="fill:#1a1a1a;fill-opacity:1;stroke-width:0"
       d="m 454.242,334.39793 c 14.98045,60.66224 -12.39893,108.61653 -20.30173,162.4138 l 17.40148,-175.94829 z"
       id="path23"
       sodipodi:nodetypes="cccc" />
    <path
       style="fill:#1a1a1a;fill-opacity:1;stroke-width:0"
       d="m 140.60953,313.55834 c -5.72074,52.78012 7.61343,100.11597 19.33497,147.91257 -23.89007,-41.61503 -54.67482,-80.12745 -29.00246,-144.04557 7.6484,-13.68154 8.21023,-7.52066 9.66749,-3.867 z"
       id="path24"
       sodipodi:nodetypes="cccc" />
    <path
       style="fill:#1a1a1a;fill-opacity:1;stroke-width:0"
       d="m 26.257457,443.1554 c -2.472852,24.24494 22.397826,42.11361 42.889465,58.42058 -10.107494,-20.40142 -29.733716,-33.75019 -28.65722,-62.43806 -2.334433,-18.4267 -12.289393,-4.00322 -14.232245,4.01748 z"
       id="path25"
       sodipodi:nodetypes="cccc" />
    <path
       style="fill:#1a1a1a;fill-opacity:1;stroke-width:0"
       d="m 526.98456,447.25697 c 2.47285,24.24494 -22.39782,42.11361 -42.88946,58.42058 10.10749,-20.40142 29.73371,-33.75019 28.65722,-62.43806 2.33443,-18.4267 12.28939,-4.00322 14.23224,4.01748 z"
       id="path26"
       sodipodi:nodetypes="cccc" />
    <ellipse
       style="fill:#000000;fill-opacity:1;stroke-width:0"
       id="path27"
       cx="197.55885"
       cy="356.1528"
       rx="14.355488"
       ry="21.191435" />
    <ellipse
       style="fill:#000000;fill-opacity:1;stroke-width:0"
       id="ellipse27"
       cx="350.68405"
       cy="356.1528"
       rx="14.355488"
       ry="21.191435" />
    <g
       id="g33"
       transform="translate(-2.9002465)">
      <path
         style="fill:#ffccaa;fill-opacity:1;stroke-width:0"
         d="m 293.86754,457.2722 c 12.67527,-5.96089 19.05795,-8.59054 29.48584,-18.8516 4.81744,-7.69079 4.16117,-13.18737 -8.21736,-10.15086 l -27.06897,17.40148 c -8.06775,7.43614 -1.59479,15.80718 5.80049,11.60098 z"
         id="path32"
         sodipodi:nodetypes="ccccc" />
      <ellipse
         style="fill:#000000;fill-opacity:1;stroke-width:0"
         id="ellipse29"
         cx="34.741898"
         cy="536.74908"
         rx="7.5195413"
         ry="4.7851624"
         transform="rotate(-29.548517)" />
    </g>
    <path
       style="fill:#ffccaa;fill-opacity:1;stroke-width:0"
       d="m 168.89646,228.72105 c -14.71774,5.17637 -53.46598,13.52867 -78.661965,24.20897 -3.256192,-20.25937 -0.874093,-40.08834 11.621105,-49.90241 12.3047,-9.42558 27.99303,-13.18586 41.74785,-8.48629 28.02728,9.45974 28.41954,18.43612 25.29301,34.17973 z"
       id="path29"
       sodipodi:nodetypes="ccccc" />
    <path
       style="fill:#ffccaa;fill-opacity:1;stroke-width:0"
       d="m 383.72949,229.84449 c 14.16825,6.53202 51.96393,18.4766 76.04891,31.46971 5.13928,-19.86536 4.62475,-39.83027 -6.89638,-50.77145 -11.36786,-10.53656 -26.63506,-15.74962 -40.76957,-12.35892 -28.79005,6.79324 -30.02127,15.69343 -28.38296,31.66066 z"
       id="path30"
       sodipodi:nodetypes="ccccc" />
    <g
       id="g32"
       transform="translate(5.3171186,0.48337442)">
      <path
         style="fill:#ffccaa;fill-opacity:1;stroke-width:0"
         d="m 266.3393,457.2722 c -12.67527,-5.96089 -19.05795,-8.59054 -29.48584,-18.8516 -4.81744,-7.69079 -4.16117,-13.18737 8.21736,-10.15086 l 27.06897,17.40148 c 8.06775,7.43614 1.59479,15.80718 -5.80049,11.60098 z"
         id="path31"
         sodipodi:nodetypes="ccccc" />
      <ellipse
         style="fill:#000000;fill-opacity:1;stroke-width:0"
         id="path28"
         cx="495.85806"
         cy="142.34097"
         rx="7.5195413"
         ry="4.7851624"
         transform="rotate(43.781126)" />
    </g>
    <path
       style="fill:#ffccaa;fill-opacity:1;stroke-width:0"
       d="m 281.32391,467.42306 1.45012,16.9181 z"
       id="path33" />
    <path
       style="fill:#000000;fill-opacity:1;stroke:#000000;stroke-width:2.26772;stroke-dasharray:none;stroke-opacity:1"
       d="m 281.32391,465.73125 c 1.78752,4.45944 2.52178,8.39226 1.73328,11.56369 -4.29874,-3.87526 -2.28459,-7.67504 -1.73328,-11.56369 z"
       id="path34"
       sodipodi:nodetypes="ccc" />
    <path
       style="fill:#000000;fill-opacity:1;stroke:#000000;stroke-width:2.26772;stroke-dasharray:none;stroke-opacity:1"
       d="m 282.56627,478.07435 c -1.6741,6.97547 -21.96127,7.17453 -22.21682,6.15235 8.43912,-1.43067 18.07894,-2.14093 22.21682,-6.15235 z"
       id="path35"
       sodipodi:nodetypes="ccc" />
    <path
       style="fill:#000000;fill-opacity:1;stroke:#000000;stroke-width:2.26772;stroke-dasharray:none;stroke-opacity:1"
       d="m 283.92622,478.79941 c 1.6741,6.97547 21.96127,7.17453 22.21682,6.15235 -8.43912,-1.43067 -18.07894,-2.14093 -22.21682,-6.15235 z"
       id="path36"
       sodipodi:nodetypes="ccc" />
    <path
       style="fill:#ebb583;fill-opacity:1;stroke:none;stroke-width:1.8e-07;stroke-dasharray:none;stroke-opacity:1"
       d="m 108.27587,794.66754 c 7.22008,-50.43037 -7.23127,-101.71587 74.43966,-162.41381 73.11988,-48.91268 122.20867,-36.02142 165.31405,-17.40148 107.4336,52.78475 102.20215,122.31928 114.07636,179.81529 z"
       id="path41"
       sodipodi:nodetypes="ccccc" />
    <path
       style="fill:#1a1a1a;fill-opacity:1;stroke:none;stroke-width:1.8e-07;stroke-dasharray:none;stroke-opacity:1"
       d="m 90.04505,623.56133 c 19.16049,91.74656 84.41843,113.6378 134.24068,149.83773 C 180.66158,753.78408 112.843,736.92757 90.874391,701.85965 66.3677,670.94284 81.916767,628.43645 90.04505,623.56133 Z"
       id="path42"
       sodipodi:nodetypes="cccc" />
    <path
       style="fill:#1a1a1a;fill-opacity:1;stroke:none;stroke-width:1.8e-07;stroke-dasharray:none;stroke-opacity:1"
       d="M 87.994266,621.51055 C 107.15476,713.25711 172.4127,735.14835 222.23495,771.34828 178.6108,751.7333 110.79222,734.87679 88.823607,699.80887 64.316916,668.89206 79.865983,626.38567 87.994266,621.51055 Z"
       id="path43"
       sodipodi:nodetypes="cccc" />
    <path
       style="fill:#1a1a1a;fill-opacity:1;stroke:none;stroke-width:1.8e-07;stroke-dasharray:none;stroke-opacity:1"
       d="m 445.00097,620.82696 c -19.16049,91.74656 -84.41843,113.6378 -134.24068,149.83773 43.62415,-19.61498 111.44273,-36.47149 133.41134,-71.53941 24.50669,-30.91681 8.95762,-73.4232 0.82934,-78.29832 z"
       id="path44"
       sodipodi:nodetypes="cccc" />
    <path
       style="fill:#1a1a1a;fill-opacity:1;stroke:none;stroke-width:1.8e-07;stroke-dasharray:none;stroke-opacity:1"
       d="m 122.85759,582.54565 c 19.16049,91.74656 84.41843,113.6378 134.24068,149.83773 -43.62415,-19.61498 -111.44273,-36.47149 -133.41134,-71.53941 -24.506687,-30.91681 -8.95762,-73.4232 -0.82934,-78.29832 z"
       id="path45"
       sodipodi:nodetypes="cccc" />
    <path
       style="fill:#1a1a1a;fill-opacity:1;stroke:none;stroke-width:1.8e-07;stroke-dasharray:none;stroke-opacity:1"
       d="m 419.70796,579.81128 c -19.16049,91.74656 -84.41843,113.6378 -134.24068,149.83773 43.62415,-19.61498 111.44273,-36.47149 133.41134,-71.53941 24.50669,-30.91681 8.95762,-73.4232 0.82934,-78.29832 z"
       id="path46"
       sodipodi:nodetypes="cccc" />
    <path
       style="fill:#1a1a1a;fill-opacity:1;stroke:none;stroke-width:1.8e-07;stroke-dasharray:none;stroke-opacity:1"
       d="M 55.865317,676.19812 C 75.025807,767.94468 182.66662,756.33978 232.48887,792.53971 188.86472,772.92473 78.663267,789.56436 56.694658,754.49644 32.187967,723.57963 47.737034,681.07324 55.865317,676.19812 Z"
       id="path47"
       sodipodi:nodetypes="cccc" />
    <path
       style="fill:#1a1a1a;fill-opacity:1;stroke:none;stroke-width:1.8e-07;stroke-dasharray:none;stroke-opacity:1"
       d="m 475.07913,676.88171 c -19.16049,91.74656 -126.8013,80.14166 -176.62355,116.34159 43.62415,-19.61498 153.8256,-2.97535 175.79421,-38.04327 24.50669,-30.91681 8.95762,-73.4232 0.82934,-78.29832 z"
       id="path48"
       sodipodi:nodetypes="cccc" />
  </g>
  <g
     inkscape:groupmode="layer"
     id="layer3"
     inkscape:label="Calque 3">
    <path
       style="fill:#376f5b;fill-opacity:1;stroke-width:0"
       d="m 560.68585,524.69078 c -3.6374,44.94736 -18.63366,97.98101 -53.16641,131.0918 -67.64877,69.52177 -164.42622,-11.08884 -87.28934,-82.17035 40.32343,-34.44428 90.71539,-40.7731 140.45575,-48.92145 z"
       id="path2"
       sodipodi:nodetypes="cccc" />
    <path
       style="fill:#376f5b;fill-opacity:1;stroke-width:0"
       d="M 2.6109146,632.5951 C 47.023425,624.78329 98.428085,604.90826 128.17534,567.43913 191.08775,493.60377 101.80608,404.76274 38.225255,488.1903 7.6901446,531.54921 6.0867046,582.31172 2.6109146,632.5951 Z"
       id="path4"
       sodipodi:nodetypes="cccc" />
    <path
       style="fill:#376f5b;fill-opacity:1;stroke-width:0"
       d="M -0.28933706,196.59138 C 44.123173,188.77957 95.527837,168.90454 125.27509,131.43541 188.1875,57.600042 98.905833,-31.240983 35.325003,52.186572 4.7898929,95.545492 3.1864529,146.308 -0.28933706,196.59138 Z"
       id="path5"
       sodipodi:nodetypes="cccc" />
    <path
       style="fill:#376f5b;fill-opacity:1;stroke-width:0"
       d="m 559.35352,169.61346 c -42.53482,14.97611 -97.07979,22.86929 -141.3811,4.80746 C 326.93226,140.9348 361.16143,19.722971 457.48893,61.240352 505.36565,84.048394 531.66126,127.49888 559.35352,169.61346 Z"
       id="path1"
       sodipodi:nodetypes="cccc" />
    <path
       style="fill:#376f5b;fill-opacity:0.544974;stroke-width:0"
       d="m 561.06565,495.30267 c -36.32224,26.72435 -86.19769,50.17421 -133.84001,45.81026 -96.84753,-5.49437 -99.43719,-131.4199 4.80911,-119.78426 52.44596,7.86185 90.26513,41.76043 129.0309,73.974 z"
       id="path49"
       sodipodi:nodetypes="cccc" />
    <path
       style="fill:#376f5b;fill-opacity:0.544974;stroke-width:0"
       d="M 0.74720084,202.0341 C 4.3846008,246.98146 19.380861,300.01511 53.913611,333.1259 121.56238,402.64767 218.33983,322.03706 141.20295,250.95555 100.87952,216.51127 50.487561,210.18245 0.74720084,202.0341 Z"
       id="path50"
       sodipodi:nodetypes="cccc" />
    <path
       style="fill:#376f5b;fill-opacity:0.544974;stroke-width:0"
       d="m -2.5764205,207.63349 c 40.4427595,19.9469 93.6553495,34.2953 139.7960905,21.6514 94.38672,-22.3781 74.8728,-146.809416 -25.72222,-117.08869 -50.257191,16.92931 -81.551941,56.92985 -114.0738705,95.43729 z"
       id="path51"
       sodipodi:nodetypes="cccc" />
    <path
       style="fill:#376f5b;fill-opacity:0.544974;stroke-width:0"
       d="m 10.317526,639.53468 c 3.6374,44.94736 18.63366,97.98101 53.16641,131.0918 67.648774,69.52177 164.426224,-11.08884 87.289344,-82.17035 -40.32343,-34.44428 -90.715394,-40.7731 -140.455754,-48.92145 z"
       id="path52"
       sodipodi:nodetypes="cccc" />
  </g>
</svg>
